<?xml version="1.0" encoding="utf-8"?>
<!-- Generator: Adobe Illustrator 25.0.1, SVG Export Plug-In . SVG Version: 6.00 Build 0)  -->
<svg version="1.1" id="Layer_1" xmlns="http://www.w3.org/2000/svg" xmlns:xlink="http://www.w3.org/1999/xlink" x="0px" y="0px"
	 viewBox="0 0 792 612" style="enable-background:new 0 0 792 612;" xml:space="preserve">
<style type="text/css">
	.st0{fill:#026A7B;}
	.st1{fill:#FFFFFF;}
	.st2{fill:#00697B;}
	.st3{fill:#013333;}
</style>
<g>
	<g>
		<circle class="st0" cx="138.8" cy="154.4" r="112.2"/>
	</g>
	<path class="st1" d="M205.6,161.9H81.1c-8.4,0-15.2-6.8-15.2-15.2v-29.6c0-8.4,6.8-15.2,15.2-15.2h124.4c8.4,0,15.2,6.8,15.2,15.2
		v29.6C220.8,155.1,213.9,161.9,205.6,161.9z"/>
	<path class="st1" d="M205.6,229.1H81.1c-8.4,0-15.2-6.8-15.2-15.2v-29.6c0-8.4,6.8-15.2,15.2-15.2h124.4c8.4,0,15.2,6.8,15.2,15.2
		v29.6C220.8,222.3,213.9,229.1,205.6,229.1z"/>
	<g>
		<path class="st1" d="M102.5,87.5c-0.8,0.4-2.4,0.8-4.4,0.8c-4.7,0-8.2-3-8.2-8.4c0-5.2,3.5-8.7,8.7-8.7c2.1,0,3.4,0.4,3.9,0.7
			l-0.5,1.8c-0.8-0.4-2-0.7-3.4-0.7c-3.9,0-6.5,2.5-6.5,6.9c0,4.1,2.3,6.7,6.4,6.7c1.3,0,2.6-0.3,3.5-0.7L102.5,87.5z"/>
		<path class="st1" d="M115.7,82c0,4.4-3.1,6.3-5.9,6.3c-3.2,0-5.7-2.4-5.7-6.1c0-4,2.6-6.3,5.9-6.3C113.4,75.9,115.7,78.3,115.7,82
			z M106.2,82.1c0,2.6,1.5,4.6,3.6,4.6c2.1,0,3.6-1.9,3.6-4.6c0-2-1-4.6-3.6-4.6C107.3,77.5,106.2,79.8,106.2,82.1z"/>
		<path class="st1" d="M118.4,79.4c0-1.2,0-2.2-0.1-3.2h1.9l0.1,2h0c0.6-1.1,2-2.2,3.9-2.2c1.7,0,4.2,1,4.2,5.1v7.1h-2.2v-6.9
			c0-1.9-0.7-3.5-2.8-3.5c-1.4,0-2.5,1-2.9,2.2c-0.1,0.3-0.1,0.6-0.1,1v7.2h-2.2V79.4z"/>
		<path class="st1" d="M134.6,72.7v3.4h3.1v1.7h-3.1v6.4c0,1.5,0.4,2.3,1.6,2.3c0.6,0,1-0.1,1.3-0.1l0.1,1.6
			c-0.4,0.2-1.1,0.3-1.9,0.3c-1,0-1.8-0.3-2.3-0.9c-0.6-0.6-0.8-1.7-0.8-3.1v-6.5h-1.9v-1.7h1.9v-2.9L134.6,72.7z"/>
		<path class="st1" d="M146.8,88.1l-0.2-1.5h-0.1c-0.7,0.9-1.9,1.8-3.7,1.8c-2.4,0-3.7-1.7-3.7-3.4c0-2.9,2.6-4.5,7.2-4.4v-0.2
			c0-1-0.3-2.8-2.7-2.8c-1.1,0-2.3,0.3-3.1,0.9l-0.5-1.4c1-0.6,2.4-1.1,3.9-1.1c3.7,0,4.5,2.5,4.5,4.9v4.5c0,1,0,2,0.2,2.9H146.8z
			 M146.5,82c-2.4,0-5.1,0.4-5.1,2.7c0,1.4,0.9,2.1,2,2.1c1.6,0,2.5-1,2.9-2c0.1-0.2,0.1-0.5,0.1-0.7V82z"/>
		<path class="st1" d="M154.5,72.8c0,0.7-0.5,1.3-1.4,1.3c-0.8,0-1.3-0.6-1.3-1.3c0-0.8,0.6-1.4,1.4-1.4
			C154,71.4,154.5,72,154.5,72.8z M152.1,88.1V76.1h2.2v11.9H152.1z"/>
		<path class="st1" d="M157.9,79.4c0-1.2,0-2.2-0.1-3.2h1.9l0.1,2h0c0.6-1.1,2-2.2,3.9-2.2c1.7,0,4.2,1,4.2,5.1v7.1h-2.2v-6.9
			c0-1.9-0.7-3.5-2.8-3.5c-1.4,0-2.5,1-2.9,2.2c-0.1,0.3-0.1,0.6-0.1,1v7.2h-2.2V79.4z"/>
		<path class="st1" d="M172.8,82.5c0,2.9,1.9,4.1,4.1,4.1c1.6,0,2.5-0.3,3.3-0.6l0.4,1.6c-0.8,0.3-2.1,0.7-4,0.7
			c-3.7,0-5.9-2.4-5.9-6c0-3.6,2.1-6.4,5.6-6.4c3.9,0,4.9,3.4,4.9,5.6c0,0.4,0,0.8-0.1,1H172.8z M179.1,80.9c0-1.4-0.6-3.5-3-3.5
			c-2.2,0-3.2,2-3.3,3.5H179.1z"/>
		<path class="st1" d="M183.9,79.8c0-1.4,0-2.6-0.1-3.7h1.9l0.1,2.3h0.1c0.5-1.6,1.9-2.6,3.3-2.6c0.2,0,0.4,0,0.6,0.1v2
			c-0.2,0-0.4-0.1-0.7-0.1c-1.5,0-2.6,1.2-2.9,2.8c0,0.3-0.1,0.6-0.1,1v6.4h-2.1V79.8z"/>
	</g>
	<g>
		<path class="st2" d="M113.8,132.5l-1.7,5.2h-2.2l5.7-16.6h2.6l5.7,16.6h-2.3l-1.8-5.2H113.8z M119.3,130.9l-1.6-4.8
			c-0.4-1.1-0.6-2.1-0.9-3h0c-0.2,1-0.5,2-0.8,3l-1.6,4.8H119.3z"/>
		<path class="st2" d="M126.1,129.7c0-1.5,0-2.8-0.1-3.9h1.9l0.1,2h0c0.9-1.5,2.3-2.3,4.2-2.3c2.9,0,5.1,2.4,5.1,6.1
			c0,4.3-2.6,6.4-5.4,6.4c-1.6,0-3-0.7-3.7-1.9h0v6.5h-2.1V129.7z M128.3,132.9c0,0.3,0,0.6,0.1,0.9c0.4,1.5,1.7,2.5,3.3,2.5
			c2.3,0,3.6-1.9,3.6-4.6c0-2.4-1.3-4.4-3.6-4.4c-1.5,0-2.9,1.1-3.3,2.7c-0.1,0.3-0.1,0.6-0.1,0.9V132.9z"/>
		<path class="st2" d="M140.2,129.7c0-1.5,0-2.8-0.1-3.9h1.9l0.1,2h0c0.9-1.5,2.3-2.3,4.2-2.3c2.9,0,5.1,2.4,5.1,6.1
			c0,4.3-2.6,6.4-5.4,6.4c-1.6,0-3-0.7-3.7-1.9h0v6.5h-2.1V129.7z M142.3,132.9c0,0.3,0,0.6,0.1,0.9c0.4,1.5,1.7,2.5,3.3,2.5
			c2.3,0,3.6-1.9,3.6-4.6c0-2.4-1.3-4.4-3.6-4.4c-1.5,0-2.9,1.1-3.3,2.7c-0.1,0.3-0.1,0.6-0.1,0.9V132.9z"/>
		<path class="st2" d="M162.2,132.5l-1.7,5.2h-2.2l5.7-16.6h2.6l5.7,16.6h-2.3l-1.8-5.2H162.2z M167.6,130.9l-1.6-4.8
			c-0.4-1.1-0.6-2.1-0.9-3h0c-0.2,1-0.5,2-0.8,3l-1.6,4.8H167.6z"/>
	</g>
	<g>
		<path class="st2" d="M99.1,191c0.9-0.2,2.4-0.3,3.9-0.3c2.1,0,3.5,0.4,4.6,1.2c0.9,0.6,1.4,1.6,1.4,2.9c0,1.6-1.1,3-2.8,3.7v0
			c1.6,0.4,3.4,1.7,3.4,4.2c0,1.4-0.6,2.5-1.4,3.3c-1.2,1.1-3,1.6-5.7,1.6c-1.5,0-2.6-0.1-3.3-0.2V191z M101.2,197.8h1.9
			c2.3,0,3.6-1.2,3.6-2.8c0-1.9-1.5-2.7-3.7-2.7c-1,0-1.6,0.1-1.9,0.1V197.8z M101.2,205.8c0.4,0.1,1,0.1,1.8,0.1
			c2.2,0,4.3-0.8,4.3-3.2c0-2.3-1.9-3.2-4.3-3.2h-1.8V205.8z"/>
		<path class="st2" d="M114.8,192.1c0,0.7-0.5,1.3-1.4,1.3c-0.8,0-1.3-0.6-1.3-1.3c0-0.8,0.6-1.4,1.4-1.4
			C114.3,190.7,114.8,191.3,114.8,192.1z M112.4,207.4v-11.9h2.2v11.9H112.4z"/>
		<path class="st2" d="M118.1,198.7c0-1.2,0-2.2-0.1-3.2h1.9l0.1,2h0c0.6-1.1,2-2.2,3.9-2.2c1.7,0,4.2,1,4.2,5.1v7.1h-2.2v-6.9
			c0-1.9-0.7-3.5-2.8-3.5c-1.4,0-2.5,1-2.9,2.2c-0.1,0.3-0.1,0.6-0.1,1v7.2h-2.2V198.7z"/>
		<path class="st2" d="M131.5,205.2c0.6,0.4,1.8,0.9,2.9,0.9c1.6,0,2.3-0.8,2.3-1.8c0-1-0.6-1.6-2.2-2.2c-2.1-0.8-3.2-1.9-3.2-3.4
			c0-1.9,1.6-3.5,4.1-3.5c1.2,0,2.3,0.3,2.9,0.7l-0.5,1.6c-0.5-0.3-1.3-0.7-2.4-0.7c-1.3,0-2,0.7-2,1.6c0,1,0.7,1.4,2.3,2
			c2.1,0.8,3.1,1.8,3.1,3.6c0,2.1-1.6,3.6-4.5,3.6c-1.3,0-2.5-0.3-3.4-0.8L131.5,205.2z"/>
		<path class="st2" d="M139.8,208.4l6.9-17.9h1.7l-6.9,17.9H139.8z"/>
		<path class="st2" d="M150.1,190.8h2.1v14.8h7.1v1.8h-9.3V190.8z"/>
		<path class="st2" d="M164.1,192.1c0,0.7-0.5,1.3-1.4,1.3c-0.8,0-1.3-0.6-1.3-1.3c0-0.8,0.6-1.4,1.4-1.4
			C163.6,190.7,164.1,191.3,164.1,192.1z M161.7,207.4v-11.9h2.2v11.9H161.7z"/>
		<path class="st2" d="M167.4,207.4c0-0.8,0.1-2,0.1-3.1v-14.4h2.1v7.5h0c0.8-1.3,2.1-2.2,4.1-2.2c3,0,5.1,2.5,5,6.1
			c0,4.3-2.7,6.4-5.4,6.4c-1.7,0-3.1-0.7-4-2.2h-0.1l-0.1,2H167.4z M169.6,202.6c0,0.3,0,0.5,0.1,0.8c0.4,1.5,1.7,2.5,3.3,2.5
			c2.3,0,3.6-1.9,3.6-4.6c0-2.4-1.2-4.4-3.6-4.4c-1.5,0-2.9,1-3.3,2.7c0,0.2-0.1,0.5-0.1,0.9V202.6z"/>
		<path class="st2" d="M181.2,205.2c0.6,0.4,1.8,0.9,2.9,0.9c1.6,0,2.3-0.8,2.3-1.8c0-1-0.6-1.6-2.2-2.2c-2.1-0.8-3.2-1.9-3.2-3.4
			c0-1.9,1.6-3.5,4.1-3.5c1.2,0,2.3,0.3,2.9,0.7l-0.5,1.6c-0.5-0.3-1.3-0.7-2.4-0.7c-1.3,0-2,0.7-2,1.6c0,1,0.7,1.4,2.3,2
			c2.1,0.8,3.1,1.8,3.1,3.6c0,2.1-1.6,3.6-4.5,3.6c-1.3,0-2.5-0.3-3.4-0.8L181.2,205.2z"/>
	</g>
	<g>
		<circle class="st2" cx="397" cy="154.4" r="112.2"/>
	</g>
	<path class="st1" d="M461.5,161.9H337.1c-8.4,0-15.2-6.8-15.2-15.2v-29.6c0-8.4,6.8-15.2,15.2-15.2h124.4c8.4,0,15.2,6.8,15.2,15.2
		v29.6C476.7,155.1,469.9,161.9,461.5,161.9z"/>
	<path class="st1" d="M461.5,228.8H337.1c-8.4,0-15.2-6.8-15.2-15.2V184c0-8.4,6.8-15.2,15.2-15.2h124.4c8.4,0,15.2,6.8,15.2,15.2
		v29.6C476.7,222,469.9,228.8,461.5,228.8z"/>
	<g>
		<path class="st1" d="M358.5,87.5c-0.8,0.4-2.4,0.8-4.4,0.8c-4.7,0-8.2-3-8.2-8.4c0-5.2,3.5-8.7,8.7-8.7c2.1,0,3.4,0.4,3.9,0.7
			l-0.5,1.8c-0.8-0.4-2-0.7-3.4-0.7c-3.9,0-6.5,2.5-6.5,6.9c0,4.1,2.3,6.7,6.4,6.7c1.3,0,2.6-0.3,3.5-0.7L358.5,87.5z"/>
		<path class="st1" d="M371.6,82c0,4.4-3.1,6.3-5.9,6.3c-3.2,0-5.7-2.4-5.7-6.1c0-4,2.6-6.3,5.9-6.3C369.3,75.9,371.6,78.3,371.6,82
			z M362.2,82.1c0,2.6,1.5,4.6,3.6,4.6c2.1,0,3.6-1.9,3.6-4.6c0-2-1-4.6-3.6-4.6S362.2,79.8,362.2,82.1z"/>
		<path class="st1" d="M374.4,79.4c0-1.2,0-2.2-0.1-3.2h1.9l0.1,2h0c0.6-1.1,2-2.2,3.9-2.2c1.7,0,4.2,1,4.2,5.1v7.1h-2.2v-6.9
			c0-1.9-0.7-3.5-2.8-3.5c-1.4,0-2.5,1-2.9,2.2c-0.1,0.3-0.1,0.6-0.1,1v7.2h-2.2V79.4z"/>
		<path class="st1" d="M390.6,72.7v3.4h3.1v1.7h-3.1v6.4c0,1.5,0.4,2.3,1.6,2.3c0.6,0,1-0.1,1.3-0.1l0.1,1.6
			c-0.4,0.2-1.1,0.3-1.9,0.3c-1,0-1.8-0.3-2.3-0.9c-0.6-0.6-0.8-1.7-0.8-3.1v-6.5h-1.9v-1.7h1.9v-2.9L390.6,72.7z"/>
		<path class="st1" d="M402.7,88.1l-0.2-1.5h-0.1c-0.7,0.9-1.9,1.8-3.7,1.8c-2.4,0-3.7-1.7-3.7-3.4c0-2.9,2.6-4.5,7.2-4.4v-0.2
			c0-1-0.3-2.8-2.7-2.8c-1.1,0-2.3,0.3-3.1,0.9l-0.5-1.4c1-0.6,2.4-1.1,3.9-1.1c3.7,0,4.5,2.5,4.5,4.9v4.5c0,1,0,2,0.2,2.9H402.7z
			 M402.4,82c-2.4,0-5.1,0.4-5.1,2.7c0,1.4,0.9,2.1,2,2.1c1.6,0,2.5-1,2.9-2c0.1-0.2,0.1-0.5,0.1-0.7V82z"/>
		<path class="st1" d="M410.4,72.8c0,0.7-0.5,1.3-1.4,1.3c-0.8,0-1.3-0.6-1.3-1.3c0-0.8,0.6-1.4,1.4-1.4
			C409.9,71.4,410.4,72,410.4,72.8z M408,88.1V76.1h2.2v11.9H408z"/>
		<path class="st1" d="M413.8,79.4c0-1.2,0-2.2-0.1-3.2h1.9l0.1,2h0c0.6-1.1,2-2.2,3.9-2.2c1.7,0,4.2,1,4.2,5.1v7.1h-2.2v-6.9
			c0-1.9-0.7-3.5-2.8-3.5c-1.4,0-2.5,1-2.9,2.2c-0.1,0.3-0.1,0.6-0.1,1v7.2h-2.2V79.4z"/>
		<path class="st1" d="M428.7,82.5c0,2.9,1.9,4.1,4.1,4.1c1.6,0,2.5-0.3,3.3-0.6l0.4,1.6c-0.8,0.3-2.1,0.7-4,0.7
			c-3.7,0-5.9-2.4-5.9-6c0-3.6,2.1-6.4,5.6-6.4c3.9,0,4.9,3.4,4.9,5.6c0,0.4,0,0.8-0.1,1H428.7z M435.1,80.9c0-1.4-0.6-3.5-3-3.5
			c-2.2,0-3.2,2-3.3,3.5H435.1z"/>
		<path class="st1" d="M439.9,79.8c0-1.4,0-2.6-0.1-3.7h1.9l0.1,2.3h0.1c0.5-1.6,1.9-2.6,3.3-2.6c0.2,0,0.4,0,0.6,0.1v2
			c-0.2,0-0.4-0.1-0.7-0.1c-1.5,0-2.6,1.2-2.9,2.8c0,0.3-0.1,0.6-0.1,1v6.4h-2.1V79.8z"/>
	</g>
	<g>
		<path class="st2" d="M370.7,136.6l-1.7,5.2h-2.2l5.7-16.6h2.6l5.7,16.6h-2.3l-1.8-5.2H370.7z M376.1,134.9l-1.6-4.8
			c-0.4-1.1-0.6-2.1-0.9-3h0c-0.2,1-0.5,2-0.8,3l-1.6,4.8H376.1z"/>
		<path class="st2" d="M382.9,133.8c0-1.5,0-2.8-0.1-3.9h1.9l0.1,2h0c0.9-1.5,2.3-2.3,4.2-2.3c2.9,0,5.1,2.4,5.1,6.1
			c0,4.3-2.6,6.4-5.4,6.4c-1.6,0-3-0.7-3.7-1.9h0v6.5h-2.1V133.8z M385.1,136.9c0,0.3,0,0.6,0.1,0.9c0.4,1.5,1.7,2.5,3.3,2.5
			c2.3,0,3.6-1.9,3.6-4.6c0-2.4-1.3-4.4-3.6-4.4c-1.5,0-2.9,1.1-3.3,2.7c-0.1,0.3-0.1,0.6-0.1,0.9V136.9z"/>
		<path class="st2" d="M397,133.8c0-1.5,0-2.8-0.1-3.9h1.9l0.1,2h0c0.9-1.5,2.3-2.3,4.2-2.3c2.9,0,5.1,2.4,5.1,6.1
			c0,4.3-2.6,6.4-5.4,6.4c-1.6,0-3-0.7-3.7-1.9h0v6.5H397V133.8z M399.1,136.9c0,0.3,0,0.6,0.1,0.9c0.4,1.5,1.7,2.5,3.3,2.5
			c2.3,0,3.6-1.9,3.6-4.6c0-2.4-1.3-4.4-3.6-4.4c-1.5,0-2.9,1.1-3.3,2.7c-0.1,0.3-0.1,0.6-0.1,0.9V136.9z"/>
		<path class="st2" d="M416.3,125.4c0.9-0.2,2.4-0.3,3.9-0.3c2.1,0,3.5,0.4,4.6,1.2c0.9,0.6,1.4,1.6,1.4,2.9c0,1.6-1.1,3-2.8,3.7v0
			c1.6,0.4,3.4,1.7,3.4,4.2c0,1.4-0.6,2.5-1.4,3.3c-1.2,1.1-3,1.6-5.7,1.6c-1.5,0-2.6-0.1-3.3-0.2V125.4z M418.5,132.2h1.9
			c2.3,0,3.6-1.2,3.6-2.8c0-1.9-1.5-2.7-3.7-2.7c-1,0-1.6,0.1-1.9,0.1V132.2z M418.5,140.2c0.4,0.1,1,0.1,1.8,0.1
			c2.2,0,4.3-0.8,4.3-3.2c0-2.3-1.9-3.2-4.3-3.2h-1.8V140.2z"/>
	</g>
	<g>
		<path class="st2" d="M355,191.3c0.9-0.2,2.4-0.3,3.9-0.3c2.1,0,3.5,0.4,4.6,1.2c0.9,0.6,1.4,1.6,1.4,2.9c0,1.6-1.1,3-2.8,3.7v0
			c1.6,0.4,3.4,1.7,3.4,4.2c0,1.4-0.6,2.5-1.4,3.3c-1.2,1.1-3,1.6-5.7,1.6c-1.5,0-2.6-0.1-3.3-0.2V191.3z M357.2,198.2h1.9
			c2.3,0,3.6-1.2,3.6-2.8c0-1.9-1.5-2.7-3.7-2.7c-1,0-1.6,0.1-1.9,0.1V198.2z M357.2,206.1c0.4,0.1,1,0.1,1.8,0.1
			c2.2,0,4.3-0.8,4.3-3.2c0-2.3-1.9-3.2-4.3-3.2h-1.8V206.1z"/>
		<path class="st2" d="M370.7,192.5c0,0.7-0.5,1.3-1.4,1.3c-0.8,0-1.3-0.6-1.3-1.3c0-0.8,0.6-1.4,1.4-1.4
			C370.2,191.1,370.7,191.7,370.7,192.5z M368.3,207.7v-11.9h2.2v11.9H368.3z"/>
		<path class="st2" d="M374.1,199c0-1.2,0-2.2-0.1-3.2h1.9l0.1,2h0c0.6-1.1,2-2.2,3.9-2.2c1.7,0,4.2,1,4.2,5.1v7.1h-2.2v-6.9
			c0-1.9-0.7-3.5-2.8-3.5c-1.4,0-2.5,1-2.9,2.2c-0.1,0.3-0.1,0.6-0.1,1v7.2h-2.2V199z"/>
		<path class="st2" d="M387.5,205.5c0.6,0.4,1.8,0.9,2.9,0.9c1.6,0,2.3-0.8,2.3-1.8c0-1-0.6-1.6-2.2-2.2c-2.1-0.8-3.2-1.9-3.2-3.4
			c0-1.9,1.6-3.5,4.1-3.5c1.2,0,2.3,0.3,2.9,0.7l-0.5,1.6c-0.5-0.3-1.3-0.7-2.4-0.7c-1.3,0-2,0.7-2,1.6c0,1,0.7,1.4,2.3,2
			c2.1,0.8,3.1,1.8,3.1,3.6c0,2.1-1.6,3.6-4.5,3.6c-1.3,0-2.5-0.3-3.4-0.8L387.5,205.5z"/>
		<path class="st2" d="M395.7,208.7l6.9-17.9h1.7l-6.9,17.9H395.7z"/>
		<path class="st2" d="M406.1,191.1h2.1v14.8h7.1v1.8h-9.3V191.1z"/>
		<path class="st2" d="M420.1,192.5c0,0.7-0.5,1.3-1.4,1.3c-0.8,0-1.3-0.6-1.3-1.3c0-0.8,0.6-1.4,1.4-1.4
			C419.6,191.1,420.1,191.7,420.1,192.5z M417.7,207.7v-11.9h2.2v11.9H417.7z"/>
		<path class="st2" d="M423.3,207.7c0-0.8,0.1-2,0.1-3.1v-14.4h2.1v7.5h0c0.8-1.3,2.1-2.2,4.1-2.2c3,0,5.1,2.5,5,6.1
			c0,4.3-2.7,6.4-5.4,6.4c-1.7,0-3.1-0.7-4-2.2h-0.1l-0.1,2H423.3z M425.6,203c0,0.3,0,0.5,0.1,0.8c0.4,1.5,1.7,2.5,3.3,2.5
			c2.3,0,3.6-1.9,3.6-4.6c0-2.4-1.2-4.4-3.6-4.4c-1.5,0-2.9,1-3.3,2.7c0,0.2-0.1,0.5-0.1,0.9V203z"/>
		<path class="st2" d="M437.2,205.5c0.6,0.4,1.8,0.9,2.9,0.9c1.6,0,2.3-0.8,2.3-1.8c0-1-0.6-1.6-2.2-2.2c-2.1-0.8-3.2-1.9-3.2-3.4
			c0-1.9,1.6-3.5,4.1-3.5c1.2,0,2.3,0.3,2.9,0.7l-0.5,1.6c-0.5-0.3-1.3-0.7-2.4-0.7c-1.3,0-2,0.7-2,1.6c0,1,0.7,1.4,2.3,2
			c2.1,0.8,3.1,1.8,3.1,3.6c0,2.1-1.6,3.6-4.5,3.6c-1.3,0-2.5-0.3-3.4-0.8L437.2,205.5z"/>
	</g>
	<g>
		<circle class="st2" cx="650.6" cy="154.4" r="112.2"/>
	</g>
	<path class="st1" d="M715.2,161.9H590.8c-8.4,0-15.2-6.8-15.2-15.2v-29.6c0-8.4,6.8-15.2,15.2-15.2h124.4c8.4,0,15.2,6.8,15.2,15.2
		v29.6C730.4,155.1,723.6,161.9,715.2,161.9z"/>
	<path class="st1" d="M715.2,228.8H590.8c-8.4,0-15.2-6.8-15.2-15.2V184c0-8.4,6.8-15.2,15.2-15.2h124.4c8.4,0,15.2,6.8,15.2,15.2
		v29.6C730.4,222,723.6,228.8,715.2,228.8z"/>
	<g>
		<path class="st1" d="M612.1,87.5c-0.8,0.4-2.4,0.8-4.4,0.8c-4.7,0-8.2-3-8.2-8.4c0-5.2,3.5-8.7,8.7-8.7c2.1,0,3.4,0.4,3.9,0.7
			l-0.5,1.8c-0.8-0.4-2-0.7-3.4-0.7c-3.9,0-6.5,2.5-6.5,6.9c0,4.1,2.3,6.7,6.4,6.7c1.3,0,2.6-0.3,3.5-0.7L612.1,87.5z"/>
		<path class="st1" d="M625.3,82c0,4.4-3.1,6.3-5.9,6.3c-3.2,0-5.7-2.4-5.7-6.1c0-4,2.6-6.3,5.9-6.3C623,75.9,625.3,78.3,625.3,82z
			 M615.8,82.1c0,2.6,1.5,4.6,3.6,4.6c2.1,0,3.6-1.9,3.6-4.6c0-2-1-4.6-3.6-4.6C616.9,77.5,615.8,79.8,615.8,82.1z"/>
		<path class="st1" d="M628,79.4c0-1.2,0-2.2-0.1-3.2h1.9l0.1,2h0c0.6-1.1,2-2.2,3.9-2.2c1.7,0,4.2,1,4.2,5.1v7.1H636v-6.9
			c0-1.9-0.7-3.5-2.8-3.5c-1.4,0-2.5,1-2.9,2.2c-0.1,0.3-0.1,0.6-0.1,1v7.2H628V79.4z"/>
		<path class="st1" d="M644.3,72.7v3.4h3.1v1.7h-3.1v6.4c0,1.5,0.4,2.3,1.6,2.3c0.6,0,1-0.1,1.3-0.1l0.1,1.6
			c-0.4,0.2-1.1,0.3-1.9,0.3c-1,0-1.8-0.3-2.3-0.9c-0.6-0.6-0.8-1.7-0.8-3.1v-6.5h-1.9v-1.7h1.9v-2.9L644.3,72.7z"/>
		<path class="st1" d="M656.4,88.1l-0.2-1.5h-0.1c-0.7,0.9-1.9,1.8-3.7,1.8c-2.4,0-3.7-1.7-3.7-3.4c0-2.9,2.6-4.5,7.2-4.4v-0.2
			c0-1-0.3-2.8-2.7-2.8c-1.1,0-2.3,0.3-3.1,0.9l-0.5-1.4c1-0.6,2.4-1.1,3.9-1.1c3.7,0,4.5,2.5,4.5,4.9v4.5c0,1,0,2,0.2,2.9H656.4z
			 M656.1,82c-2.4,0-5.1,0.4-5.1,2.7c0,1.4,0.9,2.1,2,2.1c1.6,0,2.5-1,2.9-2c0.1-0.2,0.1-0.5,0.1-0.7V82z"/>
		<path class="st1" d="M664.1,72.8c0,0.7-0.5,1.3-1.4,1.3c-0.8,0-1.3-0.6-1.3-1.3c0-0.8,0.6-1.4,1.4-1.4
			C663.6,71.4,664.1,72,664.1,72.8z M661.7,88.1V76.1h2.2v11.9H661.7z"/>
		<path class="st1" d="M667.5,79.4c0-1.2,0-2.2-0.1-3.2h1.9l0.1,2h0c0.6-1.1,2-2.2,3.9-2.2c1.7,0,4.2,1,4.2,5.1v7.1h-2.2v-6.9
			c0-1.9-0.7-3.5-2.8-3.5c-1.4,0-2.5,1-2.9,2.2c-0.1,0.3-0.1,0.6-0.1,1v7.2h-2.2V79.4z"/>
		<path class="st1" d="M682.4,82.5c0,2.9,1.9,4.1,4.1,4.1c1.6,0,2.5-0.3,3.3-0.6l0.4,1.6c-0.8,0.3-2.1,0.7-4,0.7
			c-3.7,0-5.9-2.4-5.9-6c0-3.6,2.1-6.4,5.6-6.4c3.9,0,4.9,3.4,4.9,5.6c0,0.4,0,0.8-0.1,1H682.4z M688.7,80.9c0-1.4-0.6-3.5-3-3.5
			c-2.2,0-3.2,2-3.3,3.5H688.7z"/>
		<path class="st1" d="M693.5,79.8c0-1.4,0-2.6-0.1-3.7h1.9l0.1,2.3h0.1c0.5-1.6,1.9-2.6,3.3-2.6c0.2,0,0.4,0,0.6,0.1v2
			c-0.2,0-0.4-0.1-0.7-0.1c-1.5,0-2.6,1.2-2.9,2.8c0,0.3-0.1,0.6-0.1,1v6.4h-2.1V79.8z"/>
	</g>
	<g>
		<path class="st2" d="M623.9,136.6l-1.7,5.2h-2.2l5.7-16.6h2.6l5.7,16.6h-2.3l-1.8-5.2H623.9z M629.3,134.9l-1.6-4.8
			c-0.4-1.1-0.6-2.1-0.9-3h0c-0.2,1-0.5,2-0.8,3l-1.6,4.8H629.3z"/>
		<path class="st2" d="M636.1,133.8c0-1.5,0-2.8-0.1-3.9h1.9l0.1,2h0c0.9-1.5,2.3-2.3,4.2-2.3c2.9,0,5.1,2.4,5.1,6.1
			c0,4.3-2.6,6.4-5.4,6.4c-1.6,0-3-0.7-3.7-1.9h0v6.5h-2.1V133.8z M638.3,136.9c0,0.3,0,0.6,0.1,0.9c0.4,1.5,1.7,2.5,3.3,2.5
			c2.3,0,3.6-1.9,3.6-4.6c0-2.4-1.3-4.4-3.6-4.4c-1.5,0-2.9,1.1-3.3,2.7c-0.1,0.3-0.1,0.6-0.1,0.9V136.9z"/>
		<path class="st2" d="M650.2,133.8c0-1.5,0-2.8-0.1-3.9h1.9l0.1,2h0.1c0.9-1.5,2.3-2.3,4.2-2.3c2.9,0,5.1,2.4,5.1,6.1
			c0,4.3-2.6,6.4-5.4,6.4c-1.6,0-3-0.7-3.7-1.9h-0.1v6.5h-2.1V133.8z M652.3,136.9c0,0.3,0.1,0.6,0.1,0.9c0.4,1.5,1.7,2.5,3.3,2.5
			c2.3,0,3.6-1.9,3.6-4.6c0-2.4-1.3-4.4-3.6-4.4c-1.5,0-2.9,1.1-3.3,2.7c-0.1,0.3-0.1,0.6-0.1,0.9V136.9z"/>
		<path class="st2" d="M681.1,141.3c-0.8,0.4-2.4,0.8-4.4,0.8c-4.7,0-8.2-3-8.2-8.4c0-5.2,3.5-8.7,8.7-8.7c2.1,0,3.4,0.4,3.9,0.7
			l-0.5,1.8c-0.8-0.4-2-0.7-3.4-0.7c-3.9,0-6.5,2.5-6.5,6.9c0,4.1,2.3,6.7,6.4,6.7c1.3,0,2.6-0.3,3.5-0.7L681.1,141.3z"/>
	</g>
	<g>
		<path class="st2" d="M608.7,191.3c0.9-0.2,2.4-0.3,3.9-0.3c2.1,0,3.5,0.4,4.6,1.2c0.9,0.6,1.4,1.6,1.4,2.9c0,1.6-1.1,3-2.8,3.7v0
			c1.6,0.4,3.4,1.7,3.4,4.2c0,1.4-0.6,2.5-1.4,3.3c-1.2,1.1-3,1.6-5.7,1.6c-1.5,0-2.6-0.1-3.3-0.2V191.3z M610.8,198.2h1.9
			c2.3,0,3.6-1.2,3.6-2.8c0-1.9-1.5-2.7-3.7-2.7c-1,0-1.6,0.1-1.9,0.1V198.2z M610.8,206.1c0.4,0.1,1,0.1,1.8,0.1
			c2.2,0,4.3-0.8,4.3-3.2c0-2.3-1.9-3.2-4.3-3.2h-1.8V206.1z"/>
		<path class="st2" d="M624.4,192.5c0,0.7-0.5,1.3-1.4,1.3c-0.8,0-1.3-0.6-1.3-1.3c0-0.8,0.6-1.4,1.4-1.4
			C623.9,191.1,624.4,191.7,624.4,192.5z M622,207.7v-11.9h2.2v11.9H622z"/>
		<path class="st2" d="M627.8,199c0-1.2,0-2.2-0.1-3.2h1.9l0.1,2h0c0.6-1.1,2-2.2,3.9-2.2c1.7,0,4.2,1,4.2,5.1v7.1h-2.2v-6.9
			c0-1.9-0.7-3.5-2.8-3.5c-1.4,0-2.5,1-2.9,2.2c-0.1,0.3-0.1,0.6-0.1,1v7.2h-2.2V199z"/>
		<path class="st2" d="M641.2,205.5c0.6,0.4,1.8,0.9,2.9,0.9c1.6,0,2.3-0.8,2.3-1.8c0-1-0.6-1.6-2.2-2.2c-2.1-0.8-3.2-1.9-3.2-3.4
			c0-1.9,1.6-3.5,4.1-3.5c1.2,0,2.3,0.3,2.9,0.7l-0.5,1.6c-0.5-0.3-1.3-0.7-2.4-0.7c-1.3,0-2,0.7-2,1.6c0,1,0.7,1.4,2.3,2
			c2.1,0.8,3.1,1.8,3.1,3.6c0,2.1-1.6,3.6-4.5,3.6c-1.3,0-2.5-0.3-3.4-0.8L641.2,205.5z"/>
		<path class="st2" d="M649.4,208.7l6.9-17.9h1.7l-6.9,17.9H649.4z"/>
		<path class="st2" d="M659.8,191.1h2.1v14.8h7.1v1.8h-9.3V191.1z"/>
		<path class="st2" d="M673.8,192.5c0,0.7-0.5,1.3-1.4,1.3c-0.8,0-1.3-0.6-1.3-1.3c0-0.8,0.6-1.4,1.4-1.4
			C673.2,191.1,673.8,191.7,673.8,192.5z M671.3,207.7v-11.9h2.2v11.9H671.3z"/>
		<path class="st2" d="M677,207.7c0-0.8,0.1-2,0.1-3.1v-14.4h2.1v7.5h0c0.8-1.3,2.1-2.2,4.1-2.2c3,0,5.1,2.5,5,6.1
			c0,4.3-2.7,6.4-5.4,6.4c-1.7,0-3.1-0.7-4-2.2H679l-0.1,2H677z M679.3,203c0,0.3,0,0.5,0.1,0.8c0.4,1.5,1.7,2.5,3.3,2.5
			c2.3,0,3.6-1.9,3.6-4.6c0-2.4-1.2-4.4-3.6-4.4c-1.5,0-2.9,1-3.3,2.7c0,0.2-0.1,0.5-0.1,0.9V203z"/>
		<path class="st2" d="M690.9,205.5c0.6,0.4,1.8,0.9,2.9,0.9c1.6,0,2.3-0.8,2.3-1.8c0-1-0.6-1.6-2.2-2.2c-2.1-0.8-3.2-1.9-3.2-3.4
			c0-1.9,1.6-3.5,4.1-3.5c1.2,0,2.3,0.3,2.9,0.7l-0.5,1.6c-0.5-0.3-1.3-0.7-2.4-0.7c-1.3,0-2,0.7-2,1.6c0,1,0.7,1.4,2.3,2
			c2.1,0.8,3.1,1.8,3.1,3.6c0,2.1-1.6,3.6-4.5,3.6c-1.3,0-2.5-0.3-3.4-0.8L690.9,205.5z"/>
	</g>
	<path class="st3" d="M733,384H60.7c-17.7,0-32-14.3-32-32v-20.1c0-17.7,14.3-32,32-32H733c17.7,0,32,14.3,32,32v20.1
		C765,369.6,750.7,384,733,384z"/>
	<g>
		<path class="st1" d="M310.7,349.6c-0.9,0.5-2.7,0.9-5,0.9c-5.4,0-9.4-3.4-9.4-9.6c0-6,4-10,9.9-10c2.4,0,3.9,0.5,4.5,0.8l-0.6,2
			c-0.9-0.5-2.3-0.8-3.8-0.8c-4.5,0-7.4,2.8-7.4,7.8c0,4.7,2.7,7.6,7.3,7.6c1.5,0,3-0.3,4-0.8L310.7,349.6z"/>
		<path class="st1" d="M325.8,343.3c0,5-3.5,7.2-6.8,7.2c-3.7,0-6.5-2.7-6.5-7c0-4.6,3-7.2,6.8-7.2
			C323.1,336.3,325.8,339.2,325.8,343.3z M315,343.5c0,3,1.7,5.2,4.1,5.2c2.4,0,4.1-2.2,4.1-5.3c0-2.3-1.2-5.2-4.1-5.2
			S315,340.9,315,343.5z"/>
		<path class="st1" d="M328.9,340.3c0-1.4,0-2.6-0.1-3.7h2.2l0.1,2.3h0.1c0.7-1.3,2.3-2.6,4.5-2.6c1.9,0,4.8,1.1,4.8,5.8v8.2H338
			v-7.9c0-2.2-0.8-4-3.2-4c-1.6,0-2.9,1.2-3.3,2.5c-0.1,0.3-0.2,0.7-0.2,1.2v8.2h-2.5V340.3z"/>
		<path class="st1" d="M347.4,332.7v3.9h3.6v1.9h-3.6v7.4c0,1.7,0.5,2.7,1.9,2.7c0.6,0,1.1-0.1,1.4-0.2l0.1,1.9
			c-0.5,0.2-1.2,0.3-2.2,0.3c-1.2,0-2.1-0.4-2.7-1c-0.7-0.7-1-1.9-1-3.6v-7.4h-2.1v-1.9h2.1v-3.3L347.4,332.7z"/>
		<path class="st1" d="M361.3,350.3l-0.2-1.7h-0.1c-0.8,1.1-2.2,2-4.2,2c-2.8,0-4.2-1.9-4.2-3.9c0-3.3,2.9-5.1,8.2-5.1v-0.3
			c0-1.1-0.3-3.2-3.1-3.2c-1.3,0-2.6,0.4-3.6,1l-0.6-1.6c1.1-0.7,2.8-1.2,4.5-1.2c4.2,0,5.2,2.8,5.2,5.6v5.1c0,1.2,0.1,2.3,0.2,3.3
			H361.3z M361,343.3c-2.7-0.1-5.8,0.4-5.8,3.1c0,1.6,1.1,2.4,2.3,2.4c1.8,0,2.9-1.1,3.3-2.3c0.1-0.3,0.1-0.5,0.1-0.8V343.3z"/>
		<path class="st1" d="M370.1,332.8c0,0.8-0.6,1.5-1.6,1.5c-0.9,0-1.5-0.7-1.5-1.5c0-0.9,0.6-1.6,1.6-1.6
			C369.6,331.2,370.1,331.9,370.1,332.8z M367.4,350.3v-13.7h2.5v13.7H367.4z"/>
		<path class="st1" d="M374,340.3c0-1.4,0-2.6-0.1-3.7h2.2l0.1,2.3h0.1c0.7-1.3,2.3-2.6,4.5-2.6c1.9,0,4.8,1.1,4.8,5.8v8.2h-2.5
			v-7.9c0-2.2-0.8-4-3.2-4c-1.6,0-2.9,1.2-3.3,2.5c-0.1,0.3-0.2,0.7-0.2,1.2v8.2H374V340.3z"/>
		<path class="st1" d="M391,343.9c0.1,3.4,2.2,4.7,4.7,4.7c1.8,0,2.8-0.3,3.8-0.7l0.4,1.8c-0.9,0.4-2.4,0.8-4.5,0.8
			c-4.2,0-6.7-2.8-6.7-6.9c0-4.1,2.4-7.4,6.4-7.4c4.5,0,5.6,3.9,5.6,6.4c0,0.5-0.1,0.9-0.1,1.2H391z M398.3,342.1c0-1.6-0.6-4-3.4-4
			c-2.5,0-3.6,2.3-3.8,4H398.3z"/>
		<path class="st1" d="M403.8,340.9c0-1.6,0-3-0.1-4.3h2.2l0.1,2.7h0.1c0.6-1.8,2.1-3,3.8-3c0.3,0,0.5,0,0.7,0.1v2.3
			c-0.3-0.1-0.5-0.1-0.8-0.1c-1.7,0-3,1.3-3.3,3.2c-0.1,0.3-0.1,0.7-0.1,1.2v7.3h-2.5V340.9z"/>
		<path class="st1" d="M428.9,341.4h-7.4v6.9h8.2v2.1H419v-19h10.3v2.1h-7.8v6h7.4V341.4z"/>
		<path class="st1" d="M432.8,340.3c0-1.4,0-2.6-0.1-3.7h2.2l0.1,2.3h0.1c0.7-1.3,2.3-2.6,4.5-2.6c1.9,0,4.8,1.1,4.8,5.8v8.2H442
			v-7.9c0-2.2-0.8-4-3.2-4c-1.6,0-2.9,1.2-3.3,2.5c-0.1,0.3-0.2,0.7-0.2,1.2v8.2h-2.5V340.3z"/>
		<path class="st1" d="M460.3,336.6c-0.1,1-0.1,2.1-0.1,3.8v7.9c0,3.1-0.6,5-1.9,6.2c-1.3,1.2-3.2,1.6-5,1.6c-1.6,0-3.4-0.4-4.5-1.1
			l0.6-1.9c0.9,0.6,2.3,1.1,4,1.1c2.5,0,4.4-1.3,4.4-4.8v-1.5h-0.1c-0.8,1.3-2.2,2.3-4.3,2.3c-3.4,0-5.8-2.9-5.8-6.7
			c0-4.6,3-7.2,6.1-7.2c2.4,0,3.7,1.2,4.3,2.4h0.1l0.1-2.1H460.3z M457.7,342c0-0.4,0-0.8-0.1-1.1c-0.5-1.4-1.7-2.6-3.5-2.6
			c-2.4,0-4.1,2-4.1,5.2c0,2.7,1.4,4.9,4,4.9c1.5,0,2.9-1,3.4-2.5c0.1-0.4,0.2-0.9,0.2-1.3V342z"/>
		<path class="st1" d="M466.9,332.8c0,0.8-0.6,1.5-1.6,1.5c-0.9,0-1.5-0.7-1.5-1.5c0-0.9,0.6-1.6,1.6-1.6
			C466.3,331.2,466.9,331.9,466.9,332.8z M464.1,350.3v-13.7h2.5v13.7H464.1z"/>
		<path class="st1" d="M470.7,340.3c0-1.4,0-2.6-0.1-3.7h2.2l0.1,2.3h0.1c0.7-1.3,2.3-2.6,4.5-2.6c1.9,0,4.8,1.1,4.8,5.8v8.2h-2.5
			v-7.9c0-2.2-0.8-4-3.2-4c-1.6,0-2.9,1.2-3.3,2.5c-0.1,0.3-0.2,0.7-0.2,1.2v8.2h-2.5V340.3z"/>
		<path class="st1" d="M487.7,343.9c0.1,3.4,2.2,4.7,4.7,4.7c1.8,0,2.8-0.3,3.8-0.7l0.4,1.8c-0.9,0.4-2.4,0.8-4.5,0.8
			c-4.2,0-6.7-2.8-6.7-6.9c0-4.1,2.4-7.4,6.4-7.4c4.5,0,5.6,3.9,5.6,6.4c0,0.5-0.1,0.9-0.1,1.2H487.7z M495,342.1c0-1.6-0.6-4-3.4-4
			c-2.5,0-3.6,2.3-3.8,4H495z"/>
	</g>
	<path class="st3" d="M733,483H60.7c-17.7,0-32-14.3-32-32v-20.1c0-17.7,14.3-32,32-32H733c17.7,0,32,14.3,32,32v20.1
		C765,468.6,750.7,483,733,483z"/>
	<g>
		<path class="st1" d="M266.1,430.2v8h9.2v-8h2.5v19h-2.5v-8.9h-9.2v8.9h-2.5v-19H266.1z"/>
		<path class="st1" d="M294.3,442.3c0,5-3.5,7.2-6.8,7.2c-3.7,0-6.5-2.7-6.5-7c0-4.6,3-7.2,6.8-7.2
			C291.7,435.3,294.3,438.1,294.3,442.3z M283.5,442.5c0,3,1.7,5.2,4.1,5.2c2.4,0,4.1-2.2,4.1-5.3c0-2.3-1.2-5.2-4.1-5.2
			S283.5,439.9,283.5,442.5z"/>
		<path class="st1" d="M297.1,446.7c0.7,0.5,2,1,3.3,1c1.8,0,2.7-0.9,2.7-2c0-1.2-0.7-1.8-2.5-2.5c-2.5-0.9-3.6-2.2-3.6-3.9
			c0-2.2,1.8-4,4.7-4c1.4,0,2.6,0.4,3.4,0.8l-0.6,1.8c-0.5-0.3-1.5-0.8-2.8-0.8c-1.5,0-2.3,0.8-2.3,1.9c0,1.1,0.8,1.6,2.6,2.3
			c2.4,0.9,3.6,2.1,3.6,4.1c0,2.4-1.9,4.1-5.1,4.1c-1.5,0-2.9-0.4-3.8-0.9L297.1,446.7z"/>
		<path class="st1" d="M311.6,431.7v3.9h3.6v1.9h-3.6v7.4c0,1.7,0.5,2.7,1.9,2.7c0.6,0,1.1-0.1,1.4-0.2l0.1,1.9
			c-0.5,0.2-1.2,0.3-2.2,0.3c-1.2,0-2.1-0.4-2.7-1c-0.7-0.7-1-1.9-1-3.6v-7.4h-2.1v-1.9h2.1v-3.3L311.6,431.7z"/>
		<path class="st1" d="M340.3,439.6c0,6.5-4,10-8.8,10c-5,0-8.5-3.9-8.5-9.6c0-6,3.8-10,8.8-10C336.9,429.9,340.3,433.9,340.3,439.6
			z M325.5,439.9c0,4.1,2.2,7.7,6.1,7.7c3.9,0,6.1-3.6,6.1-7.9c0-3.8-2-7.7-6.1-7.7C327.6,431.9,325.5,435.7,325.5,439.9z"/>
		<path class="st1" d="M343.4,440.1c0-1.7-0.1-3.2-0.1-4.5h2.2l0.1,2.3h0.1c1-1.7,2.6-2.7,4.9-2.7c3.3,0,5.8,2.8,5.8,6.9
			c0,4.9-3,7.3-6.2,7.3c-1.8,0-3.4-0.8-4.2-2.1h-0.1v7.4h-2.5V440.1z M345.8,443.7c0,0.4,0.1,0.7,0.1,1c0.5,1.7,1.9,2.9,3.7,2.9
			c2.6,0,4.1-2.1,4.1-5.3c0-2.7-1.4-5.1-4.1-5.1c-1.7,0-3.3,1.2-3.8,3.1c-0.1,0.3-0.2,0.7-0.2,1V443.7z"/>
		<path class="st1" d="M360.8,442.9c0.1,3.4,2.2,4.7,4.7,4.7c1.8,0,2.8-0.3,3.8-0.7l0.4,1.8c-0.9,0.4-2.4,0.8-4.5,0.8
			c-4.2,0-6.7-2.8-6.7-6.9c0-4.1,2.4-7.4,6.4-7.4c4.5,0,5.6,3.9,5.6,6.4c0,0.5-0.1,0.9-0.1,1.2H360.8z M368.1,441.1
			c0-1.6-0.6-4-3.4-4c-2.5,0-3.6,2.3-3.8,4H368.1z"/>
		<path class="st1" d="M373.6,439.9c0-1.6,0-3-0.1-4.3h2.2l0.1,2.7h0.1c0.6-1.8,2.1-3,3.8-3c0.3,0,0.5,0,0.7,0.1v2.3
			c-0.3-0.1-0.5-0.1-0.8-0.1c-1.7,0-3,1.3-3.3,3.2c-0.1,0.3-0.1,0.7-0.1,1.2v7.3h-2.5V439.9z"/>
		<path class="st1" d="M390.2,449.3l-0.2-1.7h-0.1c-0.8,1.1-2.2,2-4.2,2c-2.8,0-4.2-1.9-4.2-3.9c0-3.3,2.9-5.1,8.2-5.1v-0.3
			c0-1.1-0.3-3.2-3.1-3.2c-1.3,0-2.6,0.4-3.6,1l-0.6-1.6c1.1-0.7,2.8-1.2,4.5-1.2c4.2,0,5.2,2.8,5.2,5.6v5.1c0,1.2,0.1,2.3,0.2,3.3
			H390.2z M389.8,442.3c-2.7-0.1-5.8,0.4-5.8,3.1c0,1.6,1.1,2.4,2.3,2.4c1.8,0,2.9-1.1,3.3-2.3c0.1-0.3,0.1-0.5,0.1-0.8V442.3z"/>
		<path class="st1" d="M399.1,431.7v3.9h3.6v1.9h-3.6v7.4c0,1.7,0.5,2.7,1.9,2.7c0.6,0,1.1-0.1,1.4-0.2l0.1,1.9
			c-0.5,0.2-1.2,0.3-2.2,0.3c-1.2,0-2.1-0.4-2.7-1c-0.7-0.7-1-1.9-1-3.6v-7.4h-2.1v-1.9h2.1v-3.3L399.1,431.7z"/>
		<path class="st1" d="M408.2,431.8c0,0.8-0.6,1.5-1.6,1.5c-0.9,0-1.5-0.7-1.5-1.5c0-0.9,0.6-1.6,1.6-1.6
			C407.6,430.2,408.2,430.9,408.2,431.8z M405.5,449.3v-13.7h2.5v13.7H405.5z"/>
		<path class="st1" d="M412.1,439.3c0-1.4,0-2.6-0.1-3.7h2.2l0.1,2.3h0.1c0.7-1.3,2.3-2.6,4.5-2.6c1.9,0,4.8,1.1,4.8,5.8v8.2h-2.5
			v-7.9c0-2.2-0.8-4-3.2-4c-1.6,0-2.9,1.2-3.3,2.5c-0.1,0.3-0.2,0.7-0.2,1.2v8.2h-2.5V439.3z"/>
		<path class="st1" d="M439.5,435.6c-0.1,1-0.1,2.1-0.1,3.8v7.9c0,3.1-0.6,5-1.9,6.2c-1.3,1.2-3.2,1.6-5,1.6c-1.6,0-3.4-0.4-4.5-1.1
			l0.6-1.9c0.9,0.6,2.3,1.1,4,1.1c2.5,0,4.4-1.3,4.4-4.8v-1.5h-0.1c-0.8,1.3-2.2,2.3-4.3,2.3c-3.4,0-5.8-2.9-5.8-6.7
			c0-4.6,3-7.2,6.1-7.2c2.4,0,3.7,1.2,4.3,2.4h0.1l0.1-2.1H439.5z M436.9,441c0-0.4,0-0.8-0.1-1.1c-0.5-1.4-1.7-2.6-3.5-2.6
			c-2.4,0-4.1,2-4.1,5.2c0,2.7,1.4,4.9,4,4.9c1.5,0,2.9-1,3.4-2.5c0.1-0.4,0.2-0.9,0.2-1.3V441z"/>
		<path class="st1" d="M449.2,446.3c1.1,0.7,2.7,1.2,4.4,1.2c2.5,0,4-1.3,4-3.2c0-1.8-1-2.8-3.6-3.8c-3.1-1.1-5-2.7-5-5.4
			c0-3,2.5-5.2,6.1-5.2c1.9,0,3.4,0.5,4.2,0.9l-0.7,2c-0.6-0.3-1.9-0.9-3.6-0.9c-2.6,0-3.6,1.6-3.6,2.8c0,1.8,1.2,2.7,3.8,3.7
			c3.2,1.2,4.9,2.8,4.9,5.6c0,2.9-2.2,5.5-6.7,5.5c-1.8,0-3.8-0.5-4.9-1.2L449.2,446.3z"/>
		<path class="st1" d="M464,435.6l3,8.1c0.3,0.9,0.6,2,0.9,2.8h0.1c0.3-0.8,0.5-1.9,0.9-2.8l2.7-8h2.6l-3.7,9.7
			c-1.8,4.7-3,7.1-4.7,8.5c-1.2,1.1-2.4,1.5-3,1.6l-0.6-2.1c0.6-0.2,1.4-0.6,2.2-1.2c0.7-0.5,1.5-1.5,2.1-2.8
			c0.1-0.3,0.2-0.5,0.2-0.6c0-0.1-0.1-0.3-0.2-0.6l-5-12.6H464z"/>
		<path class="st1" d="M475.9,446.7c0.7,0.5,2,1,3.3,1c1.8,0,2.7-0.9,2.7-2c0-1.2-0.7-1.8-2.5-2.5c-2.5-0.9-3.6-2.2-3.6-3.9
			c0-2.2,1.8-4,4.7-4c1.4,0,2.6,0.4,3.4,0.8l-0.6,1.8c-0.5-0.3-1.5-0.8-2.8-0.8c-1.5,0-2.3,0.8-2.3,1.9c0,1.1,0.8,1.6,2.6,2.3
			c2.4,0.9,3.6,2.1,3.6,4.1c0,2.4-1.9,4.1-5.1,4.1c-1.5,0-2.9-0.4-3.8-0.9L475.9,446.7z"/>
		<path class="st1" d="M490.4,431.7v3.9h3.6v1.9h-3.6v7.4c0,1.7,0.5,2.7,1.9,2.7c0.6,0,1.1-0.1,1.4-0.2l0.1,1.9
			c-0.5,0.2-1.2,0.3-2.2,0.3c-1.2,0-2.1-0.4-2.7-1c-0.7-0.7-1-1.9-1-3.6v-7.4h-2.1v-1.9h2.1v-3.3L490.4,431.7z"/>
		<path class="st1" d="M498,442.9c0.1,3.4,2.2,4.7,4.7,4.7c1.8,0,2.8-0.3,3.8-0.7l0.4,1.8c-0.9,0.4-2.4,0.8-4.5,0.8
			c-4.2,0-6.7-2.8-6.7-6.9c0-4.1,2.4-7.4,6.4-7.4c4.5,0,5.6,3.9,5.6,6.4c0,0.5-0.1,0.9-0.1,1.2H498z M505.2,441.1c0-1.6-0.6-4-3.4-4
			c-2.5,0-3.6,2.3-3.8,4H505.2z"/>
		<path class="st1" d="M510.7,439.3c0-1.4,0-2.6-0.1-3.7h2.2l0.1,2.2h0.1c0.8-1.3,2-2.5,4.3-2.5c1.9,0,3.3,1.1,3.9,2.7h0.1
			c0.4-0.8,1-1.4,1.5-1.8c0.8-0.6,1.7-1,3-1c1.8,0,4.5,1.2,4.5,5.9v8h-2.4v-7.7c0-2.6-1-4.2-3-4.2c-1.4,0-2.5,1-2.9,2.3
			c-0.1,0.3-0.2,0.8-0.2,1.2v8.4h-2.4v-8.2c0-2.2-1-3.8-2.8-3.8c-1.6,0-2.7,1.2-3.1,2.5c-0.1,0.4-0.2,0.8-0.2,1.2v8.2h-2.4V439.3z"
			/>
	</g>
	<path class="st3" d="M733,581.9H60.7c-17.7,0-32-14.3-32-32v-20.1c0-17.7,14.3-32,32-32H733c17.7,0,32,14.3,32,32v20.1
		C765,567.6,750.7,581.9,733,581.9z"/>
	<g>
		<path class="st1" d="M321.6,529.2v19h-2.5v-19H321.6z"/>
		<path class="st1" d="M326,538.3c0-1.4,0-2.6-0.1-3.7h2.2l0.1,2.3h0.1c0.7-1.3,2.3-2.6,4.5-2.6c1.9,0,4.8,1.1,4.8,5.8v8.2h-2.5
			v-7.9c0-2.2-0.8-4-3.2-4c-1.6,0-2.9,1.2-3.3,2.5c-0.1,0.3-0.2,0.7-0.2,1.2v8.2H326V538.3z"/>
		<path class="st1" d="M342,548.2v-11.8H340v-1.9h1.9v-0.6c0-1.9,0.4-3.7,1.6-4.8c0.9-0.9,2.2-1.3,3.3-1.3c0.9,0,1.6,0.2,2.1,0.4
			l-0.3,1.9c-0.4-0.2-0.9-0.3-1.6-0.3c-2.1,0-2.7,1.9-2.7,3.9v0.7h3.3v1.9h-3.3v11.8H342z"/>
		<path class="st1" d="M349.9,538.8c0-1.6,0-3-0.1-4.3h2.2l0.1,2.7h0.1c0.6-1.8,2.1-3,3.8-3c0.3,0,0.5,0,0.7,0.1v2.3
			c-0.3-0.1-0.5-0.1-0.8-0.1c-1.7,0-3,1.3-3.3,3.2c-0.1,0.3-0.1,0.7-0.1,1.2v7.3h-2.5V538.8z"/>
		<path class="st1" d="M366.6,548.2l-0.2-1.7h-0.1c-0.8,1.1-2.2,2-4.2,2c-2.8,0-4.2-1.9-4.2-3.9c0-3.3,2.9-5.1,8.2-5.1v-0.3
			c0-1.1-0.3-3.2-3.1-3.2c-1.3,0-2.6,0.4-3.6,1l-0.6-1.6c1.1-0.7,2.8-1.2,4.5-1.2c4.2,0,5.2,2.8,5.2,5.6v5.1c0,1.2,0.1,2.3,0.2,3.3
			H366.6z M366.2,541.3c-2.7-0.1-5.8,0.4-5.8,3.1c0,1.6,1.1,2.4,2.3,2.4c1.8,0,2.9-1.1,3.3-2.3c0.1-0.3,0.1-0.5,0.1-0.8V541.3z"/>
		<path class="st1" d="M372.3,545.7c0.7,0.5,2,1,3.3,1c1.8,0,2.7-0.9,2.7-2c0-1.2-0.7-1.8-2.5-2.5c-2.5-0.9-3.6-2.2-3.6-3.9
			c0-2.2,1.8-4,4.7-4c1.4,0,2.6,0.4,3.4,0.8l-0.6,1.8c-0.5-0.3-1.5-0.8-2.8-0.8c-1.5,0-2.3,0.8-2.3,1.9c0,1.1,0.8,1.6,2.6,2.3
			c2.4,0.9,3.6,2.1,3.6,4.1c0,2.4-1.9,4.1-5.1,4.1c-1.5,0-2.9-0.4-3.8-0.9L372.3,545.7z"/>
		<path class="st1" d="M386.8,530.7v3.9h3.6v1.9h-3.6v7.4c0,1.7,0.5,2.7,1.9,2.7c0.6,0,1.1-0.1,1.4-0.2l0.1,1.9
			c-0.5,0.2-1.2,0.3-2.2,0.3c-1.2,0-2.1-0.4-2.7-1c-0.7-0.7-1-1.9-1-3.6v-7.4h-2.1v-1.9h2.1v-3.3L386.8,530.7z"/>
		<path class="st1" d="M393.1,538.8c0-1.6,0-3-0.1-4.3h2.2l0.1,2.7h0.1c0.6-1.8,2.1-3,3.8-3c0.3,0,0.5,0,0.7,0.1v2.3
			c-0.3-0.1-0.5-0.1-0.8-0.1c-1.7,0-3,1.3-3.3,3.2c-0.1,0.3-0.1,0.7-0.1,1.2v7.3h-2.5V538.8z"/>
		<path class="st1" d="M413.8,544.5c0,1.4,0,2.7,0.1,3.7h-2.2l-0.1-2.2h-0.1c-0.6,1.1-2.1,2.5-4.5,2.5c-2.1,0-4.7-1.2-4.7-6v-8h2.5
			v7.6c0,2.6,0.8,4.3,3,4.3c1.7,0,2.8-1.2,3.3-2.3c0.1-0.4,0.2-0.8,0.2-1.3v-8.4h2.5V544.5z"/>
		<path class="st1" d="M427.6,547.7c-0.6,0.3-2.1,0.8-3.9,0.8c-4.1,0-6.8-2.8-6.8-7c0-4.2,2.9-7.2,7.3-7.2c1.5,0,2.8,0.4,3.4,0.7
			l-0.6,1.9c-0.6-0.3-1.5-0.6-2.9-0.6c-3.1,0-4.8,2.3-4.8,5.2c0,3.2,2,5.1,4.7,5.1c1.4,0,2.3-0.4,3-0.7L427.6,547.7z"/>
		<path class="st1" d="M433.9,530.7v3.9h3.6v1.9h-3.6v7.4c0,1.7,0.5,2.7,1.9,2.7c0.6,0,1.1-0.1,1.4-0.2l0.1,1.9
			c-0.5,0.2-1.2,0.3-2.2,0.3c-1.2,0-2.1-0.4-2.7-1c-0.7-0.7-1-1.9-1-3.6v-7.4h-2.1v-1.9h2.1v-3.3L433.9,530.7z"/>
		<path class="st1" d="M451.6,544.5c0,1.4,0,2.7,0.1,3.7h-2.2l-0.1-2.2h-0.1c-0.6,1.1-2.1,2.5-4.5,2.5c-2.1,0-4.7-1.2-4.7-6v-8h2.5
			v7.6c0,2.6,0.8,4.3,3,4.3c1.7,0,2.8-1.2,3.3-2.3c0.1-0.4,0.2-0.8,0.2-1.3v-8.4h2.5V544.5z"/>
		<path class="st1" d="M455.8,538.8c0-1.6,0-3-0.1-4.3h2.2l0.1,2.7h0.1c0.6-1.8,2.1-3,3.8-3c0.3,0,0.5,0,0.7,0.1v2.3
			c-0.3-0.1-0.5-0.1-0.8-0.1c-1.7,0-3,1.3-3.3,3.2c-0.1,0.3-0.1,0.7-0.1,1.2v7.3h-2.5V538.8z"/>
		<path class="st1" d="M466.1,541.9c0.1,3.4,2.2,4.7,4.7,4.7c1.8,0,2.8-0.3,3.8-0.7l0.4,1.8c-0.9,0.4-2.4,0.8-4.5,0.8
			c-4.2,0-6.7-2.8-6.7-6.9c0-4.1,2.4-7.4,6.4-7.4c4.5,0,5.6,3.9,5.6,6.4c0,0.5-0.1,0.9-0.1,1.2H466.1z M473.4,540.1
			c0-1.6-0.6-4-3.4-4c-2.5,0-3.6,2.3-3.8,4H473.4z"/>
	</g>
</g>
</svg>
