<?xml version="1.0" encoding="utf-8"?>
<!-- Generator: Adobe Illustrator 25.0.1, SVG Export Plug-In . SVG Version: 6.00 Build 0)  -->
<svg version="1.1" id="Layer_1" xmlns="http://www.w3.org/2000/svg" xmlns:xlink="http://www.w3.org/1999/xlink" x="0px" y="0px"
	 viewBox="0 0 28.3 28.3" style="enable-background:new 0 0 28.3 28.3;" xml:space="preserve">
<style type="text/css">
	.st0{fill:#026A7B;stroke:#026A7B;stroke-width:0.25;stroke-linecap:round;stroke-linejoin:round;stroke-miterlimit:10;}
</style>
<g>
	<path class="st0" d="M0.6,7.1v13.7l4.5,1V6.3L0.6,7.1z M4.7,13.9c0,0.2-0.2,0.4-0.4,0.4H3c-0.2,0-0.4-0.2-0.4-0.4v0
		c0-0.2,0.2-0.4,0.4-0.4h1.3C4.5,13.5,4.7,13.6,4.7,13.9L4.7,13.9z"/>
	<path class="st0" d="M6,6.3v15.5l4.2,0.9V5.6L6,6.3z M8.2,13.9c0,0.2-0.2,0.4-0.4,0.4H6.6c-0.2,0-0.4-0.2-0.4-0.4v0
		c0-0.2,0.2-0.4,0.4-0.4h1.3C8.1,13.5,8.2,13.6,8.2,13.9L8.2,13.9z"/>
	<path class="st0" d="M11.5,5.6l-0.4,17.2l16.6-3.4V8.7L11.5,5.6z M13.6,20.5c-0.4,0.1-0.7,0.2-1.1,0.3V7c0.4,0.1,0.7,0.2,1.1,0.3
		V20.5z M16.1,20.1c-0.4,0.1-0.7,0.2-1.1,0.3v-13c0.4,0.1,0.7,0.2,1.1,0.3V20.1z M18.1,19.7c-0.3,0.1-0.6,0.2-0.9,0.3V7.7
		c0.3,0.1,0.6,0.2,0.9,0.3V19.7z M20.1,19.5c-0.3,0.1-0.6,0.2-0.9,0.3V8c0.3,0.1,0.6,0.2,0.9,0.3V19.5z M21.8,19.2
		c-0.2,0.1-0.5,0.2-0.7,0.3V8.3c0.2,0.1,0.5,0.2,0.7,0.3V19.2z M23.4,19c-0.2,0.1-0.4,0.2-0.6,0.2V8.6c0.2,0.1,0.4,0.2,0.6,0.2V19z
		 M24.8,18.8c-0.2,0.1-0.4,0.2-0.6,0.2V8.8c0.2,0.1,0.4,0.2,0.6,0.2V18.8z M26,18.7c-0.2,0.1-0.3,0.2-0.5,0.2V9
		C25.6,9,25.8,9.1,26,9.2V18.7z M27.2,18.6c-0.2,0.1-0.3,0.1-0.4,0.2V9.2c0.2,0.1,0.3,0.1,0.4,0.2V18.6z"/>
</g>
</svg>
