<?xml version="1.0" encoding="utf-8"?>
<!-- Generator: Adobe Illustrator 25.0.1, SVG Export Plug-In . SVG Version: 6.00 Build 0)  -->
<svg version="1.1" id="Layer_1" xmlns="http://www.w3.org/2000/svg" xmlns:xlink="http://www.w3.org/1999/xlink" x="0px" y="0px"
	 viewBox="0 0 28.3 28.3" style="enable-background:new 0 0 28.3 28.3;" xml:space="preserve">
<style type="text/css">
	.st0{fill:#026A7B;}
</style>
<g>
	<rect x="3.3" y="11" class="st0" width="2.6" height="2.6"/>
	<rect x="6.6" y="11" class="st0" width="2.6" height="2.6"/>
	<rect x="9.8" y="11" class="st0" width="2.6" height="2.6"/>
	<rect x="13.1" y="11" class="st0" width="2.6" height="2.6"/>
	<rect x="16.3" y="11" class="st0" width="2.6" height="2.6"/>
	<rect x="13.1" y="7.9" class="st0" width="2.6" height="2.6"/>
	<rect x="9.8" y="7.9" class="st0" width="2.6" height="2.6"/>
	<rect x="6.6" y="7.9" class="st0" width="2.6" height="2.6"/>
	<rect x="13.1" y="4.7" class="st0" width="2.6" height="2.6"/>
	<path class="st0" d="M1.3,14.1h18.4c0,0,1.2-0.1,1.7-0.4c0.2-0.6-0.7-1.6-0.5-3.1s0.9-1.9,0.9-1.9s1.3,0.6,1.7,1.4l0.7,1.8
		c0,0,0.7-0.1,1.8,0c1.1,0.1,1.8,0.6,1.8,0.6s-0.3,1.5-1.5,2.1c-0.8,0.5-2.4,0-2.8,0.5c-0.5,0.5-2.6,5-5.4,6.6
		c-2.8,1.6-10.3,3.9-14.4-0.2C-0.2,17.3,1.3,14.1,1.3,14.1z"/>
</g>
</svg>
