<?xml version="1.0" encoding="utf-8"?>
<!-- Generator: Adobe Illustrator 25.0.1, SVG Export Plug-In . SVG Version: 6.00 Build 0)  -->
<svg version="1.1" id="Layer_1" xmlns="http://www.w3.org/2000/svg" xmlns:xlink="http://www.w3.org/1999/xlink" x="0px" y="0px"
	 viewBox="0 0 792 612" style="enable-background:new 0 0 792 612;" xml:space="preserve">
<style type="text/css">
	.st0{fill:#026A7B;}
	.st1{fill:#FFFFFF;}
	.st2{fill:#013333;}
	.st3{fill:#50A1AA;}
	.st4{fill:#3A7D84;}
	.st5{fill:#1D717A;}
	.st6{fill:none;stroke:#939598;stroke-width:3;stroke-miterlimit:10;}
	.st7{fill:none;stroke:#939598;stroke-width:3;stroke-linecap:round;stroke-miterlimit:10;}
</style>
<path class="st0" d="M187.5,356.7H52.2c-17.7,0-32-14.3-32-32V142.3c0-17.7,14.3-32,32-32h135.3c17.7,0,32,14.3,32,32v182.4
	C219.5,342.3,205.2,356.7,187.5,356.7z"/>
<path class="st0" d="M514.9,553.9h-235c-17.7,0-32-14.3-32-32V142.3c0-17.7,14.3-32,32-32h235c17.7,0,32,14.3,32,32v379.6
	C546.9,539.6,532.6,553.9,514.9,553.9z"/>
<path class="st0" d="M742.6,356.7H607.3c-17.7,0-32-14.3-32-32V142.3c0-17.7,14.3-32,32-32h135.3c17.7,0,32,14.3,32,32v182.4
	C774.6,342.3,760.3,356.7,742.6,356.7z"/>
<path class="st1" d="M190.7,231H49c-6.4,0-11.6-5.2-11.6-11.6v-14.7c0-6.4,5.2-11.6,11.6-11.6h141.8c6.4,0,11.6,5.2,11.6,11.6v14.7
	C202.3,225.8,197.1,231,190.7,231z"/>
<path class="st1" d="M377.1,515.6h-98.6c-6.5,0-11.7-5.2-11.7-11.7V254.5c0-6.5,5.2-11.7,11.7-11.7h98.6c6.5,0,11.7,5.2,11.7,11.7
	v249.4C388.8,510.4,383.6,515.6,377.1,515.6z"/>
<path class="st1" d="M519.7,515.6H418.4c-5.7,0-10.4-4.6-10.4-10.4V312c0-5.7,4.6-10.4,10.4-10.4h101.3c5.7,0,10.4,4.6,10.4,10.4
	v193.3C530,511,525.4,515.6,519.7,515.6z"/>
<path class="st1" d="M525.2,289.9H412.9c-2.7,0-4.9-2.2-4.9-4.9v-37.4c0-2.7,2.2-4.9,4.9-4.9h112.3c2.7,0,4.9,2.2,4.9,4.9V285
	C530,287.7,527.8,289.9,525.2,289.9z"/>
<path class="st1" d="M753.6,308.8h-159c-5.3,0-9.6-4.3-9.6-9.6V193.4c0-5.3,4.3-9.6,9.6-9.6h159c5.3,0,9.6,4.3,9.6,9.6v105.8
	C763.1,304.5,758.8,308.8,753.6,308.8z"/>
<path class="st1" d="M519.5,231H275.3c-6.4,0-11.6-5.2-11.6-11.6v-14.7c0-6.4,5.2-11.6,11.6-11.6h244.3c6.4,0,11.6,5.2,11.6,11.6
	v14.7C531.1,225.8,525.9,231,519.5,231z"/>
<path class="st1" d="M190.7,279.4H49c-6.4,0-11.6-5.2-11.6-11.6v-14.7c0-6.4,5.2-11.6,11.6-11.6h141.8c6.4,0,11.6,5.2,11.6,11.6
	v14.7C202.3,274.2,197.1,279.4,190.7,279.4z"/>
<path class="st1" d="M190.7,327.7H49c-6.4,0-11.6-5.2-11.6-11.6v-14.7c0-6.4,5.2-11.6,11.6-11.6h141.8c6.4,0,11.6,5.2,11.6,11.6
	v14.7C202.3,322.5,197.1,327.7,190.7,327.7z"/>
<g>
	<path class="st2" d="M45.5,215.6c0-3.3,2.2-5.4,4.6-5.4c1.2,0,2.2,0.5,3.1,1.3h0l-0.1-1.9v-3.9h1.7v14.9h-1.4l-0.1-1.3h-0.1
		c-0.8,0.9-2.1,1.6-3.3,1.6C47.3,221,45.5,219,45.5,215.6z M53.2,218v-5.1c-0.9-0.9-1.8-1.2-2.7-1.2c-1.8,0-3.2,1.6-3.2,3.9
		c0,2.4,1.1,3.9,3,3.9C51.3,219.5,52.3,219,53.2,218z"/>
	<path class="st2" d="M58.1,215.6c0-3.4,2.4-5.4,5-5.4s5,2,5,5.4c0,3.4-2.4,5.3-5,5.3S58.1,219,58.1,215.6z M66.4,215.6
		c0-2.4-1.3-3.9-3.3-3.9s-3.3,1.6-3.3,3.9c0,2.3,1.3,3.9,3.3,3.9S66.4,218,66.4,215.6z"/>
	<path class="st2" d="M71.1,215.6c0-3.4,2.6-5.4,5.7-5.4c1.7,0,2.9,0.7,3.7,1.5l-0.9,1.1c-0.8-0.7-1.7-1.2-2.8-1.2
		c-2.4,0-4,1.6-4,3.9c0,2.3,1.6,3.9,3.9,3.9c1.3,0,2.3-0.6,3.1-1.3l0.8,1.1c-1.1,1-2.5,1.6-4.1,1.6C73.5,221,71.1,219,71.1,215.6z"
		/>
	<path class="st2" d="M84.3,205.8H86v10.1h0.1l5.5-5.4h2l-7.6,7.4v2.8h-1.7V205.8z M88.2,215.3l1-1.1l4.9,6.6h-1.9L88.2,215.3z"/>
	<path class="st2" d="M96.1,215.6c0-3.3,2.5-5.3,5.2-5.3c2.9,0,4.7,1.9,4.7,4.8c0,0.4,0,0.8-0.1,1h-8.6v-1.3h7.6l-0.4,0.5
		c0-2.4-1.2-3.6-3.1-3.6c-1.9,0-3.5,1.4-3.5,4c0,2.6,1.7,4,4,4c1.2,0,2.2-0.4,3.1-1l0.6,1.1c-1,0.7-2.3,1.2-3.9,1.2
		C98.5,221,96.1,219,96.1,215.6z"/>
	<path class="st2" d="M110.3,210.5h1.4l0.2,2.4h0c1.1-1.7,2.7-2.7,4.6-2.7c0.8,0,1.4,0.1,2,0.4l-0.4,1.5c-0.7-0.2-1.1-0.3-1.9-0.3
		c-1.5,0-3,0.8-4.2,2.9v6h-1.7V210.5z"/>
	<path class="st2" d="M136,219.6L136,219.6l-0.2,1.1h-1.4v-14.9h1.7v4.1l-0.1,2h0.1c0.9-0.9,2.2-1.6,3.4-1.6c2.8,0,4.2,2,4.2,5.2
		c0,3.5-2.2,5.5-4.6,5.5C138.2,221,137,220.4,136,219.6z M142,215.5c0-2.2-0.8-3.7-2.9-3.7c-0.9,0-2,0.5-3,1.5v5.1
		c0.9,0.9,2,1.2,2.8,1.2C140.7,219.5,142,218,142,215.5z"/>
	<path class="st2" d="M146.7,216.8v-6.3h1.7v6.1c0,1.9,0.7,2.8,2.4,2.8c1.2,0,2-0.5,3.2-1.9v-7.1h1.7v10.2h-1.4l-0.1-1.8H154
		c-1,1.2-2.2,2-3.8,2C147.8,221,146.7,219.5,146.7,216.8z"/>
	<path class="st2" d="M164.3,211.9h-4.7v-1.4h6.5v10.2h-1.7V211.9z M163.6,207c0-0.8,0.6-1.3,1.4-1.3s1.4,0.5,1.4,1.3
		c0,0.8-0.6,1.3-1.4,1.3S163.6,207.8,163.6,207z"/>
	<path class="st2" d="M175.4,217.3v-10.1h-3.6v-1.4h5.4v11.7c0,1.5,0.8,2.1,2,2.1c0.6,0,1.2-0.1,1.9-0.5l0.4,1.3
		c-0.9,0.4-1.6,0.6-2.7,0.6C176.6,221,175.4,219.7,175.4,217.3z"/>
	<path class="st2" d="M184.1,215.6c0-3.3,2.2-5.4,4.6-5.4c1.2,0,2.2,0.5,3.1,1.3h0l-0.1-1.9v-3.9h1.7v14.9h-1.4l-0.1-1.3h-0.1
		c-0.8,0.9-2.1,1.6-3.3,1.6C185.9,221,184.1,219,184.1,215.6z M191.8,218v-5.1c-0.9-0.9-1.8-1.2-2.7-1.2c-1.8,0-3.2,1.6-3.2,3.9
		c0,2.4,1.1,3.9,3,3.9C189.9,219.5,190.9,219,191.8,218z"/>
</g>
<g>
	<path class="st2" d="M51.8,263.5c0-3.3,2.2-5.4,4.6-5.4c1.2,0,2.2,0.5,3.1,1.3h0l-0.1-1.9v-3.9h1.7v14.9h-1.4l-0.1-1.3h-0.1
		c-0.8,0.9-2.1,1.6-3.3,1.6C53.6,268.8,51.8,266.9,51.8,263.5z M59.5,265.8v-5.1c-0.9-0.9-1.8-1.2-2.7-1.2c-1.8,0-3.2,1.6-3.2,3.9
		c0,2.4,1.1,3.9,3,3.9C57.6,267.4,58.6,266.9,59.5,265.8z"/>
	<path class="st2" d="M64.4,263.5c0-3.4,2.4-5.4,5-5.4s5,2,5,5.4c0,3.4-2.4,5.3-5,5.3S64.4,266.9,64.4,263.5z M72.7,263.5
		c0-2.4-1.3-3.9-3.3-3.9s-3.3,1.6-3.3,3.9c0,2.3,1.3,3.9,3.3,3.9S72.7,265.8,72.7,263.5z"/>
	<path class="st2" d="M77.4,263.5c0-3.4,2.6-5.4,5.7-5.4c1.7,0,2.9,0.7,3.7,1.5l-0.9,1.1c-0.8-0.7-1.7-1.2-2.8-1.2
		c-2.4,0-4,1.6-4,3.9c0,2.3,1.6,3.9,3.9,3.9c1.3,0,2.3-0.6,3.1-1.3l0.8,1.1c-1.1,1-2.5,1.6-4.1,1.6
		C79.8,268.8,77.4,266.9,77.4,263.5z"/>
	<path class="st2" d="M90.6,253.6h1.7v10.1h0.1l5.5-5.4h2l-7.6,7.4v2.8h-1.7V253.6z M94.5,263.2l1-1.1l4.9,6.6h-1.9L94.5,263.2z"/>
	<path class="st2" d="M102.4,263.5c0-3.3,2.5-5.3,5.2-5.3c2.9,0,4.7,1.9,4.7,4.8c0,0.4,0,0.8-0.1,1h-8.6v-1.3h7.6l-0.4,0.5
		c0-2.4-1.2-3.6-3.1-3.6c-1.9,0-3.5,1.4-3.5,4c0,2.6,1.7,4,4,4c1.2,0,2.2-0.4,3.1-1l0.6,1.1c-1,0.7-2.3,1.2-3.9,1.2
		C104.8,268.8,102.4,266.9,102.4,263.5z"/>
	<path class="st2" d="M116.6,258.4h1.4l0.2,2.4h0c1.1-1.7,2.7-2.7,4.6-2.7c0.8,0,1.4,0.1,2,0.4l-0.4,1.5c-0.7-0.2-1.1-0.3-1.9-0.3
		c-1.5,0-3,0.8-4.2,2.9v6h-1.7V258.4z"/>
	<path class="st2" d="M140.7,258.4h1.4l0.1,1.3h0.1c0.9-0.9,2.3-1.6,3.5-1.6c2.8,0,4.2,2,4.2,5.2c0,3.5-2.2,5.5-4.6,5.5
		c-0.9,0-2.1-0.5-3-1.3h0l0.1,1.9v3.4h-1.7V258.4z M148.3,263.3c0-2.2-0.8-3.7-2.9-3.7c-0.9,0-2,0.5-3,1.5v5.1
		c0.9,0.9,2,1.2,2.7,1.2C147,267.4,148.3,265.8,148.3,263.3z"/>
	<path class="st2" d="M153,264.7v-6.3h1.7v6.1c0,1.9,0.7,2.8,2.4,2.8c1.2,0,2-0.5,3.2-1.9v-7.1h1.7v10.2h-1.4l-0.1-1.8h-0.1
		c-1,1.2-2.2,2-3.8,2C154.1,268.8,153,267.4,153,264.7z"/>
	<path class="st2" d="M169.1,265.2V255h-3.6v-1.4h5.4v11.7c0,1.5,0.8,2.1,2,2.1c0.6,0,1.2-0.1,1.9-0.5l0.4,1.3
		c-0.9,0.4-1.6,0.6-2.7,0.6C170.3,268.8,169.1,267.6,169.1,265.2z"/>
	<path class="st2" d="M181.7,265.2V255h-3.6v-1.4h5.4v11.7c0,1.5,0.8,2.1,2,2.1c0.6,0,1.2-0.1,1.9-0.5l0.4,1.3
		c-0.9,0.4-1.6,0.6-2.7,0.6C182.9,268.8,181.7,267.6,181.7,265.2z"/>
</g>
<g>
	<path class="st2" d="M58.1,310.2c0-3.3,2.2-5.4,4.6-5.4c1.2,0,2.2,0.5,3.1,1.3h0l-0.1-1.9v-3.9h1.7v14.9h-1.4l-0.1-1.3h-0.1
		c-0.8,0.9-2.1,1.6-3.3,1.6C59.9,315.5,58.1,313.6,58.1,310.2z M65.8,312.6v-5.1c-0.9-0.9-1.8-1.2-2.7-1.2c-1.8,0-3.2,1.6-3.2,3.9
		c0,2.4,1.1,3.9,3,3.9C63.9,314.1,64.9,313.6,65.8,312.6z"/>
	<path class="st2" d="M70.7,310.2c0-3.4,2.4-5.4,5-5.4s5,2,5,5.4c0,3.4-2.4,5.3-5,5.3S70.7,313.6,70.7,310.2z M79,310.2
		c0-2.4-1.3-3.9-3.3-3.9s-3.3,1.6-3.3,3.9c0,2.3,1.3,3.9,3.3,3.9S79,312.5,79,310.2z"/>
	<path class="st2" d="M83.7,310.2c0-3.4,2.6-5.4,5.7-5.4c1.7,0,2.9,0.7,3.7,1.5l-0.9,1.1c-0.8-0.7-1.7-1.2-2.8-1.2
		c-2.4,0-4,1.6-4,3.9c0,2.3,1.6,3.9,3.9,3.9c1.3,0,2.3-0.6,3.1-1.3l0.8,1.1c-1.1,1-2.5,1.6-4.1,1.6
		C86.1,315.5,83.7,313.6,83.7,310.2z"/>
	<path class="st2" d="M96.9,300.3h1.7v10.1h0.1l5.5-5.4h2l-7.6,7.4v2.8h-1.7V300.3z M100.8,309.9l1-1.1l4.9,6.6h-1.9L100.8,309.9z"
		/>
	<path class="st2" d="M108.7,310.2c0-3.3,2.5-5.3,5.2-5.3c2.9,0,4.7,1.9,4.7,4.8c0,0.4,0,0.8-0.1,1h-8.6v-1.3h7.6l-0.4,0.5
		c0-2.4-1.2-3.6-3.1-3.6c-1.9,0-3.5,1.4-3.5,4c0,2.6,1.7,4,4,4c1.2,0,2.2-0.4,3.1-1l0.6,1.1c-1,0.7-2.3,1.2-3.9,1.2
		C111.1,315.5,108.7,313.6,108.7,310.2z"/>
	<path class="st2" d="M122.9,305.1h1.4l0.2,2.4h0c1.1-1.7,2.7-2.7,4.6-2.7c0.8,0,1.4,0.1,2,0.4l-0.4,1.5c-0.7-0.2-1.1-0.3-1.9-0.3
		c-1.5,0-3,0.8-4.2,2.9v6h-1.7V305.1z"/>
	<path class="st2" d="M148.1,305.1h1.4l0.2,2.4h0c1.1-1.7,2.7-2.7,4.6-2.7c0.8,0,1.4,0.1,2,0.4l-0.4,1.5c-0.7-0.2-1.1-0.3-1.9-0.3
		c-1.5,0-3,0.8-4.2,2.9v6h-1.7V305.1z"/>
	<path class="st2" d="M159.3,311.4v-6.3h1.7v6.1c0,1.9,0.7,2.8,2.4,2.8c1.2,0,2-0.5,3.2-1.9v-7.1h1.7v10.2h-1.4l-0.1-1.8h-0.1
		c-1,1.2-2.2,2-3.8,2C160.4,315.5,159.3,314.1,159.3,311.4z"/>
	<path class="st2" d="M172.2,305.1h1.4l0.1,1.7h0.1c1.1-1.1,2.2-2,3.8-2c2.4,0,3.5,1.4,3.5,4.1v6.3h-1.7v-6.1c0-1.9-0.7-2.8-2.3-2.8
		c-1.2,0-2,0.6-3.2,1.8v7.1h-1.7V305.1z"/>
</g>
<g>
	<path class="st1" d="M60.2,161.5c-1.2,0.6-3.5,1.2-6.4,1.2c-6.8,0-12-4.3-12-12.3c0-7.6,5.1-12.7,12.7-12.7c3,0,4.9,0.6,5.8,1.1
		l-0.8,2.6c-1.2-0.6-2.9-1-4.9-1c-5.7,0-9.5,3.6-9.5,10c0,5.9,3.4,9.8,9.3,9.8c1.9,0,3.9-0.4,5.1-1L60.2,161.5z"/>
	<path class="st1" d="M64,136.7h3.2v25.6H64V136.7z"/>
	<path class="st1" d="M76.1,139.9c0,1.1-0.8,1.9-2,1.9c-1.1,0-1.9-0.9-1.9-1.9c0-1.1,0.8-2,2-2C75.3,137.9,76.1,138.8,76.1,139.9z
		 M72.5,162.2v-17.4h3.2v17.4H72.5z"/>
	<path class="st1" d="M82.7,154.1c0.1,4.3,2.8,6,6,6c2.3,0,3.6-0.4,4.8-0.9l0.5,2.3c-1.1,0.5-3,1.1-5.8,1.1c-5.4,0-8.6-3.5-8.6-8.8
		s3.1-9.4,8.2-9.4c5.7,0,7.2,5,7.2,8.2c0,0.6-0.1,1.2-0.1,1.5H82.7z M92,151.8c0-2-0.8-5.1-4.4-5.1c-3.2,0-4.6,3-4.9,5.1H92z"/>
	<path class="st1" d="M99,149.5c0-1.8,0-3.3-0.1-4.7h2.8l0.2,2.9h0.1c0.9-1.7,2.9-3.3,5.8-3.3c2.4,0,6.2,1.4,6.2,7.4v10.4h-3.2v-10
		c0-2.8-1-5.1-4-5.1c-2.1,0-3.7,1.5-4.2,3.2c-0.1,0.4-0.2,0.9-0.2,1.5v10.5H99V149.5z"/>
	<path class="st1" d="M122.6,139.8v5h4.5v2.4h-4.5v9.4c0,2.2,0.6,3.4,2.4,3.4c0.8,0,1.4-0.1,1.8-0.2l0.1,2.4
		c-0.6,0.3-1.6,0.4-2.8,0.4c-1.5,0-2.7-0.5-3.4-1.3c-0.9-0.9-1.2-2.5-1.2-4.5v-9.5h-2.7v-2.4h2.7v-4.2L122.6,139.8z"/>
</g>
<g>
	<path class="st1" d="M275.8,138.7c1.9-0.3,4.2-0.5,6.7-0.5c4.5,0,7.7,1,9.8,3c2.2,2,3.4,4.8,3.4,8.7c0,4-1.2,7.2-3.5,9.4
		c-2.3,2.3-6,3.5-10.7,3.5c-2.2,0-4.1-0.1-5.7-0.3V138.7z M278.9,160.1c0.8,0.1,1.9,0.2,3.2,0.2c6.7,0,10.3-3.7,10.3-10.3
		c0-5.7-3.2-9.4-9.8-9.4c-1.6,0-2.8,0.1-3.7,0.3V160.1z"/>
	<path class="st1" d="M315.6,153.7c0,6.4-4.5,9.3-8.7,9.3c-4.7,0-8.4-3.5-8.4-9c0-5.8,3.8-9.3,8.6-9.3
		C312.2,144.8,315.6,148.4,315.6,153.7z M301.7,153.9c0,3.8,2.2,6.7,5.3,6.7c3,0,5.3-2.8,5.3-6.8c0-3-1.5-6.7-5.2-6.7
		C303.4,147.2,301.7,150.6,301.7,153.9z"/>
	<path class="st1" d="M332,162c-0.8,0.4-2.7,1-5,1c-5.3,0-8.7-3.6-8.7-8.9c0-5.4,3.7-9.3,9.4-9.3c1.9,0,3.5,0.5,4.4,0.9l-0.7,2.4
		c-0.8-0.4-1.9-0.8-3.7-0.8c-4,0-6.2,3-6.2,6.6c0,4,2.6,6.5,6,6.5c1.8,0,3-0.5,3.9-0.9L332,162z"/>
	<path class="st1" d="M338.8,153.2L338.8,153.2c0.5-0.6,1.1-1.4,1.6-2l5.1-6h3.8l-6.7,7.2l7.7,10.3h-3.9l-6-8.4l-1.6,1.8v6.6h-3.1
		V137h3.1V153.2z"/>
	<path class="st1" d="M354.3,154.5c0.1,4.3,2.8,6,6,6c2.3,0,3.6-0.4,4.8-0.9l0.5,2.3c-1.1,0.5-3,1.1-5.8,1.1c-5.4,0-8.6-3.5-8.6-8.8
		s3.1-9.4,8.2-9.4c5.7,0,7.2,5,7.2,8.2c0,0.6-0.1,1.2-0.1,1.5H354.3z M363.6,152.2c0-2-0.8-5.1-4.4-5.1c-3.2,0-4.6,3-4.9,5.1H363.6z
		"/>
	<path class="st1" d="M370.6,150.6c0-2.1,0-3.8-0.1-5.4h2.8l0.1,3.4h0.1c0.8-2.3,2.7-3.8,4.8-3.8c0.4,0,0.6,0,0.9,0.1v3
		c-0.3-0.1-0.6-0.1-1.1-0.1c-2.2,0-3.8,1.7-4.2,4.1c-0.1,0.4-0.1,0.9-0.1,1.5v9.3h-3.1V150.6z"/>
	<path class="st1" d="M390,137h3.2v10.9h0.1c0.5-0.9,1.3-1.7,2.3-2.2c0.9-0.5,2.1-0.9,3.2-0.9c2.3,0,6.1,1.4,6.1,7.5v10.4h-3.2v-10
		c0-2.8-1-5.2-4-5.2c-2.1,0-3.7,1.4-4.2,3.2c-0.2,0.4-0.2,0.9-0.2,1.5v10.5H390V137z"/>
	<path class="st1" d="M425.7,153.7c0,6.4-4.5,9.3-8.7,9.3c-4.7,0-8.4-3.5-8.4-9c0-5.8,3.8-9.3,8.6-9.3
		C422.4,144.8,425.7,148.4,425.7,153.7z M411.9,153.9c0,3.8,2.2,6.7,5.3,6.7c3,0,5.3-2.8,5.3-6.8c0-3-1.5-6.7-5.2-6.7
		S411.9,150.6,411.9,153.9z"/>
	<path class="st1" d="M429.3,159.4c0.9,0.6,2.6,1.3,4.2,1.3c2.3,0,3.4-1.2,3.4-2.6c0-1.5-0.9-2.3-3.2-3.2c-3.1-1.1-4.6-2.8-4.6-4.9
		c0-2.8,2.3-5.1,6-5.1c1.8,0,3.3,0.5,4.3,1.1l-0.8,2.3c-0.7-0.4-1.9-1-3.6-1c-1.9,0-2.9,1.1-2.9,2.4c0,1.4,1,2.1,3.3,3
		c3,1.2,4.6,2.7,4.6,5.3c0,3.1-2.4,5.2-6.5,5.2c-1.9,0-3.7-0.5-4.9-1.2L429.3,159.4z"/>
	<path class="st1" d="M447.8,140.2v5h4.5v2.4h-4.5v9.4c0,2.2,0.6,3.4,2.4,3.4c0.8,0,1.4-0.1,1.8-0.2l0.1,2.4
		c-0.6,0.3-1.6,0.4-2.8,0.4c-1.5,0-2.7-0.5-3.4-1.3c-0.9-0.9-1.2-2.5-1.2-4.5v-9.5H442v-2.4h2.7V141L447.8,140.2z"/>
</g>
<g>
	<path class="st1" d="M602.1,138.3c1.6-0.3,3.9-0.5,6-0.5c3.3,0,5.5,0.6,7,2c1.2,1.1,1.9,2.7,1.9,4.6c0,3.2-2,5.3-4.6,6.2v0.1
		c1.9,0.6,3,2.4,3.6,4.9c0.8,3.4,1.4,5.7,1.9,6.7h-3.2c-0.4-0.7-0.9-2.8-1.6-5.8c-0.7-3.3-2-4.6-4.9-4.7h-3v10.5h-3.1V138.3z
		 M605.2,149.4h3.2c3.3,0,5.5-1.8,5.5-4.6c0-3.1-2.3-4.5-5.6-4.5c-1.5,0-2.6,0.1-3.1,0.3V149.4z"/>
	<path class="st1" d="M623.3,154.1c0.1,4.3,2.8,6,6,6c2.3,0,3.6-0.4,4.8-0.9l0.5,2.3c-1.1,0.5-3,1.1-5.8,1.1c-5.4,0-8.6-3.5-8.6-8.8
		s3.1-9.4,8.2-9.4c5.7,0,7.2,5,7.2,8.2c0,0.6-0.1,1.2-0.1,1.5H623.3z M632.6,151.8c0-2-0.8-5.1-4.4-5.1c-3.2,0-4.6,3-4.9,5.1H632.6z
		"/>
	<path class="st1" d="M654.6,144.8c-0.1,1.3-0.1,2.7-0.1,4.8v10.1c0,4-0.8,6.4-2.5,8c-1.7,1.6-4.1,2.1-6.3,2.1
		c-2.1,0-4.4-0.5-5.8-1.4l0.8-2.4c1.2,0.7,3,1.4,5.1,1.4c3.2,0,5.6-1.7,5.6-6.1v-1.9h-0.1c-1,1.6-2.8,2.9-5.5,2.9
		c-4.3,0-7.4-3.7-7.4-8.5c0-5.9,3.9-9.3,7.8-9.3c3,0,4.7,1.6,5.4,3h0.1l0.1-2.6H654.6z M651.3,151.7c0-0.5,0-1-0.2-1.4
		c-0.6-1.8-2.1-3.3-4.4-3.3c-3,0-5.2,2.6-5.2,6.6c0,3.4,1.7,6.3,5.1,6.3c1.9,0,3.7-1.2,4.4-3.2c0.2-0.5,0.3-1.2,0.3-1.7V151.7z"/>
	<path class="st1" d="M663,139.9c0,1.1-0.8,1.9-2,1.9c-1.1,0-1.9-0.9-1.9-1.9c0-1.1,0.8-2,2-2C662.2,137.9,663,138.8,663,139.9z
		 M659.5,162.2v-17.4h3.2v17.4H659.5z"/>
	<path class="st1" d="M667.5,159c0.9,0.6,2.6,1.3,4.2,1.3c2.3,0,3.4-1.2,3.4-2.6c0-1.5-0.9-2.3-3.2-3.2c-3.1-1.1-4.6-2.8-4.6-4.9
		c0-2.8,2.3-5.1,6-5.1c1.8,0,3.3,0.5,4.3,1.1l-0.8,2.3c-0.7-0.4-1.9-1-3.6-1c-1.9,0-2.9,1.1-2.9,2.4c0,1.4,1,2.1,3.3,3
		c3,1.2,4.6,2.7,4.6,5.3c0,3.1-2.4,5.2-6.5,5.2c-1.9,0-3.7-0.5-4.9-1.2L667.5,159z"/>
	<path class="st1" d="M686,139.8v5h4.5v2.4H686v9.4c0,2.2,0.6,3.4,2.4,3.4c0.8,0,1.4-0.1,1.8-0.2l0.1,2.4c-0.6,0.3-1.6,0.4-2.8,0.4
		c-1.5,0-2.7-0.5-3.4-1.3c-0.9-0.9-1.2-2.5-1.2-4.5v-9.5h-2.7v-2.4h2.7v-4.2L686,139.8z"/>
	<path class="st1" d="M694.1,150.3c0-2.1,0-3.8-0.1-5.4h2.8l0.1,3.4h0.1c0.8-2.3,2.7-3.8,4.8-3.8c0.4,0,0.6,0,0.9,0.1v3
		c-0.3-0.1-0.6-0.1-1.1-0.1c-2.2,0-3.8,1.7-4.2,4.1c-0.1,0.4-0.1,0.9-0.1,1.5v9.3h-3.1V150.3z"/>
	<path class="st1" d="M707.9,144.8l3.8,10.3c0.4,1.2,0.8,2.5,1.1,3.6h0.1c0.3-1,0.7-2.4,1.1-3.6l3.5-10.2h3.3l-4.8,12.4
		c-2.3,6-3.8,9-6,10.9c-1.5,1.4-3.1,1.9-3.9,2.1l-0.8-2.7c0.8-0.3,1.8-0.8,2.8-1.5c0.9-0.7,1.9-1.9,2.7-3.5c0.1-0.3,0.3-0.6,0.3-0.8
		c0-0.2-0.1-0.4-0.2-0.8l-6.4-16.1H707.9z"/>
</g>
<g>
	<path class="st2" d="M319.3,204.7c1.3-0.2,2.8-0.3,4.4-0.3c3,0,5.1,0.7,6.6,2c1.4,1.3,2.3,3.2,2.3,5.8c0,2.6-0.8,4.8-2.3,6.3
		c-1.5,1.5-4,2.3-7.2,2.3c-1.5,0-2.7-0.1-3.8-0.2V204.7z M321.4,219.1c0.5,0.1,1.3,0.1,2.1,0.1c4.5,0,6.9-2.5,6.9-6.9
		c0-3.8-2.1-6.2-6.6-6.2c-1.1,0-1.9,0.1-2.4,0.2V219.1z"/>
	<path class="st2" d="M345.8,214.8c0,4.3-3,6.2-5.8,6.2c-3.1,0-5.6-2.3-5.6-6c0-3.9,2.5-6.2,5.8-6.2
		C343.6,208.8,345.8,211.3,345.8,214.8z M336.6,214.9c0,2.5,1.5,4.5,3.5,4.5c2,0,3.5-1.9,3.5-4.5c0-2-1-4.5-3.5-4.5
		S336.6,212.7,336.6,214.9z"/>
	<path class="st2" d="M356.8,220.3c-0.6,0.3-1.8,0.7-3.3,0.7c-3.5,0-5.8-2.4-5.8-5.9c0-3.6,2.4-6.2,6.2-6.2c1.2,0,2.4,0.3,2.9,0.6
		l-0.5,1.6c-0.5-0.3-1.3-0.6-2.4-0.6c-2.7,0-4.1,2-4.1,4.4c0,2.7,1.7,4.3,4,4.3c1.2,0,2-0.3,2.6-0.6L356.8,220.3z"/>
	<path class="st2" d="M361.3,214.4L361.3,214.4c0.3-0.4,0.7-0.9,1.1-1.3l3.4-4h2.5l-4.5,4.8l5.1,6.8h-2.6l-4-5.6l-1.1,1.2v4.4h-2.1
		v-17h2.1V214.4z"/>
	<path class="st2" d="M371.7,215.3c0,2.9,1.9,4,4,4c1.5,0,2.4-0.3,3.2-0.6l0.4,1.5c-0.7,0.3-2,0.7-3.9,0.7c-3.6,0-5.7-2.4-5.7-5.9
		c0-3.5,2.1-6.3,5.4-6.3c3.8,0,4.8,3.3,4.8,5.5c0,0.4,0,0.8-0.1,1H371.7z M377.9,213.8c0-1.3-0.6-3.4-2.9-3.4c-2.1,0-3.1,2-3.2,3.4
		H377.9z"/>
	<path class="st2" d="M382.5,212.7c0-1.4,0-2.5-0.1-3.6h1.8l0.1,2.3h0.1c0.5-1.6,1.8-2.5,3.2-2.5c0.2,0,0.4,0,0.6,0.1v2
		c-0.2,0-0.4-0.1-0.7-0.1c-1.5,0-2.5,1.1-2.8,2.7c0,0.3-0.1,0.6-0.1,1v6.2h-2.1V212.7z"/>
	<path class="st2" d="M405.5,203.7v14c0,1,0,2.2,0.1,3h-1.9l-0.1-2h0c-0.6,1.3-2.1,2.3-4,2.3c-2.8,0-5-2.4-5-5.9
		c0-3.9,2.4-6.2,5.2-6.2c1.8,0,3,0.8,3.5,1.8h0v-6.9H405.5z M403.4,213.8c0-0.3,0-0.6-0.1-0.9c-0.3-1.3-1.5-2.4-3-2.4
		c-2.2,0-3.5,1.9-3.5,4.5c0,2.4,1.2,4.3,3.4,4.3c1.4,0,2.7-0.9,3.1-2.5c0.1-0.3,0.1-0.6,0.1-0.9V213.8z"/>
	<path class="st2" d="M415.4,220.7l-0.2-1.5h-0.1c-0.6,0.9-1.9,1.7-3.6,1.7c-2.4,0-3.6-1.7-3.6-3.3c0-2.8,2.5-4.3,7-4.3v-0.2
		c0-1-0.3-2.7-2.6-2.7c-1.1,0-2.2,0.3-3,0.9l-0.5-1.4c1-0.6,2.4-1,3.8-1c3.6,0,4.4,2.4,4.4,4.8v4.3c0,1,0,2,0.2,2.8H415.4z
		 M415.1,214.8c-2.3,0-4.9,0.4-4.9,2.6c0,1.4,0.9,2,2,2c1.5,0,2.5-1,2.8-1.9c0.1-0.2,0.1-0.5,0.1-0.7V214.8z"/>
	<path class="st2" d="M421.7,215.3c0,2.9,1.9,4,4,4c1.5,0,2.4-0.3,3.2-0.6l0.4,1.5c-0.7,0.3-2,0.7-3.9,0.7c-3.6,0-5.7-2.4-5.7-5.9
		c0-3.5,2.1-6.3,5.4-6.3c3.8,0,4.8,3.3,4.8,5.5c0,0.4,0,0.8-0.1,1H421.7z M427.9,213.8c0-1.3-0.6-3.4-2.9-3.4c-2.1,0-3.1,2-3.2,3.4
		H427.9z"/>
	<path class="st2" d="M432.6,212.2c0-1.2,0-2.2-0.1-3.1h1.8l0.1,1.9h0.1c0.6-1.1,1.7-2.1,3.6-2.1c1.6,0,2.8,1,3.3,2.3h0
		c0.4-0.6,0.8-1.2,1.3-1.5c0.7-0.5,1.5-0.8,2.6-0.8c1.5,0,3.8,1,3.8,5v6.8h-2.1v-6.6c0-2.2-0.8-3.6-2.5-3.6c-1.2,0-2.1,0.9-2.5,1.9
		c-0.1,0.3-0.2,0.7-0.2,1.1v7.2h-2.1v-7c0-1.8-0.8-3.2-2.4-3.2c-1.3,0-2.3,1.1-2.6,2.1c-0.1,0.3-0.2,0.7-0.2,1v7h-2.1V212.2z"/>
	<path class="st2" d="M463.1,214.8c0,4.3-3,6.2-5.8,6.2c-3.1,0-5.6-2.3-5.6-6c0-3.9,2.5-6.2,5.8-6.2
		C460.9,208.8,463.1,211.3,463.1,214.8z M453.9,214.9c0,2.5,1.5,4.5,3.5,4.5c2,0,3.5-1.9,3.5-4.5c0-2-1-4.5-3.5-4.5
		S453.9,212.7,453.9,214.9z"/>
	<path class="st2" d="M465.8,212.2c0-1.2,0-2.2-0.1-3.1h1.9l0.1,1.9h0c0.6-1.1,1.9-2.2,3.8-2.2c1.6,0,4.1,1,4.1,4.9v6.9h-2.1V214
		c0-1.9-0.7-3.4-2.7-3.4c-1.4,0-2.5,1-2.8,2.2c-0.1,0.3-0.1,0.6-0.1,1v7h-2.1V212.2z"/>
</g>
<g>
	<path class="st2" d="M286.3,271.2c-0.8,0.4-2.3,0.8-4.3,0.8c-4.6,0-8-2.9-8-8.2c0-5.1,3.4-8.5,8.4-8.5c2,0,3.3,0.4,3.8,0.7
		l-0.5,1.7c-0.8-0.4-1.9-0.7-3.3-0.7c-3.8,0-6.3,2.4-6.3,6.7c0,4,2.3,6.5,6.2,6.5c1.3,0,2.6-0.3,3.4-0.7L286.3,271.2z"/>
	<path class="st2" d="M299.1,265.8c0,4.3-3,6.2-5.8,6.2c-3.1,0-5.6-2.3-5.6-6c0-3.9,2.5-6.2,5.8-6.2
		C296.8,259.8,299.1,262.2,299.1,265.8z M289.9,265.9c0,2.5,1.5,4.5,3.5,4.5c2,0,3.5-1.9,3.5-4.5c0-2-1-4.5-3.5-4.5
		S289.9,263.7,289.9,265.9z"/>
	<path class="st2" d="M301.7,263.2c0-1.2,0-2.2-0.1-3.1h1.9l0.1,1.9h0c0.6-1.1,1.9-2.2,3.8-2.2c1.6,0,4.1,1,4.1,4.9v6.9h-2.1V265
		c0-1.9-0.7-3.4-2.7-3.4c-1.4,0-2.5,1-2.8,2.2c-0.1,0.3-0.1,0.6-0.1,1v7h-2.1V263.2z"/>
	<path class="st2" d="M317.5,256.7v3.3h3v1.6h-3v6.3c0,1.4,0.4,2.3,1.6,2.3c0.6,0,1-0.1,1.2-0.1l0.1,1.6c-0.4,0.2-1.1,0.3-1.9,0.3
		c-1,0-1.8-0.3-2.3-0.9c-0.6-0.6-0.8-1.7-0.8-3v-6.3h-1.8v-1.6h1.8v-2.8L317.5,256.7z"/>
	<path class="st2" d="M329.3,271.7l-0.2-1.5h-0.1c-0.6,0.9-1.9,1.7-3.6,1.7c-2.4,0-3.6-1.7-3.6-3.3c0-2.8,2.5-4.3,7-4.3v-0.2
		c0-1-0.3-2.7-2.6-2.7c-1.1,0-2.2,0.3-3,0.9l-0.5-1.4c1-0.6,2.4-1,3.8-1c3.6,0,4.4,2.4,4.4,4.8v4.3c0,1,0,2,0.2,2.8H329.3z
		 M329,265.8c-2.3,0-4.9,0.4-4.9,2.6c0,1.4,0.9,2,2,2c1.5,0,2.5-1,2.8-1.9c0.1-0.2,0.1-0.5,0.1-0.7V265.8z"/>
	<path class="st2" d="M336.8,256.8c0,0.7-0.5,1.3-1.3,1.3c-0.7,0-1.3-0.6-1.3-1.3c0-0.7,0.6-1.3,1.3-1.3
		C336.3,255.5,336.8,256.1,336.8,256.8z M334.5,271.7v-11.6h2.1v11.6H334.5z"/>
	<path class="st2" d="M340.1,263.2c0-1.2,0-2.2-0.1-3.1h1.9l0.1,1.9h0c0.6-1.1,1.9-2.2,3.8-2.2c1.6,0,4.1,1,4.1,4.9v6.9h-2.1V265
		c0-1.9-0.7-3.4-2.7-3.4c-1.4,0-2.5,1-2.8,2.2c-0.1,0.3-0.1,0.6-0.1,1v7h-2.1V263.2z"/>
	<path class="st2" d="M354.6,266.3c0,2.9,1.9,4,4,4c1.5,0,2.4-0.3,3.2-0.6l0.4,1.5c-0.7,0.3-2,0.7-3.9,0.7c-3.6,0-5.7-2.4-5.7-5.9
		c0-3.5,2.1-6.3,5.4-6.3c3.8,0,4.8,3.3,4.8,5.5c0,0.4,0,0.8-0.1,1H354.6z M360.8,264.8c0-1.3-0.6-3.4-2.9-3.4c-2.1,0-3.1,2-3.2,3.4
		H360.8z"/>
	<path class="st2" d="M365.4,263.7c0-1.4,0-2.5-0.1-3.6h1.8l0.1,2.3h0.1c0.5-1.6,1.8-2.5,3.2-2.5c0.2,0,0.4,0,0.6,0.1v2
		c-0.2,0-0.4-0.1-0.7-0.1c-1.5,0-2.5,1.1-2.8,2.7c0,0.3-0.1,0.6-0.1,1v6.2h-2.1V263.7z"/>
	<path class="st2" d="M373,269.5c0.6,0.4,1.7,0.8,2.8,0.8c1.5,0,2.3-0.8,2.3-1.7c0-1-0.6-1.6-2.2-2.1c-2.1-0.7-3.1-1.9-3.1-3.3
		c0-1.9,1.5-3.4,4-3.4c1.2,0,2.2,0.3,2.9,0.7l-0.5,1.5c-0.5-0.3-1.3-0.7-2.4-0.7c-1.2,0-1.9,0.7-1.9,1.6c0,1,0.7,1.4,2.2,2
		c2,0.8,3,1.8,3,3.5c0,2-1.6,3.5-4.3,3.5c-1.3,0-2.4-0.3-3.3-0.8L373,269.5z"/>
</g>
<g>
	<path class="st2" d="M433.7,309.1v16.2h-2.1v-16.2H433.7z"/>
	<path class="st2" d="M437.5,316.8c0-1.2,0-2.2-0.1-3.1h1.8l0.1,1.9h0.1c0.6-1.1,1.7-2.1,3.6-2.1c1.6,0,2.8,1,3.3,2.3h0
		c0.4-0.6,0.8-1.2,1.3-1.5c0.7-0.5,1.5-0.8,2.6-0.8c1.5,0,3.8,1,3.8,5v6.8H452v-6.6c0-2.2-0.8-3.6-2.5-3.6c-1.2,0-2.1,0.9-2.5,1.9
		c-0.1,0.3-0.2,0.7-0.2,1.1v7.2h-2.1v-7c0-1.8-0.8-3.2-2.4-3.2c-1.3,0-2.3,1.1-2.6,2.1c-0.1,0.3-0.2,0.7-0.2,1v7h-2.1V316.8z"/>
	<path class="st2" d="M463.9,325.3l-0.2-1.5h-0.1c-0.6,0.9-1.9,1.7-3.6,1.7c-2.4,0-3.6-1.7-3.6-3.3c0-2.8,2.5-4.3,7-4.3v-0.2
		c0-1-0.3-2.7-2.6-2.7c-1.1,0-2.2,0.3-3,0.9l-0.5-1.4c1-0.6,2.4-1,3.8-1c3.6,0,4.4,2.4,4.4,4.8v4.3c0,1,0,2,0.2,2.8H463.9z
		 M463.6,319.4c-2.3,0-4.9,0.4-4.9,2.6c0,1.4,0.9,2,2,2c1.5,0,2.5-1,2.8-1.9c0.1-0.2,0.1-0.5,0.1-0.7V319.4z"/>
	<path class="st2" d="M479.1,313.7c0,0.8-0.1,1.8-0.1,3.2v6.7c0,2.7-0.5,4.3-1.7,5.3c-1.1,1.1-2.8,1.4-4.2,1.4c-1.4,0-2.9-0.3-3.9-1
		l0.5-1.6c0.8,0.5,2,0.9,3.4,0.9c2.2,0,3.7-1.1,3.7-4.1v-1.3h0c-0.6,1.1-1.9,1.9-3.7,1.9c-2.9,0-4.9-2.4-4.9-5.7
		c0-3.9,2.6-6.2,5.2-6.2c2,0,3.1,1.1,3.6,2h0l0.1-1.8H479.1z M476.9,318.3c0-0.4,0-0.7-0.1-1c-0.4-1.2-1.4-2.2-3-2.2
		c-2,0-3.5,1.7-3.5,4.4c0,2.3,1.2,4.2,3.4,4.2c1.3,0,2.5-0.8,2.9-2.2c0.1-0.4,0.2-0.8,0.2-1.1V318.3z"/>
	<path class="st2" d="M483.7,319.9c0,2.9,1.9,4,4,4c1.5,0,2.4-0.3,3.2-0.6l0.4,1.5c-0.7,0.3-2,0.7-3.9,0.7c-3.6,0-5.7-2.4-5.7-5.9
		c0-3.5,2.1-6.3,5.4-6.3c3.8,0,4.8,3.3,4.8,5.5c0,0.4,0,0.8-0.1,1H483.7z M489.9,318.4c0-1.3-0.6-3.4-2.9-3.4c-2.1,0-3.1,2-3.2,3.4
		H489.9z"/>
	<path class="st2" d="M494.2,323.1c0.6,0.4,1.7,0.8,2.8,0.8c1.5,0,2.3-0.8,2.3-1.7c0-1-0.6-1.6-2.2-2.1c-2.1-0.7-3.1-1.9-3.1-3.3
		c0-1.9,1.5-3.4,4-3.4c1.2,0,2.2,0.3,2.9,0.7l-0.5,1.5c-0.5-0.3-1.3-0.7-2.4-0.7c-1.2,0-1.9,0.7-1.9,1.6c0,1,0.7,1.4,2.2,2
		c2,0.8,3,1.8,3,3.5c0,2-1.6,3.5-4.3,3.5c-1.3,0-2.4-0.3-3.3-0.8L494.2,323.1z"/>
</g>
<g>
	<g>
		<path class="st0" d="M300.2,358.3l-13.8-3.1c-0.1,0-0.1-0.1-0.1-0.2v-41.7c0-0.1,0.1-0.2,0.1-0.2l13.8-2.5c0,0,0,0,0,0
			c0,0,0.1,0,0.1,0c0,0,0.1,0.1,0.1,0.1v47.2c0,0.1,0,0.1-0.1,0.1C300.3,358.3,300.3,358.3,300.2,358.3
			C300.3,358.3,300.2,358.3,300.2,358.3z"/>
		<path class="st0" d="M300.3,310.9v47.2l-13.8-3.1v-41.7L300.3,310.9 M300.3,310.6C300.3,310.6,300.2,310.6,300.3,310.6l-13.8,2.5
			c-0.2,0-0.3,0.2-0.3,0.3v41.7c0,0.2,0.1,0.3,0.3,0.3l13.8,3.1c0,0,0,0,0.1,0c0.1,0,0.2,0,0.2-0.1c0.1-0.1,0.1-0.2,0.1-0.3v-47.2
			c0-0.1,0-0.2-0.1-0.3C300.4,310.6,300.3,310.6,300.3,310.6L300.3,310.6z"/>
	</g>
	<g>
		<path class="st0" d="M315.9,361.2l-12.9-2.9c-0.1,0-0.1-0.1-0.1-0.2v-47.2c0-0.1,0.1-0.2,0.1-0.2c0,0,12.9-2.1,12.9-2.1
			c0,0,0.1,0,0.1,0c0,0,0.1,0.1,0.1,0.1V361c0,0.1,0,0.1-0.1,0.1C316,361.2,315.9,361.2,315.9,361.2
			C315.9,361.2,315.9,361.2,315.9,361.2z"/>
		<path class="st0" d="M315.9,308.8V361l-12.9-2.9v-47.2L315.9,308.8 M315.9,308.4C315.9,308.4,315.9,308.4,315.9,308.4l-12.9,2.2
			c-0.2,0-0.3,0.2-0.3,0.3v47.2c0,0.2,0.1,0.3,0.3,0.3l12.9,2.9c0,0,0,0,0.1,0c0.1,0,0.2,0,0.2-0.1c0.1-0.1,0.1-0.2,0.1-0.3v-52.2
			c0-0.1,0-0.2-0.1-0.3C316.1,308.5,316,308.4,315.9,308.4L315.9,308.4z"/>
	</g>
	<g>
		<path class="st0" d="M318.7,361.2c0,0-0.1,0-0.1,0c0,0-0.1-0.1-0.1-0.1l1.1-52.2c0,0,0-0.1,0.1-0.1c0,0,0.1,0,0.1,0c0,0,0,0,0,0
			l49.4,9.5c0.1,0,0.1,0.1,0.1,0.2v32.5c0,0.1-0.1,0.1-0.1,0.2L318.7,361.2C318.7,361.2,318.7,361.2,318.7,361.2z"/>
		<path class="st0" d="M319.7,308.8l49.4,9.5v32.5L318.7,361L319.7,308.8 M319.7,308.4c-0.1,0-0.2,0-0.2,0.1
			c-0.1,0.1-0.1,0.2-0.1,0.3l-1.1,52.2c0,0.1,0,0.2,0.1,0.3c0.1,0.1,0.1,0.1,0.2,0.1c0,0,0,0,0.1,0l50.5-10.2c0.2,0,0.3-0.2,0.3-0.3
			v-32.5c0-0.2-0.1-0.3-0.3-0.3L319.7,308.4C319.8,308.4,319.8,308.4,319.7,308.4L319.7,308.4z"/>
	</g>
	<path class="st1" d="M297.9,335.1H294c-0.7,0-1.2-0.5-1.2-1.2v0c0-0.7,0.5-1.2,1.2-1.2h3.9c0.7,0,1.2,0.5,1.2,1.2v0
		C299.1,334.6,298.6,335.1,297.9,335.1z"/>
	<path class="st1" d="M308.7,335.1h-3.9c-0.7,0-1.2-0.5-1.2-1.2v0c0-0.7,0.5-1.2,1.2-1.2h3.9c0.7,0,1.2,0.5,1.2,1.2v0
		C309.9,334.6,309.4,335.1,308.7,335.1z"/>
	<g>
		<path class="st1" d="M343.1,352c0,0-0.1,0-0.1,0c0,0-0.1-0.1-0.1-0.1V316c0-0.1,0-0.1,0.1-0.1c0,0,0.1,0,0.1,0c0,0,0,0,0,0
			l2.8,0.8c0.1,0,0.1,0.1,0.1,0.2V351c0,0.1,0,0.1-0.1,0.2L343.1,352C343.1,352,343.1,352,343.1,352z"/>
		<path class="st1" d="M343.1,316c0.9,0.3,1.9,0.6,2.8,0.8c0,11.4,0,22.8,0,34.2c-0.9,0.3-1.9,0.6-2.8,0.8V316 M343.1,315.7
			c-0.1,0-0.1,0-0.2,0.1c-0.1,0.1-0.1,0.2-0.1,0.3v35.8c0,0.1,0.1,0.2,0.1,0.3c0.1,0,0.1,0.1,0.2,0.1c0,0,0.1,0,0.1,0l1.4-0.4
			l1.4-0.4c0.1,0,0.2-0.2,0.2-0.3v-34.2c0-0.2-0.1-0.3-0.2-0.3l-1.4-0.4L343.1,315.7C343.2,315.7,343.1,315.7,343.1,315.7
			L343.1,315.7z"/>
	</g>
	<g>
		<path class="st1" d="M348.9,351.2C348.9,351.2,348.9,351.2,348.9,351.2c-0.1-0.1-0.2-0.1-0.2-0.2v-34.2c0-0.1,0-0.1,0.1-0.1
			c0,0,0.1,0,0.1,0c0,0,0,0,0.1,0l2.2,0.8c0.1,0,0.1,0.1,0.1,0.2v32.6c0,0.1,0,0.1-0.1,0.2L348.9,351.2
			C349,351.2,349,351.2,348.9,351.2z"/>
		<path class="st1" d="M348.9,316.9c0.7,0.3,1.5,0.5,2.2,0.8c0,10.9,0,21.7,0,32.6c-0.7,0.3-1.5,0.5-2.2,0.8V316.9 M348.9,316.5
			c-0.1,0-0.1,0-0.2,0.1c-0.1,0.1-0.1,0.2-0.1,0.3V351c0,0.1,0.1,0.2,0.1,0.3c0.1,0,0.1,0.1,0.2,0.1c0,0,0.1,0,0.1,0l1.1-0.4
			l1.1-0.4c0.1,0,0.2-0.2,0.2-0.3v-32.6c0-0.1-0.1-0.3-0.2-0.3l-1.1-0.4l-1.1-0.4C349,316.5,349,316.5,348.9,316.5L348.9,316.5z"/>
	</g>
	<g>
		<path class="st1" d="M354.2,350.6C354.1,350.6,354.1,350.6,354.2,350.6c-0.1-0.1-0.2-0.1-0.2-0.2v-32.6c0-0.1,0-0.1,0.1-0.1
			c0,0,0.1,0,0.1,0c0,0,0,0,0.1,0l1.9,0.8c0.1,0,0.1,0.1,0.1,0.2v31.1c0,0.1,0,0.1-0.1,0.2L354.2,350.6
			C354.2,350.6,354.2,350.6,354.2,350.6z"/>
		<path class="st1" d="M354.2,317.8c0.6,0.3,1.2,0.5,1.9,0.8c0,10.4,0,20.7,0,31.1c-0.6,0.3-1.2,0.5-1.9,0.8V317.8 M354.2,317.5
			c-0.1,0-0.1,0-0.2,0.1c-0.1,0.1-0.1,0.2-0.1,0.3v32.6c0,0.1,0.1,0.2,0.1,0.3c0.1,0,0.1,0.1,0.2,0.1c0,0,0.1,0,0.1,0l0.9-0.4
			l0.9-0.4c0.1-0.1,0.2-0.2,0.2-0.3v-31.1c0-0.1-0.1-0.3-0.2-0.3l-1.9-0.8C354.3,317.5,354.2,317.5,354.2,317.5L354.2,317.5z"/>
	</g>
	<g>
		<path class="st1" d="M358.5,349.9C358.5,349.9,358.4,349.9,358.5,349.9c-0.1-0.1-0.2-0.1-0.2-0.2v-31.1c0-0.1,0-0.1,0.1-0.1
			c0,0,0.1,0,0.1,0c0,0,0,0,0.1,0l1.7,0.7c0.1,0,0.1,0.1,0.1,0.2V349c0,0.1,0,0.1-0.1,0.2L358.5,349.9
			C358.5,349.9,358.5,349.9,358.5,349.9z"/>
		<path class="st1" d="M358.5,318.6c0.6,0.2,1.1,0.5,1.7,0.7c0,9.9,0,19.8,0,29.6c-0.6,0.2-1.1,0.5-1.7,0.7V318.6 M358.5,318.3
			c-0.1,0-0.1,0-0.2,0.1c-0.1,0.1-0.2,0.2-0.2,0.3v31.1c0,0.1,0.1,0.2,0.2,0.3c0.1,0,0.1,0.1,0.2,0.1c0,0,0.1,0,0.1,0l0.9-0.4
			l0.9-0.4c0.1-0.1,0.2-0.2,0.2-0.3v-29.6c0-0.1-0.1-0.3-0.2-0.3l-0.9-0.4l-0.9-0.4C358.6,318.3,358.5,318.3,358.5,318.3
			L358.5,318.3z"/>
	</g>
	<g>
		<path class="st1" d="M362.4,349.5C362.4,349.5,362.4,349.5,362.4,349.5c-0.1-0.1-0.2-0.1-0.2-0.2V319c0-0.1,0-0.1,0.1-0.1
			c0,0,0.1,0,0.1,0c0,0,0.1,0,0.1,0l1.4,0.7c0.1,0,0.1,0.1,0.1,0.2v29c0,0.1,0,0.1-0.1,0.2L362.4,349.5
			C362.5,349.5,362.5,349.5,362.4,349.5z"/>
		<path class="st1" d="M362.4,319c0.5,0.2,0.9,0.5,1.4,0.7c0,9.7,0,19.3,0,29c-0.5,0.2-0.9,0.5-1.4,0.7V319 M362.4,318.7
			c-0.1,0-0.1,0-0.2,0c-0.1,0.1-0.2,0.2-0.2,0.3v30.4c0,0.1,0.1,0.2,0.2,0.3c0.1,0,0.1,0,0.2,0c0.1,0,0.1,0,0.2,0l0.7-0.4l0.7-0.4
			c0.1-0.1,0.2-0.2,0.2-0.3v-29c0-0.1-0.1-0.2-0.2-0.3l-1-0.5l-0.3-0.2C362.5,318.7,362.5,318.7,362.4,318.7L362.4,318.7z"/>
	</g>
	<g>
		<path class="st1" d="M366.3,349.3C366.2,349.3,366.2,349.3,366.3,349.3c-0.1-0.1-0.2-0.1-0.2-0.2v-29.4c0-0.1,0-0.1,0.1-0.1
			c0,0,0.1,0,0.1,0c0,0,0.1,0,0.1,0l1.3,0.7c0.1,0,0.1,0.1,0.1,0.2v28.1c0,0.1,0,0.1-0.1,0.2L366.3,349.3
			C366.3,349.3,366.3,349.3,366.3,349.3z"/>
		<path class="st1" d="M366.3,319.7c0.4,0.2,0.9,0.5,1.3,0.7c0,9.4,0,18.7,0,28.1c-0.4,0.2-0.9,0.5-1.3,0.7V319.7 M366.3,319.4
			c-0.1,0-0.1,0-0.2,0c-0.1,0.1-0.2,0.2-0.2,0.3v29.4c0,0.1,0.1,0.2,0.2,0.3c0.1,0,0.1,0,0.2,0c0.1,0,0.1,0,0.2,0l0.7-0.3l0.7-0.3
			c0.1-0.1,0.2-0.2,0.2-0.3v-28.1c0-0.1-0.1-0.2-0.2-0.3l-1.3-0.7C366.4,319.4,366.3,319.4,366.3,319.4L366.3,319.4z"/>
	</g>
	<g>
		<path class="st1" d="M337,352.9c0,0-0.1,0-0.1,0c0,0-0.1-0.1-0.1-0.1v-37.5c0-0.1,0-0.1,0.1-0.1c0,0,0.1,0,0.1,0c0,0,0,0,0,0
			l2.8,0.9c0.1,0,0.1,0.1,0.1,0.2v35.7c0,0.1,0,0.1-0.1,0.2L337,352.9C337,352.9,337,352.9,337,352.9z"/>
		<path class="st1" d="M337,315.2c0.9,0.3,1.9,0.6,2.8,0.9c0,11.9,0,23.8,0,35.7c-0.9,0.3-1.9,0.6-2.8,0.9V315.2 M337,314.9
			c-0.1,0-0.1,0-0.2,0.1c-0.1,0.1-0.1,0.2-0.1,0.3v37.5c0,0.1,0.1,0.2,0.1,0.3c0.1,0,0.1,0.1,0.2,0.1c0,0,0.1,0,0.1,0l1.5-0.5
			l1.3-0.4c0.1,0,0.2-0.2,0.2-0.3v-35.7c0-0.1-0.1-0.3-0.2-0.3l-1.2-0.4L337,314.9C337.1,314.9,337,314.9,337,314.9L337,314.9z"/>
	</g>
	<g>
		<path class="st1" d="M330.4,354.1c0,0-0.1,0-0.1,0c0,0-0.1-0.1-0.1-0.1v-39.6c0-0.1,0-0.1,0.1-0.1c0,0,0.1,0,0.1,0c0,0,0,0,0,0
			l3.4,0.9c0.1,0,0.1,0.1,0.1,0.2V353c0,0.1-0.1,0.1-0.1,0.2L330.4,354.1C330.4,354.1,330.4,354.1,330.4,354.1z"/>
		<path class="st1" d="M330.4,314.3c1.1,0.3,2.2,0.6,3.4,0.9c0,12.6,0,25.2,0,37.8c-1.1,0.3-2.2,0.6-3.4,0.9V314.3 M330.4,313.9
			c-0.1,0-0.1,0-0.2,0.1c-0.1,0.1-0.1,0.2-0.1,0.3v39.6c0,0.1,0,0.2,0.1,0.3c0.1,0,0.1,0.1,0.2,0.1c0,0,0.1,0,0.1,0l1.7-0.5l1.7-0.5
			c0.1,0,0.2-0.2,0.2-0.3v-37.8c0-0.2-0.1-0.3-0.2-0.3l-0.9-0.2L330.4,313.9C330.5,313.9,330.4,313.9,330.4,313.9L330.4,313.9z"/>
	</g>
	<g>
		<path class="st1" d="M322.9,355.4c0,0-0.1,0-0.1,0c0,0-0.1-0.1-0.1-0.1v-42.3c0-0.1,0-0.1,0.1-0.1c0,0,0.1,0,0.1,0c0,0,0,0,0,0
			l3.4,1c0.1,0,0.1,0.1,0.1,0.2v40.4c0,0.1,0,0.1-0.1,0.2L322.9,355.4C322.9,355.4,322.9,355.4,322.9,355.4z"/>
		<path class="st1" d="M322.9,312.9c1.1,0.3,2.2,0.7,3.4,1c0,13.5,0,26.9,0,40.4c-1.1,0.3-2.2,0.7-3.4,1V312.9 M322.9,312.5
			c-0.1,0-0.1,0-0.2,0.1c-0.1,0.1-0.1,0.2-0.1,0.3v42.3c0,0.1,0.1,0.2,0.1,0.3c0.1,0,0.1,0.1,0.2,0.1c0,0,0.1,0,0.1,0l1.6-0.5
			l1.8-0.5c0.1,0,0.2-0.2,0.2-0.3v-40.4c0-0.2-0.1-0.3-0.2-0.3l-1.8-0.5L322.9,312.5C322.9,312.5,322.9,312.5,322.9,312.5
			L322.9,312.5z"/>
	</g>
</g>
<g>
	<g>
		<path class="st0" d="M296.9,431.2l-13.8-3.1c-0.1,0-0.1-0.1-0.1-0.2v-41.7c0-0.1,0.1-0.2,0.1-0.2l13.8-2.5c0,0,0,0,0,0
			c0,0,0.1,0,0.1,0c0,0,0.1,0.1,0.1,0.1V431c0,0.1,0,0.1-0.1,0.1C297,431.2,297,431.2,296.9,431.2
			C296.9,431.2,296.9,431.2,296.9,431.2z"/>
		<path class="st0" d="M296.9,383.8V431l-13.8-3.1v-41.7L296.9,383.8 M296.9,383.5C296.9,383.5,296.9,383.5,296.9,383.5l-13.8,2.5
			c-0.2,0-0.3,0.2-0.3,0.3V428c0,0.2,0.1,0.3,0.3,0.3l13.8,3.1c0,0,0,0,0.1,0c0.1,0,0.2,0,0.2-0.1c0.1-0.1,0.1-0.2,0.1-0.3v-47.2
			c0-0.1,0-0.2-0.1-0.3C297.1,383.5,297,383.5,296.9,383.5L296.9,383.5z"/>
	</g>
	<g>
		<path class="st0" d="M312.5,434.1l-12.9-2.9c-0.1,0-0.1-0.1-0.1-0.2v-47.2c0-0.1,0.1-0.2,0.1-0.2c0,0,12.9-2.1,12.9-2.1
			c0,0,0.1,0,0.1,0c0,0,0.1,0.1,0.1,0.1v52.2c0,0.1,0,0.1-0.1,0.1C312.6,434,312.6,434.1,312.5,434.1
			C312.5,434.1,312.5,434.1,312.5,434.1z"/>
		<path class="st0" d="M312.6,381.6v52.2l-12.9-2.9v-47.2L312.6,381.6 M312.6,381.3C312.5,381.3,312.5,381.3,312.6,381.3l-12.9,2.2
			c-0.2,0-0.3,0.2-0.3,0.3V431c0,0.2,0.1,0.3,0.3,0.3l12.9,2.9c0,0,0,0,0.1,0c0.1,0,0.2,0,0.2-0.1c0.1-0.1,0.1-0.2,0.1-0.3v-52.2
			c0-0.1,0-0.2-0.1-0.3C312.7,381.3,312.6,381.3,312.6,381.3L312.6,381.3z"/>
	</g>
	<g>
		<path class="st0" d="M315.3,434.1c0,0-0.1,0-0.1,0c0,0-0.1-0.1-0.1-0.1l1.1-52.2c0,0,0-0.1,0.1-0.1c0,0,0.1,0,0.1,0c0,0,0,0,0,0
			l49.4,9.5c0.1,0,0.1,0.1,0.1,0.2v32.5c0,0.1-0.1,0.1-0.1,0.2L315.3,434.1C315.3,434.1,315.3,434.1,315.3,434.1z"/>
		<path class="st0" d="M316.4,381.6l49.4,9.5v32.5l-50.5,10.2L316.4,381.6 M316.4,381.3c-0.1,0-0.2,0-0.2,0.1
			c-0.1,0.1-0.1,0.2-0.1,0.3l-1.1,52.2c0,0.1,0,0.2,0.1,0.3c0.1,0.1,0.1,0.1,0.2,0.1c0,0,0,0,0.1,0l50.5-10.2c0.2,0,0.3-0.2,0.3-0.3
			v-32.5c0-0.2-0.1-0.3-0.3-0.3L316.4,381.3C316.4,381.3,316.4,381.3,316.4,381.3L316.4,381.3z"/>
	</g>
	<path class="st1" d="M294.6,408h-3.9c-0.7,0-1.2-0.5-1.2-1.2v0c0-0.7,0.5-1.2,1.2-1.2h3.9c0.7,0,1.2,0.5,1.2,1.2v0
		C295.8,407.4,295.2,408,294.6,408z"/>
	<path class="st1" d="M305.4,408h-3.9c-0.7,0-1.2-0.5-1.2-1.2v0c0-0.7,0.5-1.2,1.2-1.2h3.9c0.7,0,1.2,0.5,1.2,1.2v0
		C306.6,407.4,306,408,305.4,408z"/>
	<g>
		<path class="st1" d="M339.7,424.9c0,0-0.1,0-0.1,0c0,0-0.1-0.1-0.1-0.1v-35.8c0-0.1,0-0.1,0.1-0.1c0,0,0.1,0,0.1,0c0,0,0,0,0,0
			l2.8,0.8c0.1,0,0.1,0.1,0.1,0.2v34.2c0,0.1,0,0.1-0.1,0.2L339.7,424.9C339.8,424.9,339.8,424.9,339.7,424.9z"/>
		<path class="st1" d="M339.7,388.9c0.9,0.3,1.9,0.6,2.8,0.8c0,11.4,0,22.8,0,34.2c-0.9,0.3-1.9,0.6-2.8,0.8V388.9 M339.7,388.6
			c-0.1,0-0.1,0-0.2,0.1c-0.1,0.1-0.1,0.2-0.1,0.3v35.8c0,0.1,0.1,0.2,0.1,0.3c0.1,0,0.1,0.1,0.2,0.1c0,0,0.1,0,0.1,0l1.4-0.4
			l1.4-0.4c0.1,0,0.2-0.2,0.2-0.3v-34.2c0-0.2-0.1-0.3-0.2-0.3l-1.4-0.4L339.7,388.6C339.8,388.6,339.8,388.6,339.7,388.6
			L339.7,388.6z"/>
	</g>
	<g>
		<path class="st1" d="M345.6,424.1C345.6,424.1,345.5,424.1,345.6,424.1c-0.1-0.1-0.2-0.1-0.2-0.2v-34.2c0-0.1,0-0.1,0.1-0.1
			c0,0,0.1,0,0.1,0c0,0,0,0,0.1,0l2.2,0.8c0.1,0,0.1,0.1,0.1,0.2v32.6c0,0.1,0,0.1-0.1,0.2L345.6,424.1
			C345.6,424.1,345.6,424.1,345.6,424.1z"/>
		<path class="st1" d="M345.6,389.7c0.7,0.3,1.5,0.5,2.2,0.8c0,10.9,0,21.7,0,32.6c-0.7,0.3-1.5,0.5-2.2,0.8V389.7 M345.6,389.4
			c-0.1,0-0.1,0-0.2,0.1c-0.1,0.1-0.1,0.2-0.1,0.3v34.2c0,0.1,0.1,0.2,0.1,0.3c0.1,0,0.1,0.1,0.2,0.1c0,0,0.1,0,0.1,0l1.1-0.4
			l1.1-0.4c0.1,0,0.2-0.2,0.2-0.3v-32.6c0-0.1-0.1-0.3-0.2-0.3l-1.1-0.4l-1.1-0.4C345.7,389.4,345.6,389.4,345.6,389.4L345.6,389.4z
			"/>
	</g>
	<g>
		<path class="st1" d="M350.8,423.4C350.8,423.4,350.7,423.4,350.8,423.4c-0.1-0.1-0.2-0.1-0.2-0.2v-32.6c0-0.1,0-0.1,0.1-0.1
			c0,0,0.1,0,0.1,0c0,0,0,0,0.1,0l1.9,0.8c0.1,0,0.1,0.1,0.1,0.2v31.1c0,0.1,0,0.1-0.1,0.2L350.8,423.4
			C350.9,423.4,350.8,423.4,350.8,423.4z"/>
		<path class="st1" d="M350.8,390.7c0.6,0.3,1.2,0.5,1.9,0.8c0,10.4,0,20.7,0,31.1c-0.6,0.3-1.2,0.5-1.9,0.8V390.7 M350.8,390.3
			c-0.1,0-0.1,0-0.2,0.1c-0.1,0.1-0.1,0.2-0.1,0.3v32.6c0,0.1,0.1,0.2,0.1,0.3c0.1,0,0.1,0.1,0.2,0.1c0,0,0.1,0,0.1,0l0.9-0.4
			l0.9-0.4c0.1-0.1,0.2-0.2,0.2-0.3v-31.1c0-0.1-0.1-0.3-0.2-0.3l-1.9-0.8C350.9,390.3,350.9,390.3,350.8,390.3L350.8,390.3z"/>
	</g>
	<g>
		<path class="st1" d="M355.1,422.7C355.1,422.7,355.1,422.7,355.1,422.7c-0.1-0.1-0.2-0.1-0.2-0.2v-31.1c0-0.1,0-0.1,0.1-0.1
			c0,0,0.1,0,0.1,0c0,0,0,0,0.1,0l1.7,0.7c0.1,0,0.1,0.1,0.1,0.2v29.6c0,0.1,0,0.1-0.1,0.2L355.1,422.7
			C355.2,422.7,355.2,422.7,355.1,422.7z"/>
		<path class="st1" d="M355.1,391.5c0.6,0.2,1.1,0.5,1.7,0.7c0,9.9,0,19.8,0,29.6c-0.6,0.2-1.1,0.5-1.7,0.7V391.5 M355.1,391.1
			c-0.1,0-0.1,0-0.2,0.1c-0.1,0.1-0.2,0.2-0.2,0.3v31.1c0,0.1,0.1,0.2,0.2,0.3c0.1,0,0.1,0.1,0.2,0.1c0,0,0.1,0,0.1,0l0.9-0.4
			l0.9-0.4c0.1-0.1,0.2-0.2,0.2-0.3v-29.6c0-0.1-0.1-0.3-0.2-0.3l-0.9-0.4l-0.9-0.4C355.2,391.1,355.2,391.1,355.1,391.1
			L355.1,391.1z"/>
	</g>
	<g>
		<path class="st1" d="M359.1,422.4C359.1,422.4,359,422.4,359.1,422.4c-0.1-0.1-0.2-0.1-0.2-0.2v-30.4c0-0.1,0-0.1,0.1-0.1
			c0,0,0.1,0,0.1,0c0,0,0.1,0,0.1,0l1.4,0.7c0.1,0,0.1,0.1,0.1,0.2v29c0,0.1,0,0.1-0.1,0.2L359.1,422.4
			C359.1,422.4,359.1,422.4,359.1,422.4z"/>
		<path class="st1" d="M359.1,391.9c0.5,0.2,0.9,0.5,1.4,0.7c0,9.7,0,19.3,0,29c-0.5,0.2-0.9,0.5-1.4,0.7V391.9 M359.1,391.5
			c-0.1,0-0.1,0-0.2,0c-0.1,0.1-0.2,0.2-0.2,0.3v30.4c0,0.1,0.1,0.2,0.2,0.3c0.1,0,0.1,0,0.2,0c0.1,0,0.1,0,0.2,0l0.7-0.4l0.7-0.4
			c0.1-0.1,0.2-0.2,0.2-0.3v-29c0-0.1-0.1-0.2-0.2-0.3l-1-0.5l-0.3-0.2C359.2,391.5,359.1,391.5,359.1,391.5L359.1,391.5z"/>
	</g>
	<g>
		<path class="st1" d="M362.9,422.2C362.9,422.2,362.9,422.2,362.9,422.2c-0.1-0.1-0.2-0.1-0.2-0.2v-29.4c0-0.1,0-0.1,0.1-0.1
			c0,0,0.1,0,0.1,0c0,0,0.1,0,0.1,0l1.3,0.7c0.1,0,0.1,0.1,0.1,0.2v28.1c0,0.1,0,0.1-0.1,0.2L362.9,422.2
			C363,422.2,362.9,422.2,362.9,422.2z"/>
		<path class="st1" d="M362.9,392.6c0.4,0.2,0.9,0.5,1.3,0.7c0,9.4,0,18.7,0,28.1c-0.4,0.2-0.9,0.5-1.3,0.7V392.6 M362.9,392.2
			c-0.1,0-0.1,0-0.2,0c-0.1,0.1-0.2,0.2-0.2,0.3V422c0,0.1,0.1,0.2,0.2,0.3c0.1,0,0.1,0,0.2,0c0.1,0,0.1,0,0.2,0l0.7-0.3l0.7-0.3
			c0.1-0.1,0.2-0.2,0.2-0.3v-28.1c0-0.1-0.1-0.2-0.2-0.3l-1.3-0.7C363,392.3,363,392.2,362.9,392.2L362.9,392.2z"/>
	</g>
	<g>
		<path class="st1" d="M333.7,425.7c0,0-0.1,0-0.1,0c0,0-0.1-0.1-0.1-0.1v-37.5c0-0.1,0-0.1,0.1-0.1c0,0,0.1,0,0.1,0c0,0,0,0,0,0
			l2.8,0.9c0.1,0,0.1,0.1,0.1,0.2v35.7c0,0.1,0,0.1-0.1,0.2L333.7,425.7C333.7,425.7,333.7,425.7,333.7,425.7z"/>
		<path class="st1" d="M333.7,388.1c0.9,0.3,1.9,0.6,2.8,0.9c0,11.9,0,23.8,0,35.7c-0.9,0.3-1.9,0.6-2.8,0.9V388.1 M333.7,387.7
			c-0.1,0-0.1,0-0.2,0.1c-0.1,0.1-0.1,0.2-0.1,0.3v37.5c0,0.1,0.1,0.2,0.1,0.3c0.1,0,0.1,0.1,0.2,0.1c0,0,0.1,0,0.1,0l1.5-0.5
			l1.3-0.4c0.1,0,0.2-0.2,0.2-0.3V389c0-0.1-0.1-0.3-0.2-0.3l-1.2-0.4L333.7,387.7C333.7,387.7,333.7,387.7,333.7,387.7L333.7,387.7
			z"/>
	</g>
	<g>
		<path class="st1" d="M327.1,426.9c0,0-0.1,0-0.1,0c0,0-0.1-0.1-0.1-0.1v-39.6c0-0.1,0-0.1,0.1-0.1c0,0,0.1,0,0.1,0c0,0,0,0,0,0
			l3.4,0.9c0.1,0,0.1,0.1,0.1,0.2v37.8c0,0.1-0.1,0.1-0.1,0.2L327.1,426.9C327.1,426.9,327.1,426.9,327.1,426.9z"/>
		<path class="st1" d="M327.1,387.1c1.1,0.3,2.2,0.6,3.4,0.9c0,12.6,0,25.2,0,37.8c-1.1,0.3-2.2,0.6-3.4,0.9V387.1 M327.1,386.8
			c-0.1,0-0.1,0-0.2,0.1c-0.1,0.1-0.1,0.2-0.1,0.3v39.6c0,0.1,0,0.2,0.1,0.3c0.1,0,0.1,0.1,0.2,0.1c0,0,0.1,0,0.1,0l1.7-0.5l1.7-0.5
			c0.1,0,0.2-0.2,0.2-0.3V388c0-0.2-0.1-0.3-0.2-0.3l-0.9-0.2L327.1,386.8C327.1,386.8,327.1,386.8,327.1,386.8L327.1,386.8z"/>
	</g>
	<g>
		<path class="st1" d="M319.5,428.2c0,0-0.1,0-0.1,0c0,0-0.1-0.1-0.1-0.1v-42.3c0-0.1,0-0.1,0.1-0.1c0,0,0.1,0,0.1,0c0,0,0,0,0,0
			l3.4,1c0.1,0,0.1,0.1,0.1,0.2v40.4c0,0.1,0,0.1-0.1,0.2L319.5,428.2C319.5,428.2,319.5,428.2,319.5,428.2z"/>
		<path class="st1" d="M319.5,385.7c1.1,0.3,2.2,0.7,3.4,1c0,13.5,0,26.9,0,40.4c-1.1,0.3-2.2,0.7-3.4,1V385.7 M319.5,385.4
			c-0.1,0-0.1,0-0.2,0.1c-0.1,0.1-0.1,0.2-0.1,0.3v42.3c0,0.1,0.1,0.2,0.1,0.3c0.1,0,0.1,0.1,0.2,0.1c0,0,0.1,0,0.1,0l1.6-0.5
			l1.8-0.5c0.1,0,0.2-0.2,0.2-0.3v-40.4c0-0.2-0.1-0.3-0.2-0.3l-1.8-0.5L319.5,385.4C319.6,385.4,319.5,385.4,319.5,385.4
			L319.5,385.4z"/>
	</g>
</g>
<g>
	<g>
		<path class="st0" d="M300.2,503.8l-13.8-3.1c-0.1,0-0.1-0.1-0.1-0.2v-41.7c0-0.1,0.1-0.2,0.1-0.2l13.8-2.5c0,0,0,0,0,0
			c0,0,0.1,0,0.1,0c0,0,0.1,0.1,0.1,0.1v47.2c0,0.1,0,0.1-0.1,0.1C300.3,503.8,300.3,503.8,300.2,503.8
			C300.3,503.8,300.2,503.8,300.2,503.8z"/>
		<path class="st0" d="M300.3,456.4v47.2l-13.8-3.1v-41.7L300.3,456.4 M300.3,456.1C300.3,456.1,300.2,456.1,300.3,456.1l-13.8,2.5
			c-0.2,0-0.3,0.2-0.3,0.3v41.7c0,0.2,0.1,0.3,0.3,0.3l13.8,3.1c0,0,0,0,0.1,0c0.1,0,0.2,0,0.2-0.1c0.1-0.1,0.1-0.2,0.1-0.3v-47.2
			c0-0.1,0-0.2-0.1-0.3C300.4,456.1,300.3,456.1,300.3,456.1L300.3,456.1z"/>
	</g>
	<g>
		<path class="st0" d="M315.9,506.7l-12.9-2.9c-0.1,0-0.1-0.1-0.1-0.2v-47.2c0-0.1,0.1-0.2,0.1-0.2c0,0,12.9-2.1,12.9-2.1
			c0,0,0.1,0,0.1,0c0,0,0.1,0.1,0.1,0.1v52.2c0,0.1,0,0.1-0.1,0.1C316,506.7,315.9,506.7,315.9,506.7
			C315.9,506.7,315.9,506.7,315.9,506.7z"/>
		<path class="st0" d="M315.9,454.3v52.2l-12.9-2.9v-47.2L315.9,454.3 M315.9,453.9C315.9,453.9,315.9,453.9,315.9,453.9l-12.9,2.2
			c-0.2,0-0.3,0.2-0.3,0.3v47.2c0,0.2,0.1,0.3,0.3,0.3l12.9,2.9c0,0,0,0,0.1,0c0.1,0,0.2,0,0.2-0.1c0.1-0.1,0.1-0.2,0.1-0.3v-52.2
			c0-0.1,0-0.2-0.1-0.3C316.1,454,316,453.9,315.9,453.9L315.9,453.9z"/>
	</g>
	<g>
		<path class="st0" d="M318.7,506.7c0,0-0.1,0-0.1,0c0,0-0.1-0.1-0.1-0.1l1.1-52.2c0,0,0-0.1,0.1-0.1c0,0,0.1,0,0.1,0c0,0,0,0,0,0
			l49.4,9.5c0.1,0,0.1,0.1,0.1,0.2v32.5c0,0.1-0.1,0.1-0.1,0.2L318.7,506.7C318.7,506.7,318.7,506.7,318.7,506.7z"/>
		<path class="st0" d="M319.7,454.3l49.4,9.5v32.5l-50.5,10.2L319.7,454.3 M319.7,453.9c-0.1,0-0.2,0-0.2,0.1
			c-0.1,0.1-0.1,0.2-0.1,0.3l-1.1,52.2c0,0.1,0,0.2,0.1,0.3c0.1,0.1,0.1,0.1,0.2,0.1c0,0,0,0,0.1,0l50.5-10.2c0.2,0,0.3-0.2,0.3-0.3
			v-32.5c0-0.2-0.1-0.3-0.3-0.3L319.7,453.9C319.8,453.9,319.8,453.9,319.7,453.9L319.7,453.9z"/>
	</g>
	<path class="st1" d="M297.9,480.6H294c-0.7,0-1.2-0.5-1.2-1.2v0c0-0.7,0.5-1.2,1.2-1.2h3.9c0.7,0,1.2,0.5,1.2,1.2v0
		C299.1,480,298.6,480.6,297.9,480.6z"/>
	<path class="st1" d="M308.7,480.6h-3.9c-0.7,0-1.2-0.5-1.2-1.2v0c0-0.7,0.5-1.2,1.2-1.2h3.9c0.7,0,1.2,0.5,1.2,1.2v0
		C309.9,480,309.4,480.6,308.7,480.6z"/>
	<g>
		<path class="st1" d="M343.1,497.5c0,0-0.1,0-0.1,0c0,0-0.1-0.1-0.1-0.1v-35.8c0-0.1,0-0.1,0.1-0.1c0,0,0.1,0,0.1,0c0,0,0,0,0,0
			l2.8,0.8c0.1,0,0.1,0.1,0.1,0.2v34.2c0,0.1,0,0.1-0.1,0.2L343.1,497.5C343.1,497.5,343.1,497.5,343.1,497.5z"/>
		<path class="st1" d="M343.1,461.5c0.9,0.3,1.9,0.6,2.8,0.8c0,11.4,0,22.8,0,34.2c-0.9,0.3-1.9,0.6-2.8,0.8V461.5 M343.1,461.2
			c-0.1,0-0.1,0-0.2,0.1c-0.1,0.1-0.1,0.2-0.1,0.3v35.8c0,0.1,0.1,0.2,0.1,0.3c0.1,0,0.1,0.1,0.2,0.1c0,0,0.1,0,0.1,0l1.4-0.4
			l1.4-0.4c0.1,0,0.2-0.2,0.2-0.3v-34.2c0-0.2-0.1-0.3-0.2-0.3l-1.4-0.4L343.1,461.2C343.2,461.2,343.1,461.2,343.1,461.2
			L343.1,461.2z"/>
	</g>
	<g>
		<path class="st1" d="M348.9,496.7C348.9,496.7,348.9,496.7,348.9,496.7c-0.1-0.1-0.2-0.1-0.2-0.2v-34.2c0-0.1,0-0.1,0.1-0.1
			c0,0,0.1,0,0.1,0c0,0,0,0,0.1,0l2.2,0.8c0.1,0,0.1,0.1,0.1,0.2v32.6c0,0.1,0,0.1-0.1,0.2L348.9,496.7
			C349,496.7,349,496.7,348.9,496.7z"/>
		<path class="st1" d="M348.9,462.3c0.7,0.3,1.5,0.5,2.2,0.8c0,10.9,0,21.7,0,32.6c-0.7,0.3-1.5,0.5-2.2,0.8V462.3 M348.9,462
			c-0.1,0-0.1,0-0.2,0.1c-0.1,0.1-0.1,0.2-0.1,0.3v34.2c0,0.1,0.1,0.2,0.1,0.3c0.1,0,0.1,0.1,0.2,0.1c0,0,0.1,0,0.1,0l1.1-0.4
			l1.1-0.4c0.1,0,0.2-0.2,0.2-0.3v-32.6c0-0.1-0.1-0.3-0.2-0.3l-1.1-0.4l-1.1-0.4C349,462,349,462,348.9,462L348.9,462z"/>
	</g>
	<g>
		<path class="st1" d="M354.2,496.1C354.1,496.1,354.1,496.1,354.2,496.1c-0.1-0.1-0.2-0.1-0.2-0.2v-32.6c0-0.1,0-0.1,0.1-0.1
			c0,0,0.1,0,0.1,0c0,0,0,0,0.1,0l1.9,0.8c0.1,0,0.1,0.1,0.1,0.2v31.1c0,0.1,0,0.1-0.1,0.2L354.2,496.1
			C354.2,496.1,354.2,496.1,354.2,496.1z"/>
		<path class="st1" d="M354.2,463.3c0.6,0.3,1.2,0.5,1.9,0.8c0,10.4,0,20.7,0,31.1c-0.6,0.3-1.2,0.5-1.9,0.8V463.3 M354.2,463
			c-0.1,0-0.1,0-0.2,0.1c-0.1,0.1-0.1,0.2-0.1,0.3v32.6c0,0.1,0.1,0.2,0.1,0.3c0.1,0,0.1,0.1,0.2,0.1c0,0,0.1,0,0.1,0l0.9-0.4
			l0.9-0.4c0.1-0.1,0.2-0.2,0.2-0.3V464c0-0.1-0.1-0.3-0.2-0.3l-1.9-0.8C354.3,463,354.2,463,354.2,463L354.2,463z"/>
	</g>
	<g>
		<path class="st1" d="M358.5,495.3C358.5,495.3,358.4,495.3,358.5,495.3c-0.1-0.1-0.2-0.1-0.2-0.2v-31.1c0-0.1,0-0.1,0.1-0.1
			c0,0,0.1,0,0.1,0c0,0,0,0,0.1,0l1.7,0.7c0.1,0,0.1,0.1,0.1,0.2v29.6c0,0.1,0,0.1-0.1,0.2L358.5,495.3
			C358.5,495.3,358.5,495.3,358.5,495.3z"/>
		<path class="st1" d="M358.5,464.1c0.6,0.2,1.1,0.5,1.7,0.7c0,9.9,0,19.8,0,29.6c-0.6,0.2-1.1,0.5-1.7,0.7V464.1 M358.5,463.7
			c-0.1,0-0.1,0-0.2,0.1c-0.1,0.1-0.2,0.2-0.2,0.3v31.1c0,0.1,0.1,0.2,0.2,0.3c0.1,0,0.1,0.1,0.2,0.1c0,0,0.1,0,0.1,0l0.9-0.4
			l0.9-0.4c0.1-0.1,0.2-0.2,0.2-0.3v-29.6c0-0.1-0.1-0.3-0.2-0.3l-0.9-0.4l-0.9-0.4C358.6,463.8,358.5,463.7,358.5,463.7
			L358.5,463.7z"/>
	</g>
	<g>
		<path class="st1" d="M362.4,495C362.4,495,362.4,495,362.4,495c-0.1-0.1-0.2-0.1-0.2-0.2v-30.4c0-0.1,0-0.1,0.1-0.1
			c0,0,0.1,0,0.1,0c0,0,0.1,0,0.1,0l1.4,0.7c0.1,0,0.1,0.1,0.1,0.2v29c0,0.1,0,0.1-0.1,0.2L362.4,495C362.5,495,362.5,495,362.4,495
			z"/>
		<path class="st1" d="M362.4,464.5c0.5,0.2,0.9,0.5,1.4,0.7c0,9.7,0,19.3,0,29c-0.5,0.2-0.9,0.5-1.4,0.7V464.5 M362.4,464.1
			c-0.1,0-0.1,0-0.2,0c-0.1,0.1-0.2,0.2-0.2,0.3v30.4c0,0.1,0.1,0.2,0.2,0.3c0.1,0,0.1,0,0.2,0c0.1,0,0.1,0,0.2,0l0.7-0.4l0.7-0.4
			c0.1-0.1,0.2-0.2,0.2-0.3v-29c0-0.1-0.1-0.2-0.2-0.3l-1-0.5l-0.3-0.2C362.5,464.1,362.5,464.1,362.4,464.1L362.4,464.1z"/>
	</g>
	<g>
		<path class="st1" d="M366.3,494.8C366.2,494.8,366.2,494.8,366.3,494.8c-0.1-0.1-0.2-0.1-0.2-0.2v-29.4c0-0.1,0-0.1,0.1-0.1
			c0,0,0.1,0,0.1,0c0,0,0.1,0,0.1,0l1.3,0.7c0.1,0,0.1,0.1,0.1,0.2v28.1c0,0.1,0,0.1-0.1,0.2L366.3,494.8
			C366.3,494.8,366.3,494.8,366.3,494.8z"/>
		<path class="st1" d="M366.3,465.2c0.4,0.2,0.9,0.5,1.3,0.7c0,9.4,0,18.7,0,28.1c-0.4,0.2-0.9,0.5-1.3,0.7V465.2 M366.3,464.9
			c-0.1,0-0.1,0-0.2,0c-0.1,0.1-0.2,0.2-0.2,0.3v29.4c0,0.1,0.1,0.2,0.2,0.3c0.1,0,0.1,0,0.2,0c0.1,0,0.1,0,0.2,0l0.7-0.3l0.7-0.3
			c0.1-0.1,0.2-0.2,0.2-0.3v-28.1c0-0.1-0.1-0.2-0.2-0.3l-1.3-0.7C366.4,464.9,366.3,464.9,366.3,464.9L366.3,464.9z"/>
	</g>
	<g>
		<path class="st1" d="M337,498.3c0,0-0.1,0-0.1,0c0,0-0.1-0.1-0.1-0.1v-37.5c0-0.1,0-0.1,0.1-0.1c0,0,0.1,0,0.1,0c0,0,0,0,0,0
			l2.8,0.9c0.1,0,0.1,0.1,0.1,0.2v35.7c0,0.1,0,0.1-0.1,0.2L337,498.3C337,498.3,337,498.3,337,498.3z"/>
		<path class="st1" d="M337,460.7c0.9,0.3,1.9,0.6,2.8,0.9c0,11.9,0,23.8,0,35.7c-0.9,0.3-1.9,0.6-2.8,0.9V460.7 M337,460.4
			c-0.1,0-0.1,0-0.2,0.1c-0.1,0.1-0.1,0.2-0.1,0.3v37.5c0,0.1,0.1,0.2,0.1,0.3c0.1,0,0.1,0.1,0.2,0.1c0,0,0.1,0,0.1,0l1.5-0.5
			l1.3-0.4c0.1,0,0.2-0.2,0.2-0.3v-35.7c0-0.1-0.1-0.3-0.2-0.3l-1.2-0.4L337,460.4C337.1,460.4,337,460.4,337,460.4L337,460.4z"/>
	</g>
	<g>
		<path class="st1" d="M330.4,499.5c0,0-0.1,0-0.1,0c0,0-0.1-0.1-0.1-0.1v-39.6c0-0.1,0-0.1,0.1-0.1c0,0,0.1,0,0.1,0c0,0,0,0,0,0
			l3.4,0.9c0.1,0,0.1,0.1,0.1,0.2v37.8c0,0.1-0.1,0.1-0.1,0.2L330.4,499.5C330.4,499.5,330.4,499.5,330.4,499.5z"/>
		<path class="st1" d="M330.4,459.7c1.1,0.3,2.2,0.6,3.4,0.9c0,12.6,0,25.2,0,37.8c-1.1,0.3-2.2,0.6-3.4,0.9V459.7 M330.4,459.4
			c-0.1,0-0.1,0-0.2,0.1c-0.1,0.1-0.1,0.2-0.1,0.3v39.6c0,0.1,0,0.2,0.1,0.3c0.1,0,0.1,0.1,0.2,0.1c0,0,0.1,0,0.1,0l1.7-0.5l1.7-0.5
			c0.1,0,0.2-0.2,0.2-0.3v-37.8c0-0.2-0.1-0.3-0.2-0.3l-0.9-0.2L330.4,459.4C330.5,459.4,330.4,459.4,330.4,459.4L330.4,459.4z"/>
	</g>
	<g>
		<path class="st1" d="M322.9,500.9c0,0-0.1,0-0.1,0c0,0-0.1-0.1-0.1-0.1v-42.3c0-0.1,0-0.1,0.1-0.1c0,0,0.1,0,0.1,0c0,0,0,0,0,0
			l3.4,1c0.1,0,0.1,0.1,0.1,0.2v40.4c0,0.1,0,0.1-0.1,0.2L322.9,500.9C322.9,500.8,322.9,500.9,322.9,500.9z"/>
		<path class="st1" d="M322.9,458.3c1.1,0.3,2.2,0.7,3.4,1c0,13.5,0,26.9,0,40.4c-1.1,0.3-2.2,0.7-3.4,1V458.3 M322.9,458
			c-0.1,0-0.1,0-0.2,0.1c-0.1,0.1-0.1,0.2-0.1,0.3v42.3c0,0.1,0.1,0.2,0.1,0.3c0.1,0,0.1,0.1,0.2,0.1c0,0,0.1,0,0.1,0l1.6-0.5
			l1.8-0.5c0.1,0,0.2-0.2,0.2-0.3v-40.4c0-0.2-0.1-0.3-0.2-0.3l-1.8-0.5L322.9,458C322.9,458,322.9,458,322.9,458L322.9,458z"/>
	</g>
</g>
<g>
	<path class="st0" d="M499.6,353.1v22.5c0,5-4,9-9,9h-43.1c-5,0-9-4-9-9v-22.5c0-5,4-9,9-9h6.3l6.4-6.7h17.9l6,6.7h6.5
		C495.6,344.1,499.6,348.2,499.6,353.1z"/>
	<g>
		<path class="st1" d="M469,355.1c4.9,0,9,4,9,9s-4,9-9,9s-9-4-9-9S464.1,355.1,469,355.1 M469,349.9c-7.8,0-14.1,6.3-14.1,14.1
			c0,7.8,6.3,14.1,14.1,14.1s14.1-6.3,14.1-14.1C483.1,356.2,476.8,349.9,469,349.9L469,349.9z"/>
	</g>
</g>
<g>
	<path class="st3" d="M484.6,406.7v22.5c0,5-4,9-9,9h-43.1c-5,0-9-4-9-9v-22.5c0-5,4-9,9-9h6.3l6.4-6.7h17.9l6,6.7h6.5
		C480.5,397.6,484.6,401.7,484.6,406.7z"/>
	<g>
		<path class="st1" d="M454,408.6c4.9,0,9,4,9,9s-4,9-9,9s-9-4-9-9S449.1,408.6,454,408.6 M454,403.5c-7.8,0-14.1,6.3-14.1,14.1
			c0,7.8,6.3,14.1,14.1,14.1s14.1-6.3,14.1-14.1C468.1,409.8,461.8,403.5,454,403.5L454,403.5z"/>
	</g>
</g>
<g>
	<path class="st4" d="M512.6,427.4v22.5c0,5-4,9-9,9h-43.1c-5,0-9-4-9-9v-22.5c0-5,4-9,9-9h6.3l6.4-6.7h17.9l6,6.7h6.5
		C508.6,418.4,512.6,422.5,512.6,427.4z"/>
	<g>
		<path class="st1" d="M482.1,429.3c4.9,0,9,4,9,9s-4,9-9,9s-9-4-9-9S477.1,429.3,482.1,429.3 M482.1,424.2
			c-7.8,0-14.1,6.3-14.1,14.1c0,7.8,6.3,14.1,14.1,14.1s14.1-6.3,14.1-14.1C496.1,430.5,489.8,424.2,482.1,424.2L482.1,424.2z"/>
	</g>
</g>
<g>
	<path class="st5" d="M482.9,448.5V471c0,5-4,9-9,9h-43.1c-5,0-9-4-9-9v-22.5c0-5,4-9,9-9h6.3l6.4-6.7h17.9l6,6.7h6.5
		C478.9,439.5,482.9,443.5,482.9,448.5z"/>
	<g>
		<path class="st1" d="M452.4,450.4c4.9,0,9,4,9,9s-4,9-9,9s-9-4-9-9S447.4,450.4,452.4,450.4 M452.4,445.3
			c-7.8,0-14.1,6.3-14.1,14.1c0,7.8,6.3,14.1,14.1,14.1s14.1-6.3,14.1-14.1C466.4,451.6,460.1,445.3,452.4,445.3L452.4,445.3z"/>
	</g>
</g>
<g>
	<path class="st0" d="M513.7,472.7v22.5c0,5-4,9-9,9h-43.1c-5,0-9-4-9-9v-22.5c0-5,4-9,9-9h6.3l6.4-6.7h17.9l6,6.7h6.5
		C509.6,463.7,513.7,467.7,513.7,472.7z"/>
	<g>
		<path class="st1" d="M483.1,474.6c4.9,0,9,4,9,9s-4,9-9,9s-9-4-9-9S478.2,474.6,483.1,474.6 M483.1,469.5
			c-7.8,0-14.1,6.3-14.1,14.1c0,7.8,6.3,14.1,14.1,14.1s14.1-6.3,14.1-14.1C497.2,475.8,490.9,469.5,483.1,469.5L483.1,469.5z"/>
	</g>
</g>
<line class="st6" x1="219.5" y1="210.5" x2="263.7" y2="210.5"/>
<line class="st6" x1="531.1" y1="219.5" x2="585" y2="219.5"/>
<line class="st6" x1="594.6" y1="308.8" x2="594.6" y2="438.3"/>
<line class="st7" x1="512.6" y1="438.3" x2="594.6" y2="438.3"/>
<line class="st6" x1="519.5" y1="231" x2="519.5" y2="242.8"/>
<line class="st7" x1="437.6" y1="368.4" x2="388.8" y2="368.4"/>
<g>
	<rect x="619.8" y="229.8" class="st0" width="13.6" height="13.6"/>
	<rect x="636.8" y="229.8" class="st0" width="13.6" height="13.6"/>
	<rect x="653.8" y="229.8" class="st0" width="13.6" height="13.6"/>
	<rect x="670.8" y="229.8" class="st0" width="13.6" height="13.6"/>
	<rect x="687.8" y="229.8" class="st0" width="13.6" height="13.6"/>
	<rect x="670.8" y="213.4" class="st0" width="13.6" height="13.6"/>
	<rect x="653.8" y="213.4" class="st0" width="13.6" height="13.6"/>
	<rect x="636.8" y="213.4" class="st0" width="13.6" height="13.6"/>
	<rect x="670.8" y="197" class="st0" width="13.6" height="13.6"/>
	<path class="st0" d="M609.4,245.7h95.8c0,0,6.3-0.4,9-2.3c1.3-3.1-3.6-8.3-2.4-16.4c1.2-8.1,4.8-10.1,4.8-10.1s6.8,3.2,8.8,7.2
		l3.6,9.2c0,0,3.6-0.4,9.6,0s9.6,3.3,9.6,3.3s-1.5,7.7-7.6,11.1c-4.3,2.4-12.3-0.1-14.8,2.4c-2.5,2.5-13.4,26.2-28.2,34.6
		c-14.8,8.4-53.8,20.2-75-1S609.4,245.7,609.4,245.7z"/>
</g>
<g>
	<path d="M415,256.9c1.3-0.2,2.8-0.3,4.4-0.3c3,0,5.1,0.7,6.6,2c1.4,1.3,2.3,3.2,2.3,5.8c0,2.6-0.8,4.8-2.3,6.3
		c-1.5,1.5-4,2.3-7.2,2.3c-1.5,0-2.7-0.1-3.8-0.2V256.9z M417.1,271.2c0.5,0.1,1.3,0.1,2.1,0.1c4.5,0,6.9-2.5,6.9-6.9
		c0-3.8-2.1-6.2-6.6-6.2c-1.1,0-1.9,0.1-2.4,0.2V271.2z"/>
	<path d="M441.6,267c0,4.3-3,6.2-5.8,6.2c-3.1,0-5.6-2.3-5.6-6c0-3.9,2.5-6.2,5.8-6.2C439.3,261,441.6,263.4,441.6,267z
		 M432.3,267.1c0,2.5,1.5,4.5,3.5,4.5c2,0,3.5-1.9,3.5-4.5c0-2-1-4.5-3.5-4.5S432.3,264.9,432.3,267.1z"/>
	<path d="M452.5,272.4c-0.6,0.3-1.8,0.7-3.3,0.7c-3.5,0-5.8-2.4-5.8-5.9c0-3.6,2.4-6.2,6.2-6.2c1.2,0,2.4,0.3,2.9,0.6l-0.5,1.6
		c-0.5-0.3-1.3-0.6-2.4-0.6c-2.7,0-4.1,2-4.1,4.4c0,2.7,1.7,4.3,4,4.3c1.2,0,2-0.3,2.6-0.6L452.5,272.4z"/>
	<path d="M457.1,266.6L457.1,266.6c0.3-0.4,0.7-0.9,1.1-1.3l3.4-4h2.5l-4.5,4.8l5.1,6.8h-2.6l-4-5.6l-1.1,1.2v4.4H455v-17h2.1V266.6
		z"/>
	<path d="M467.4,267.5c0,2.9,1.9,4,4,4c1.5,0,2.4-0.3,3.2-0.6l0.4,1.5c-0.7,0.3-2,0.7-3.9,0.7c-3.6,0-5.7-2.4-5.7-5.9
		c0-3.5,2.1-6.3,5.4-6.3c3.8,0,4.8,3.3,4.8,5.5c0,0.4,0,0.8-0.1,1H467.4z M473.6,265.9c0-1.3-0.6-3.4-2.9-3.4c-2.1,0-3.1,2-3.2,3.4
		H473.6z"/>
	<path d="M478.2,264.9c0-1.4,0-2.5-0.1-3.6h1.8l0.1,2.3h0.1c0.5-1.6,1.8-2.5,3.2-2.5c0.2,0,0.4,0,0.6,0.1v2c-0.2,0-0.4-0.1-0.7-0.1
		c-1.5,0-2.5,1.1-2.8,2.7c0,0.3-0.1,0.6-0.1,1v6.2h-2.1V264.9z"/>
	<path d="M491.4,272.9v-10h-1.6v-1.6h1.6v-0.6c0-3.1,1.8-5.1,5.1-5.1c1.1,0,2.4,0.3,3,0.8l-0.6,1.6c-0.5-0.4-1.4-0.7-2.4-0.7
		c-2.2,0-2.9,1.6-2.9,3.4v0.6h6.7v11.6h-2.1v-10h-4.7v10H491.4z"/>
	<path d="M503.7,255.8h2.1v17h-2.1V255.8z"/>
	<path d="M510.6,267.5c0,2.9,1.9,4,4,4c1.5,0,2.4-0.3,3.2-0.6l0.4,1.5c-0.7,0.3-2,0.7-3.9,0.7c-3.6,0-5.7-2.4-5.7-5.9
		c0-3.5,2.1-6.3,5.4-6.3c3.8,0,4.8,3.3,4.8,5.5c0,0.4,0,0.8-0.1,1H510.6z M516.8,265.9c0-1.3-0.6-3.4-2.9-3.4c-2.1,0-3.1,2-3.2,3.4
		H516.8z"/>
</g>
<line class="st6" x1="518.8" y1="289.9" x2="518.8" y2="301.6"/>
</svg>
