<?xml version="1.0" encoding="utf-8"?>
<!-- Generator: Adobe Illustrator 25.0.1, SVG Export Plug-In . SVG Version: 6.00 Build 0)  -->
<svg version="1.1" id="Layer_1" xmlns="http://www.w3.org/2000/svg" xmlns:xlink="http://www.w3.org/1999/xlink" x="0px" y="0px"
	 viewBox="0 0 792 612" style="enable-background:new 0 0 792 612;" xml:space="preserve">
<style type="text/css">
	.st0{fill:none;stroke:#6D6E71;stroke-width:3;stroke-miterlimit:10;}
	.st1{fill:#FFFFFF;stroke:#6D6E71;stroke-width:3;stroke-miterlimit:10;}
	.st2{fill:#002E32;}
	.st3{fill:#FFFFFF;}
	.st4{fill:#FFFFFF;stroke:#00697B;stroke-width:3;stroke-miterlimit:10;}
	.st5{fill:#00697B;}
</style>
<line class="st0" x1="422.4" y1="204.8" x2="444.4" y2="276.2"/>
<circle class="st1" cx="387.4" cy="116.4" r="96.5"/>
<circle class="st2" cx="387.5" cy="116.4" r="84.8"/>
<g>
	<path class="st3" d="M379.1,101.4v15.4c0,5.8,2.6,8.3,6.1,8.3c3.9,0,6.3-2.6,6.3-8.3v-15.4h3.4v15.2c0,8-4.2,11.3-9.9,11.3
		c-5.3,0-9.4-3.1-9.4-11.1v-15.4H379.1z"/>
	<path class="st3" d="M404.1,101.4v26.1h-3.4v-26.1H404.1z"/>
</g>
<g>
	<circle class="st4" cx="323.5" cy="467.3" r="44.1"/>
	<g>
		<path class="st1" d="M336.2,489.7h-25.4c-5.1,0-9.2-4.1-9.2-9.2v-25.4c0-5.1,4.1-9.2,9.2-9.2h25.4c5.1,0,9.2,4.1,9.2,9.2v25.4
			C345.4,485.6,341.3,489.7,336.2,489.7z"/>
		<line class="st0" x1="301.7" y1="460.1" x2="345.3" y2="460.1"/>
		<line class="st0" x1="301.7" y1="475.8" x2="345.3" y2="475.8"/>
		<circle class="st1" cx="308.9" cy="453.6" r="1.3"/>
		<circle class="st1" cx="308.9" cy="468.6" r="1.3"/>
		<circle class="st1" cx="308.9" cy="482.9" r="1.3"/>
	</g>
</g>
<g>
	<circle class="st4" cx="198.1" cy="467.3" r="44.1"/>
	<g>
		<path class="st1" d="M210.8,489.2h-25.4c-5.1,0-9.2-4.1-9.2-9.2v-25.4c0-5.1,4.1-9.2,9.2-9.2h25.4c5.1,0,9.2,4.1,9.2,9.2V480
			C220,485.1,215.9,489.2,210.8,489.2z"/>
		<line class="st0" x1="176.3" y1="460.1" x2="219.9" y2="460.1"/>
		<line class="st0" x1="176.3" y1="475.8" x2="219.9" y2="475.8"/>
		<circle class="st1" cx="183.4" cy="453.6" r="1.3"/>
		<circle class="st1" cx="183.4" cy="468.6" r="1.3"/>
		<circle class="st1" cx="183.4" cy="482.9" r="1.3"/>
	</g>
</g>
<line class="st0" x1="325.1" y1="380.5" x2="325.1" y2="423.3"/>
<line class="st0" x1="460" y1="380.5" x2="460" y2="423.3"/>
<line class="st0" x1="198.1" y1="298.8" x2="198.1" y2="423.3"/>
<line class="st0" x1="593.4" y1="298.8" x2="593.4" y2="423.3"/>
<g>
	<circle class="st5" cx="653.2" cy="116.4" r="54"/>
	<g>
		<path class="st3" d="M652.7,118.2c-0.2-4-0.5-8.8-0.4-12.4h-0.1c-1,3.4-2.2,7-3.6,10.9l-5.1,14h-2.8l-4.7-13.7
			c-1.4-4.1-2.5-7.8-3.3-11.2h-0.1c-0.1,3.6-0.3,8.4-0.6,12.7l-0.8,12.3h-3.5l2-28.8h4.7l4.9,13.9c1.2,3.5,2.2,6.7,2.9,9.7h0.1
			c0.7-2.9,1.8-6.1,3-9.7l5.1-13.9h4.7l1.8,28.8h-3.6L652.7,118.2z"/>
		<path class="st3" d="M662.3,126.3c1.7,1,4.1,1.9,6.7,1.9c3.8,0,6-2,6-4.9c0-2.7-1.5-4.2-5.4-5.7c-4.7-1.7-7.6-4.1-7.6-8.2
			c0-4.5,3.7-7.8,9.3-7.8c2.9,0,5.1,0.7,6.4,1.4l-1,3c-0.9-0.5-2.9-1.4-5.5-1.4c-3.9,0-5.4,2.4-5.4,4.3c0,2.7,1.8,4,5.7,5.6
			c4.9,1.9,7.3,4.2,7.3,8.5c0,4.4-3.3,8.3-10.1,8.3c-2.8,0-5.8-0.8-7.3-1.8L662.3,126.3z"/>
	</g>
</g>
<g>
	<circle class="st5" cx="119.7" cy="116.4" r="54"/>
	<g>
		<path class="st3" d="M119.2,118.1c-0.2-4-0.5-8.8-0.4-12.4h-0.1c-1,3.4-2.2,7-3.6,10.9l-5.1,14h-2.8l-4.7-13.7
			c-1.4-4.1-2.5-7.8-3.3-11.2H99c-0.1,3.6-0.3,8.4-0.6,12.7l-0.8,12.3h-3.5l2-28.8h4.7l4.9,13.9c1.2,3.5,2.2,6.7,2.9,9.7h0.1
			c0.7-2.9,1.8-6.1,3-9.7L117,102h4.7l1.8,28.8h-3.6L119.2,118.1z"/>
		<path class="st3" d="M128.8,126.3c1.7,1,4.1,1.9,6.7,1.9c3.8,0,6-2,6-4.9c0-2.7-1.5-4.2-5.4-5.7c-4.7-1.7-7.6-4.1-7.6-8.2
			c0-4.5,3.7-7.8,9.3-7.8c2.9,0,5.1,0.7,6.4,1.4l-1,3c-0.9-0.5-2.9-1.4-5.5-1.4c-3.9,0-5.4,2.4-5.4,4.3c0,2.7,1.8,4,5.7,5.6
			c4.9,1.9,7.3,4.2,7.3,8.5c0,4.4-3.3,8.3-10.1,8.3c-2.8,0-5.8-0.8-7.3-1.8L128.8,126.3z"/>
	</g>
</g>
<g>
	<circle class="st5" cx="198.1" cy="244.8" r="54"/>
	<g>
		<path class="st3" d="M197.6,246.6c-0.2-4-0.5-8.8-0.4-12.4H197c-1,3.4-2.2,7-3.6,10.9l-5.1,14h-2.8l-4.7-13.7
			c-1.4-4.1-2.5-7.8-3.3-11.2h-0.1c-0.1,3.6-0.3,8.4-0.6,12.7l-0.8,12.3h-3.5l2-28.8h4.7l4.9,13.9c1.2,3.5,2.2,6.7,2.9,9.7h0.1
			c0.7-2.9,1.8-6.1,3-9.7l5.1-13.9h4.7l1.8,28.8h-3.6L197.6,246.6z"/>
		<path class="st3" d="M207.2,254.7c1.7,1,4.1,1.9,6.7,1.9c3.8,0,6-2,6-4.9c0-2.7-1.5-4.2-5.4-5.7c-4.7-1.7-7.6-4.1-7.6-8.2
			c0-4.5,3.7-7.8,9.3-7.8c2.9,0,5.1,0.7,6.4,1.4l-1,3c-0.9-0.5-2.9-1.4-5.5-1.4c-3.9,0-5.4,2.4-5.4,4.3c0,2.7,1.8,4,5.7,5.6
			c4.9,1.9,7.3,4.2,7.3,8.5c0,4.4-3.3,8.3-10.1,8.3c-2.8,0-5.8-0.8-7.3-1.8L207.2,254.7z"/>
	</g>
</g>
<g>
	<circle class="st5" cx="593.4" cy="244.8" r="54"/>
	<g>
		<path class="st3" d="M592.9,246.6c-0.2-4-0.5-8.8-0.4-12.4h-0.1c-1,3.4-2.2,7-3.6,10.9l-5.1,14h-2.8l-4.7-13.7
			c-1.4-4.1-2.5-7.8-3.3-11.2h-0.1c-0.1,3.6-0.3,8.4-0.6,12.7l-0.8,12.3h-3.5l2-28.8h4.7l4.9,13.9c1.2,3.5,2.2,6.7,2.9,9.7h0.1
			c0.7-2.9,1.8-6.1,3-9.7l5.1-13.9h4.7l1.8,28.8h-3.6L592.9,246.6z"/>
		<path class="st3" d="M602.4,254.7c1.7,1,4.1,1.9,6.7,1.9c3.8,0,6-2,6-4.9c0-2.7-1.5-4.2-5.4-5.7c-4.7-1.7-7.6-4.1-7.6-8.2
			c0-4.5,3.7-7.8,9.3-7.8c2.9,0,5.1,0.7,6.4,1.4l-1,3c-0.9-0.5-2.9-1.4-5.5-1.4c-3.9,0-5.4,2.4-5.4,4.3c0,2.7,1.8,4,5.7,5.6
			c4.9,1.9,7.3,4.2,7.3,8.5c0,4.4-3.3,8.3-10.1,8.3c-2.8,0-5.8-0.8-7.3-1.8L602.4,254.7z"/>
	</g>
</g>
<g>
	<circle class="st5" cx="460" cy="326.4" r="54"/>
	<g>
		<path class="st3" d="M459.4,328.2c-0.2-4-0.5-8.8-0.4-12.4h-0.1c-1,3.4-2.2,7-3.6,10.9l-5.1,14h-2.8l-4.7-13.7
			c-1.4-4.1-2.5-7.8-3.3-11.2h-0.1c-0.1,3.6-0.3,8.4-0.6,12.7l-0.8,12.3h-3.5l2-28.8h4.7l4.9,13.9c1.2,3.5,2.2,6.7,2.9,9.7h0.1
			c0.7-2.9,1.8-6.1,3-9.7l5.1-13.9h4.7l1.8,28.8h-3.6L459.4,328.2z"/>
		<path class="st3" d="M469,336.3c1.7,1,4.1,1.9,6.7,1.9c3.8,0,6-2,6-4.9c0-2.7-1.5-4.2-5.4-5.7c-4.7-1.7-7.6-4.1-7.6-8.2
			c0-4.5,3.7-7.8,9.3-7.8c2.9,0,5.1,0.7,6.4,1.4l-1,3c-0.9-0.5-2.9-1.4-5.5-1.4c-3.9,0-5.4,2.4-5.4,4.3c0,2.7,1.8,4,5.7,5.6
			c4.9,1.9,7.3,4.2,7.3,8.5c0,4.4-3.3,8.3-10.1,8.3c-2.8,0-5.8-0.8-7.3-1.8L469,336.3z"/>
	</g>
</g>
<g>
	<circle class="st5" cx="323.5" cy="326.4" r="54"/>
	<g>
		<path class="st3" d="M323,328.2c-0.2-4-0.5-8.8-0.4-12.4h-0.1c-1,3.4-2.2,7-3.6,10.9l-5.1,14h-2.8l-4.7-13.7
			c-1.4-4.1-2.5-7.8-3.3-11.2h-0.1c-0.1,3.6-0.3,8.4-0.6,12.7l-0.8,12.3H298l2-28.8h4.7l4.9,13.9c1.2,3.5,2.2,6.7,2.9,9.7h0.1
			c0.7-2.9,1.8-6.1,3-9.7l5.1-13.9h4.7l1.8,28.8h-3.6L323,328.2z"/>
		<path class="st3" d="M332.6,336.3c1.7,1,4.1,1.9,6.7,1.9c3.8,0,6-2,6-4.9c0-2.7-1.5-4.2-5.4-5.7c-4.7-1.7-7.6-4.1-7.6-8.2
			c0-4.5,3.7-7.8,9.3-7.8c2.9,0,5.1,0.7,6.4,1.4l-1,3c-0.9-0.5-2.9-1.4-5.5-1.4c-3.9,0-5.4,2.4-5.4,4.3c0,2.7,1.8,4,5.7,5.6
			c4.9,1.9,7.3,4.2,7.3,8.5c0,4.4-3.3,8.3-10.1,8.3c-2.8,0-5.8-0.8-7.3-1.8L332.6,336.3z"/>
	</g>
</g>
<g>
	<path class="st3" d="M201.2,573.4c-0.2-3.8-0.4-8.3-0.4-11.6h-0.1c-0.9,3.2-2,6.5-3.4,10.2l-4.8,13.1h-2.6l-4.4-12.8
		c-1.3-3.8-2.4-7.3-3.1-10.5h-0.1c-0.1,3.4-0.3,7.9-0.5,11.9l-0.7,11.6h-3.3l1.9-27h4.4l4.6,13c1.1,3.3,2,6.3,2.7,9.1h0.1
		c0.7-2.7,1.6-5.7,2.8-9.1l4.8-13h4.4l1.7,27h-3.4L201.2,573.4z"/>
	<path class="st3" d="M214.9,560.5c0,1.2-0.8,2.2-2.2,2.2c-1.2,0-2.1-1-2.1-2.2c0-1.2,0.9-2.2,2.2-2.2
		C214.1,558.3,214.9,559.2,214.9,560.5z M211,585.3v-19.4h3.5v19.4H211z"/>
	<path class="st3" d="M234.1,584.6c-0.9,0.5-3,1.1-5.6,1.1c-5.8,0-9.6-4-9.6-9.9c0-6,4.1-10.3,10.4-10.3c2.1,0,3.9,0.5,4.9,1
		l-0.8,2.7c-0.8-0.5-2.2-0.9-4.1-0.9c-4.4,0-6.8,3.3-6.8,7.3c0,4.5,2.9,7.2,6.7,7.2c2,0,3.3-0.5,4.3-1L234.1,584.6z"/>
	<path class="st3" d="M238.3,572c0-2.3,0-4.2-0.2-6h3.1l0.1,3.8h0.2c0.9-2.6,3-4.2,5.4-4.2c0.4,0,0.7,0,1,0.1v3.3
		c-0.4-0.1-0.7-0.1-1.2-0.1c-2.5,0-4.2,1.9-4.7,4.5c-0.1,0.5-0.2,1-0.2,1.6v10.3h-3.5V572z"/>
	<path class="st3" d="M268.5,575.4c0,7.2-5,10.3-9.6,10.3c-5.2,0-9.3-3.8-9.3-10c0-6.5,4.2-10.3,9.6-10.3
		C264.7,565.5,268.5,569.5,268.5,575.4z M253.1,575.6c0,4.2,2.4,7.4,5.9,7.4c3.4,0,5.9-3.2,5.9-7.5c0-3.3-1.6-7.4-5.8-7.4
		S253.1,572,253.1,575.6z"/>
	<path class="st3" d="M272.4,581.7c1,0.7,2.9,1.4,4.6,1.4c2.6,0,3.8-1.3,3.8-2.9c0-1.7-1-2.6-3.6-3.6c-3.5-1.2-5.1-3.2-5.1-5.5
		c0-3.1,2.5-5.7,6.7-5.7c2,0,3.7,0.6,4.8,1.2l-0.9,2.6c-0.8-0.5-2.2-1.1-4-1.1c-2.1,0-3.2,1.2-3.2,2.6c0,1.6,1.2,2.3,3.7,3.3
		c3.4,1.3,5.1,3,5.1,5.8c0,3.4-2.6,5.8-7.2,5.8c-2.1,0-4.1-0.5-5.4-1.3L272.4,581.7z"/>
	<path class="st3" d="M290.7,576.2c0.1,4.8,3.1,6.7,6.6,6.7c2.5,0,4-0.4,5.4-1l0.6,2.5c-1.2,0.6-3.4,1.2-6.4,1.2
		c-6,0-9.5-3.9-9.5-9.8s3.4-10.4,9.1-10.4c6.3,0,8,5.6,8,9.1c0,0.7-0.1,1.3-0.1,1.6H290.7z M301,573.7c0-2.2-0.9-5.7-4.9-5.7
		c-3.6,0-5.1,3.3-5.4,5.7H301z"/>
	<path class="st3" d="M308.8,572c0-2.3,0-4.2-0.2-6h3.1l0.1,3.8h0.2c0.9-2.6,3-4.2,5.4-4.2c0.4,0,0.7,0,1,0.1v3.3
		c-0.4-0.1-0.7-0.1-1.2-0.1c-2.5,0-4.2,1.9-4.7,4.5c-0.1,0.5-0.2,1-0.2,1.6v10.3h-3.5V572z"/>
	<path class="st3" d="M324.2,565.9l3.8,10.9c0.6,1.8,1.2,3.4,1.6,5h0.1c0.4-1.6,1-3.2,1.6-5l3.8-10.9h3.7l-7.6,19.4h-3.4l-7.4-19.4
		H324.2z"/>
	<path class="st3" d="M346,560.5c0,1.2-0.8,2.2-2.2,2.2c-1.2,0-2.1-1-2.1-2.2c0-1.2,0.9-2.2,2.2-2.2
		C345.2,558.3,346,559.2,346,560.5z M342.1,585.3v-19.4h3.5v19.4H342.1z"/>
	<path class="st3" d="M365.3,584.6c-0.9,0.5-3,1.1-5.6,1.1c-5.8,0-9.6-4-9.6-9.9c0-6,4.1-10.3,10.4-10.3c2.1,0,3.9,0.5,4.9,1
		l-0.8,2.7c-0.8-0.5-2.2-0.9-4.1-0.9c-4.4,0-6.8,3.3-6.8,7.3c0,4.5,2.9,7.2,6.7,7.2c2,0,3.3-0.5,4.3-1L365.3,584.6z"/>
	<path class="st3" d="M371.1,576.2c0.1,4.8,3.1,6.7,6.6,6.7c2.5,0,4-0.4,5.4-1l0.6,2.5c-1.2,0.6-3.4,1.2-6.4,1.2
		c-6,0-9.5-3.9-9.5-9.8s3.4-10.4,9.1-10.4c6.3,0,8,5.6,8,9.1c0,0.7-0.1,1.3-0.1,1.6H371.1z M381.4,573.7c0-2.2-0.9-5.7-4.9-5.7
		c-3.6,0-5.1,3.3-5.4,5.7H381.4z"/>
	<path class="st3" d="M388.7,581.7c1,0.7,2.9,1.4,4.6,1.4c2.6,0,3.8-1.3,3.8-2.9c0-1.7-1-2.6-3.6-3.6c-3.5-1.2-5.1-3.2-5.1-5.5
		c0-3.1,2.5-5.7,6.7-5.7c2,0,3.7,0.6,4.8,1.2l-0.9,2.6c-0.8-0.5-2.2-1.1-4-1.1c-2.1,0-3.2,1.2-3.2,2.6c0,1.6,1.2,2.3,3.7,3.3
		c3.4,1.3,5.1,3,5.1,5.8c0,3.4-2.6,5.8-7.2,5.8c-2.1,0-4.1-0.5-5.4-1.3L388.7,581.7z"/>
	<path class="st3" d="M418,576.8l-2.8,8.5h-3.6l9.2-27h4.2l9.2,27h-3.7l-2.9-8.5H418z M426.8,574.1l-2.6-7.8c-0.6-1.8-1-3.4-1.4-4.9
		h-0.1c-0.4,1.6-0.8,3.2-1.4,4.9l-2.6,7.8H426.8z"/>
	<path class="st3" d="M437.9,572c0-2.3,0-4.2-0.2-6h3.1l0.1,3.8h0.2c0.9-2.6,3-4.2,5.4-4.2c0.4,0,0.7,0,1,0.1v3.3
		c-0.4-0.1-0.7-0.1-1.2-0.1c-2.5,0-4.2,1.9-4.7,4.5c-0.1,0.5-0.2,1-0.2,1.6v10.3h-3.5V572z"/>
	<path class="st3" d="M464.3,584.6c-0.9,0.5-3,1.1-5.6,1.1c-5.8,0-9.6-4-9.6-9.9c0-6,4.1-10.3,10.4-10.3c2.1,0,3.9,0.5,4.9,1
		l-0.8,2.7c-0.8-0.5-2.2-0.9-4.1-0.9c-4.4,0-6.8,3.3-6.8,7.3c0,4.5,2.9,7.2,6.7,7.2c2,0,3.3-0.5,4.3-1L464.3,584.6z"/>
	<path class="st3" d="M468.5,556.9h3.5V569h0.1c0.6-1,1.4-1.9,2.5-2.5c1-0.6,2.3-1,3.6-1c2.6,0,6.8,1.6,6.8,8.3v11.5h-3.5v-11.1
		c0-3.1-1.2-5.8-4.5-5.8c-2.3,0-4.1,1.6-4.7,3.5c-0.2,0.5-0.2,1-0.2,1.7v11.7h-3.5V556.9z"/>
	<path class="st3" d="M494.6,560.5c0,1.2-0.8,2.2-2.2,2.2c-1.2,0-2.1-1-2.1-2.2c0-1.2,0.9-2.2,2.2-2.2
		C493.7,558.3,494.6,559.2,494.6,560.5z M490.7,585.3v-19.4h3.5v19.4H490.7z"/>
	<path class="st3" d="M504.3,560.4v5.6h5v2.7h-5V579c0,2.4,0.7,3.8,2.6,3.8c0.9,0,1.6-0.1,2-0.2l0.2,2.6c-0.7,0.3-1.8,0.5-3.1,0.5
		c-1.6,0-3-0.5-3.8-1.5c-1-1-1.4-2.8-1.4-5v-10.6h-3v-2.7h3v-4.6L504.3,560.4z"/>
	<path class="st3" d="M515,576.2c0.1,4.8,3.1,6.7,6.6,6.7c2.5,0,4-0.4,5.4-1l0.6,2.5c-1.2,0.6-3.4,1.2-6.4,1.2c-6,0-9.5-3.9-9.5-9.8
		s3.4-10.4,9.1-10.4c6.3,0,8,5.6,8,9.1c0,0.7-0.1,1.3-0.1,1.6H515z M525.3,573.7c0-2.2-0.9-5.7-4.9-5.7c-3.6,0-5.1,3.3-5.4,5.7
		H525.3z"/>
	<path class="st3" d="M546.9,584.6c-0.9,0.5-3,1.1-5.6,1.1c-5.8,0-9.6-4-9.6-9.9c0-6,4.1-10.3,10.4-10.3c2.1,0,3.9,0.5,4.9,1
		l-0.8,2.7c-0.8-0.5-2.2-0.9-4.1-0.9c-4.4,0-6.8,3.3-6.8,7.3c0,4.5,2.9,7.2,6.7,7.2c2,0,3.3-0.5,4.3-1L546.9,584.6z"/>
	<path class="st3" d="M555.7,560.4v5.6h5v2.7h-5V579c0,2.4,0.7,3.8,2.6,3.8c0.9,0,1.6-0.1,2-0.2l0.2,2.6c-0.7,0.3-1.8,0.5-3.1,0.5
		c-1.6,0-3-0.5-3.8-1.5c-1-1-1.4-2.8-1.4-5v-10.6h-3v-2.7h3v-4.6L555.7,560.4z"/>
	<path class="st3" d="M580.9,580c0,2,0,3.8,0.2,5.3H578l-0.2-3.2h-0.1c-0.9,1.6-3,3.6-6.4,3.6c-3,0-6.7-1.7-6.7-8.5v-11.3h3.5v10.7
		c0,3.7,1.1,6.2,4.3,6.2c2.4,0,4-1.6,4.6-3.2c0.2-0.5,0.3-1.2,0.3-1.8v-11.9h3.5V580z"/>
	<path class="st3" d="M586.8,572c0-2.3,0-4.2-0.2-6h3.1l0.1,3.8h0.2c0.9-2.6,3-4.2,5.4-4.2c0.4,0,0.7,0,1,0.1v3.3
		c-0.4-0.1-0.7-0.1-1.2-0.1c-2.5,0-4.2,1.9-4.7,4.5c-0.1,0.5-0.2,1-0.2,1.6v10.3h-3.5V572z"/>
	<path class="st3" d="M601.4,576.2c0.1,4.8,3.1,6.7,6.6,6.7c2.5,0,4-0.4,5.4-1l0.6,2.5c-1.2,0.6-3.4,1.2-6.4,1.2
		c-6,0-9.5-3.9-9.5-9.8s3.4-10.4,9.1-10.4c6.3,0,8,5.6,8,9.1c0,0.7-0.1,1.3-0.1,1.6H601.4z M611.7,573.7c0-2.2-0.9-5.7-4.9-5.7
		c-3.6,0-5.1,3.3-5.4,5.7H611.7z"/>
</g>
<line class="st0" x1="290.9" y1="116.4" x2="173.8" y2="116.4"/>
<line class="st0" x1="307.5" y1="170.6" x2="242.2" y2="212.9"/>
<line class="st0" x1="356.6" y1="207.9" x2="340.4" y2="275.1"/>
<line class="st0" x1="468.1" y1="169.5" x2="553.9" y2="207.9"/>
<line class="st0" x1="484" y1="116.4" x2="599.2" y2="116.4"/>
<g>
	<circle class="st4" cx="593.4" cy="467.3" r="44.1"/>
	<g>
		<path class="st1" d="M606,489.7h-25.4c-5.1,0-9.2-4.1-9.2-9.2v-25.4c0-5.1,4.1-9.2,9.2-9.2H606c5.1,0,9.2,4.1,9.2,9.2v25.4
			C615.2,485.6,611.1,489.7,606,489.7z"/>
		<line class="st0" x1="571.5" y1="460.1" x2="615.1" y2="460.1"/>
		<line class="st0" x1="571.5" y1="475.8" x2="615.1" y2="475.8"/>
		<circle class="st1" cx="578.7" cy="453.6" r="1.3"/>
		<circle class="st1" cx="578.7" cy="468.6" r="1.3"/>
		<circle class="st1" cx="578.7" cy="482.9" r="1.3"/>
	</g>
</g>
<g>
	<circle class="st4" cx="462.6" cy="467.3" r="44.1"/>
	<g>
		<path class="st1" d="M475.3,489.2h-25.4c-5.1,0-9.2-4.1-9.2-9.2v-25.4c0-5.1,4.1-9.2,9.2-9.2h25.4c5.1,0,9.2,4.1,9.2,9.2V480
			C484.4,485.1,480.3,489.2,475.3,489.2z"/>
		<line class="st0" x1="440.7" y1="460.1" x2="484.3" y2="460.1"/>
		<line class="st0" x1="440.7" y1="475.8" x2="484.3" y2="475.8"/>
		<circle class="st1" cx="447.9" cy="453.6" r="1.3"/>
		<circle class="st1" cx="447.9" cy="468.6" r="1.3"/>
		<circle class="st1" cx="447.9" cy="482.9" r="1.3"/>
	</g>
</g>
</svg>
