<?xml version="1.0" encoding="utf-8"?>
<!-- Generator: Adobe Illustrator 25.0.1, SVG Export Plug-In . SVG Version: 6.00 Build 0)  -->
<svg version="1.1" id="Layer_1" xmlns="http://www.w3.org/2000/svg" xmlns:xlink="http://www.w3.org/1999/xlink" x="0px" y="0px"
	 viewBox="0 0 612 792" style="enable-background:new 0 0 612 792;" xml:space="preserve">
<style type="text/css">
	.st0{fill:#FFFFFF;stroke:#6D6E71;stroke-width:3;stroke-miterlimit:10;}
	.st1{fill:#002E32;}
	.st2{fill:#009FAD;}
	.st3{fill:#00697B;}
	.st4{fill:#FFFFFF;}
	.st5{fill:#FFFFFF;stroke:#00697B;stroke-width:3;stroke-miterlimit:10;}
	.st6{fill:none;stroke:#6D6E71;stroke-width:3;stroke-miterlimit:10;}
	.st7{fill:#E6E7E8;}
</style>
<circle class="st0" cx="313.1" cy="274.5" r="246.1"/>
<circle class="st1" cx="313.1" cy="184.2" r="105.3"/>
<circle class="st2" cx="220" cy="315.5" r="105.3"/>
<circle class="st3" cx="406.3" cy="315.5" r="105.3"/>
<g>
	<path class="st4" d="M299.7,151.8V171c0,7.2,3.2,10.3,7.5,10.3c4.8,0,7.9-3.2,7.9-10.3v-19.2h4.2v18.9c0,9.9-5.2,14-12.2,14
		c-6.6,0-11.6-3.8-11.6-13.8v-19.1H299.7z"/>
	<path class="st4" d="M330.8,151.8v32.4h-4.2v-32.4H330.8z"/>
</g>
<g>
	<path class="st4" d="M147.3,285.4c1.5-0.3,3.9-0.6,6.4-0.6c3.5,0,5.7,0.6,7.4,2c1.4,1,2.2,2.6,2.2,4.8c0,2.6-1.7,4.9-4.6,5.9v0.1
		c2.6,0.6,5.6,2.8,5.6,6.8c0,2.3-0.9,4.1-2.3,5.4c-1.9,1.7-4.9,2.5-9.3,2.5c-2.4,0-4.2-0.2-5.4-0.3V285.4z M150.8,296.5h3.2
		c3.7,0,5.8-1.9,5.8-4.5c0-3.2-2.4-4.4-5.9-4.4c-1.6,0-2.5,0.1-3.1,0.2V296.5z M150.8,309.4c0.7,0.1,1.7,0.2,2.9,0.2
		c3.6,0,6.9-1.3,6.9-5.2c0-3.7-3.2-5.2-7-5.2h-2.9V309.4z"/>
	<path class="st4" d="M185.1,306.8c0,2,0,3.8,0.2,5.3h-3.1l-0.2-3.2h-0.1c-0.9,1.6-3,3.6-6.4,3.6c-3,0-6.7-1.7-6.7-8.5v-11.3h3.5
		v10.7c0,3.7,1.1,6.2,4.3,6.2c2.4,0,4-1.6,4.6-3.2c0.2-0.5,0.3-1.2,0.3-1.8v-11.9h3.5V306.8z"/>
	<path class="st4" d="M190.4,308.4c1,0.7,2.9,1.4,4.6,1.4c2.6,0,3.8-1.3,3.8-2.9c0-1.7-1-2.6-3.6-3.6c-3.5-1.2-5.1-3.2-5.1-5.5
		c0-3.1,2.5-5.7,6.7-5.7c2,0,3.7,0.6,4.8,1.2l-0.9,2.6c-0.8-0.5-2.2-1.1-4-1.1c-2.1,0-3.2,1.2-3.2,2.6c0,1.6,1.2,2.3,3.7,3.3
		c3.4,1.3,5.1,3,5.1,5.8c0,3.4-2.6,5.8-7.2,5.8c-2.1,0-4.1-0.5-5.4-1.3L190.4,308.4z"/>
	<path class="st4" d="M210.7,287.2c0,1.2-0.8,2.2-2.2,2.2c-1.2,0-2.1-1-2.1-2.2c0-1.2,0.9-2.2,2.2-2.2
		C209.8,285,210.7,286,210.7,287.2z M206.8,312v-19.4h3.5V312H206.8z"/>
	<path class="st4" d="M216.1,297.9c0-2,0-3.6-0.2-5.2h3.1l0.2,3.2h0.1c1-1.8,3.2-3.6,6.4-3.6c2.7,0,6.8,1.6,6.8,8.2V312h-3.5v-11.2
		c0-3.1-1.2-5.7-4.5-5.7c-2.3,0-4.1,1.6-4.7,3.6c-0.2,0.4-0.2,1-0.2,1.6V312h-3.5V297.9z"/>
	<path class="st4" d="M240.3,303c0.1,4.8,3.1,6.7,6.6,6.7c2.5,0,4-0.4,5.4-1l0.6,2.5c-1.2,0.6-3.4,1.2-6.4,1.2c-6,0-9.5-3.9-9.5-9.8
		s3.4-10.4,9.1-10.4c6.3,0,8,5.6,8,9.1c0,0.7-0.1,1.3-0.1,1.6H240.3z M250.6,300.5c0-2.2-0.9-5.7-4.9-5.7c-3.6,0-5.1,3.3-5.4,5.7
		H250.6z"/>
	<path class="st4" d="M257.9,308.4c1,0.7,2.9,1.4,4.6,1.4c2.6,0,3.8-1.3,3.8-2.9c0-1.7-1-2.6-3.6-3.6c-3.5-1.2-5.1-3.2-5.1-5.5
		c0-3.1,2.5-5.7,6.7-5.7c2,0,3.7,0.6,4.8,1.2l-0.9,2.6c-0.8-0.5-2.2-1.1-4-1.1c-2.1,0-3.2,1.2-3.2,2.6c0,1.6,1.2,2.3,3.7,3.3
		c3.4,1.3,5.1,3,5.1,5.8c0,3.4-2.6,5.8-7.2,5.8c-2.1,0-4.1-0.5-5.4-1.3L257.9,308.4z"/>
	<path class="st4" d="M273.7,308.4c1,0.7,2.9,1.4,4.6,1.4c2.6,0,3.8-1.3,3.8-2.9c0-1.7-1-2.6-3.6-3.6c-3.5-1.2-5.1-3.2-5.1-5.5
		c0-3.1,2.5-5.7,6.7-5.7c2,0,3.7,0.6,4.8,1.2l-0.9,2.6c-0.8-0.5-2.2-1.1-4-1.1c-2.1,0-3.2,1.2-3.2,2.6c0,1.6,1.2,2.3,3.7,3.3
		c3.4,1.3,5.1,3,5.1,5.8c0,3.4-2.6,5.8-7.2,5.8c-2.1,0-4.1-0.5-5.4-1.3L273.7,308.4z"/>
	<path class="st4" d="M173.9,333.1h3.5v24h11.5v2.9h-15V333.1z"/>
	<path class="st4" d="M209.6,350.2c0,7.2-5,10.3-9.6,10.3c-5.2,0-9.3-3.8-9.3-10c0-6.5,4.2-10.3,9.6-10.3
		C205.9,340.2,209.6,344.3,209.6,350.2z M194.3,350.4c0,4.2,2.4,7.4,5.9,7.4c3.4,0,5.9-3.2,5.9-7.5c0-3.3-1.6-7.4-5.8-7.4
		S194.3,346.7,194.3,350.4z"/>
	<path class="st4" d="M230.7,340.7c-0.1,1.4-0.2,3-0.2,5.3v11.2c0,4.4-0.9,7.2-2.8,8.8c-1.9,1.8-4.6,2.3-7,2.3
		c-2.3,0-4.9-0.6-6.4-1.6l0.9-2.7c1.3,0.8,3.3,1.5,5.7,1.5c3.6,0,6.2-1.9,6.2-6.8v-2.2H227c-1.1,1.8-3.2,3.2-6.2,3.2
		c-4.8,0-8.2-4.1-8.2-9.4c0-6.6,4.3-10.3,8.7-10.3c3.4,0,5.2,1.8,6,3.4h0.1l0.2-2.9H230.7z M227.1,348.3c0-0.6,0-1.1-0.2-1.6
		c-0.6-2-2.4-3.7-4.9-3.7c-3.4,0-5.8,2.8-5.8,7.3c0,3.8,1.9,7,5.7,7c2.2,0,4.1-1.4,4.9-3.6c0.2-0.6,0.3-1.3,0.3-1.9V348.3z"/>
	<path class="st4" d="M240.1,335.2c0,1.2-0.8,2.2-2.2,2.2c-1.2,0-2.1-1-2.1-2.2c0-1.2,0.9-2.2,2.2-2.2
		C239.3,333,240.1,334,240.1,335.2z M236.2,360v-19.4h3.5V360H236.2z"/>
	<path class="st4" d="M259.3,359.3c-0.9,0.5-3,1.1-5.6,1.1c-5.8,0-9.6-4-9.6-9.9c0-6,4.1-10.3,10.4-10.3c2.1,0,3.9,0.5,4.9,1
		l-0.8,2.7c-0.8-0.5-2.2-0.9-4.1-0.9c-4.4,0-6.8,3.3-6.8,7.3c0,4.5,2.9,7.2,6.7,7.2c2,0,3.3-0.5,4.3-1L259.3,359.3z"/>
</g>
<g>
	<path class="st4" d="M368.1,257c2.1-0.3,4.6-0.6,7.4-0.6c5,0,8.6,1.2,10.9,3.4c2.4,2.2,3.8,5.3,3.8,9.7c0,4.4-1.4,8-3.9,10.5
		c-2.5,2.5-6.7,3.9-11.9,3.9c-2.5,0-4.6-0.1-6.3-0.3V257z M371.5,280.8c0.9,0.2,2.2,0.2,3.5,0.2c7.4,0,11.5-4.2,11.5-11.4
		c0-6.4-3.6-10.4-10.9-10.4c-1.8,0-3.2,0.2-4.1,0.4V280.8z"/>
	<path class="st4" d="M405.3,283.6l-0.3-2.4h-0.1c-1.1,1.5-3.2,2.9-5.9,2.9c-3.9,0-5.9-2.8-5.9-5.6c0-4.7,4.2-7.2,11.6-7.2v-0.4
		c0-1.6-0.4-4.5-4.4-4.5c-1.8,0-3.7,0.6-5,1.4l-0.8-2.3c1.6-1,3.9-1.7,6.4-1.7c5.9,0,7.4,4,7.4,7.9v7.2c0,1.7,0.1,3.3,0.3,4.6H405.3
		z M404.8,273.7c-3.8-0.1-8.2,0.6-8.2,4.4c0,2.3,1.5,3.4,3.3,3.4c2.5,0,4.1-1.6,4.7-3.2c0.1-0.4,0.2-0.8,0.2-1.1V273.7z"/>
	<path class="st4" d="M417.9,258.6v5.6h5v2.7h-5v10.4c0,2.4,0.7,3.8,2.6,3.8c0.9,0,1.6-0.1,2-0.2l0.2,2.6c-0.7,0.3-1.8,0.5-3.1,0.5
		c-1.6,0-3-0.5-3.8-1.5c-1-1-1.4-2.8-1.4-5v-10.6h-3v-2.7h3v-4.6L417.9,258.6z"/>
	<path class="st4" d="M437.7,283.6l-0.3-2.4h-0.1c-1.1,1.5-3.2,2.9-5.9,2.9c-3.9,0-5.9-2.8-5.9-5.6c0-4.7,4.2-7.2,11.6-7.2v-0.4
		c0-1.6-0.4-4.5-4.4-4.5c-1.8,0-3.7,0.6-5,1.4l-0.8-2.3c1.6-1,3.9-1.7,6.4-1.7c5.9,0,7.4,4,7.4,7.9v7.2c0,1.7,0.1,3.3,0.3,4.6H437.7
		z M437.1,273.7c-3.8-0.1-8.2,0.6-8.2,4.4c0,2.3,1.5,3.4,3.3,3.4c2.5,0,4.1-1.6,4.7-3.2c0.1-0.4,0.2-0.8,0.2-1.1V273.7z"/>
	<path class="st4" d="M356,323.1l-2.8,8.5h-3.6l9.2-27h4.2l9.2,27h-3.7l-2.9-8.5H356z M364.9,320.4l-2.6-7.8c-0.6-1.8-1-3.4-1.4-4.9
		h-0.1c-0.4,1.6-0.8,3.2-1.4,4.9l-2.6,7.8H364.9z"/>
	<path class="st4" d="M389.3,330.8c-0.9,0.5-3,1.1-5.6,1.1c-5.8,0-9.6-4-9.6-9.9c0-6,4.1-10.3,10.4-10.3c2.1,0,3.9,0.5,4.9,1
		l-0.8,2.7c-0.8-0.5-2.2-0.9-4.1-0.9c-4.4,0-6.8,3.3-6.8,7.3c0,4.5,2.9,7.2,6.7,7.2c2,0,3.3-0.5,4.3-1L389.3,330.8z"/>
	<path class="st4" d="M407,330.8c-0.9,0.5-3,1.1-5.6,1.1c-5.8,0-9.6-4-9.6-9.9c0-6,4.1-10.3,10.4-10.3c2.1,0,3.9,0.5,4.9,1l-0.8,2.7
		c-0.8-0.5-2.2-0.9-4.1-0.9c-4.4,0-6.8,3.3-6.8,7.3c0,4.5,2.9,7.2,6.7,7.2c2,0,3.3-0.5,4.3-1L407,330.8z"/>
	<path class="st4" d="M412.9,322.5c0.1,4.8,3.1,6.7,6.6,6.7c2.5,0,4-0.4,5.4-1l0.6,2.5c-1.2,0.6-3.4,1.2-6.4,1.2
		c-6,0-9.5-3.9-9.5-9.8s3.4-10.4,9.1-10.4c6.3,0,8,5.6,8,9.1c0,0.7-0.1,1.3-0.1,1.6H412.9z M423.2,320c0-2.2-0.9-5.7-4.9-5.7
		c-3.6,0-5.1,3.3-5.4,5.7H423.2z"/>
	<path class="st4" d="M430.5,328c1,0.7,2.9,1.4,4.6,1.4c2.6,0,3.8-1.3,3.8-2.9c0-1.7-1-2.6-3.6-3.6c-3.5-1.2-5.1-3.2-5.1-5.5
		c0-3.1,2.5-5.7,6.7-5.7c2,0,3.7,0.6,4.8,1.2l-0.9,2.6c-0.8-0.5-2.2-1.1-4-1.1c-2.1,0-3.2,1.2-3.2,2.6c0,1.6,1.2,2.3,3.7,3.3
		c3.4,1.3,5.1,3,5.1,5.8c0,3.4-2.6,5.8-7.2,5.8c-2.1,0-4.1-0.5-5.4-1.3L430.5,328z"/>
	<path class="st4" d="M446.3,328c1,0.7,2.9,1.4,4.6,1.4c2.6,0,3.8-1.3,3.8-2.9c0-1.7-1-2.6-3.6-3.6c-3.5-1.2-5.1-3.2-5.1-5.5
		c0-3.1,2.5-5.7,6.7-5.7c2,0,3.7,0.6,4.8,1.2l-0.9,2.6c-0.8-0.5-2.2-1.1-4-1.1c-2.1,0-3.2,1.2-3.2,2.6c0,1.6,1.2,2.3,3.7,3.3
		c3.4,1.3,5.1,3,5.1,5.8c0,3.4-2.6,5.8-7.2,5.8c-2.1,0-4.1-0.5-5.4-1.3L446.3,328z"/>
	<path class="st4" d="M362.5,352.6h3.5v24h11.5v2.9h-15V352.6z"/>
	<path class="st4" d="M392,379.6l-0.3-2.4h-0.1c-1.1,1.5-3.2,2.9-5.9,2.9c-3.9,0-5.9-2.8-5.9-5.6c0-4.7,4.2-7.2,11.6-7.2v-0.4
		c0-1.6-0.4-4.5-4.4-4.5c-1.8,0-3.7,0.6-5,1.4l-0.8-2.3c1.6-1,3.9-1.7,6.4-1.7c5.9,0,7.4,4,7.4,7.9v7.2c0,1.7,0.1,3.3,0.3,4.6H392z
		 M391.5,369.7c-3.8-0.1-8.2,0.6-8.2,4.4c0,2.3,1.5,3.4,3.3,3.4c2.5,0,4.1-1.6,4.7-3.2c0.1-0.4,0.2-0.8,0.2-1.1V369.7z"/>
	<path class="st4" d="M401.5,360.2l4.2,11.4c0.4,1.3,0.9,2.8,1.2,4h0.1c0.4-1.2,0.8-2.6,1.2-4l3.8-11.4h3.7l-5.3,13.8
		c-2.5,6.6-4.2,10-6.6,12.1c-1.7,1.5-3.4,2.1-4.3,2.3l-0.9-3c0.9-0.3,2-0.8,3.1-1.7c1-0.8,2.2-2.1,3-3.9c0.2-0.4,0.3-0.6,0.3-0.8
		c0-0.2-0.1-0.5-0.2-0.9l-7.2-17.8H401.5z"/>
	<path class="st4" d="M420.6,370.5c0.1,4.8,3.1,6.7,6.6,6.7c2.5,0,4-0.4,5.4-1l0.6,2.5c-1.2,0.6-3.4,1.2-6.4,1.2
		c-6,0-9.5-3.9-9.5-9.8s3.4-10.4,9.1-10.4c6.3,0,8,5.6,8,9.1c0,0.7-0.1,1.3-0.1,1.6H420.6z M430.9,368c0-2.2-0.9-5.7-4.9-5.7
		c-3.6,0-5.1,3.3-5.4,5.7H430.9z"/>
	<path class="st4" d="M438.7,366.2c0-2.3,0-4.2-0.2-6h3.1l0.1,3.8h0.2c0.9-2.6,3-4.2,5.4-4.2c0.4,0,0.7,0,1,0.1v3.3
		c-0.4-0.1-0.7-0.1-1.2-0.1c-2.5,0-4.2,1.9-4.7,4.5c-0.1,0.5-0.2,1-0.2,1.6v10.3h-3.5V366.2z"/>
</g>
<g>
	<circle class="st5" cx="313.1" cy="637.7" r="73.1"/>
	<g>
		<path class="st0" d="M335.1,674h-44c-7.9,0-14.3-6.4-14.3-14.3v-44c0-7.9,6.4-14.3,14.3-14.3h44c7.9,0,14.3,6.4,14.3,14.3v44
			C349.4,667.6,343,674,335.1,674z"/>
		<line class="st6" x1="276.9" y1="625.7" x2="349.2" y2="625.7"/>
		<line class="st6" x1="276.9" y1="651.8" x2="349.2" y2="651.8"/>
		<circle class="st0" cx="288.8" cy="615" r="2.2"/>
		<circle class="st0" cx="288.8" cy="639.9" r="2.2"/>
		<circle class="st0" cx="288.8" cy="663.6" r="2.2"/>
	</g>
</g>
<line class="st6" x1="313.1" y1="520.6" x2="313.1" y2="564.6"/>
<g>
	<path class="st7" d="M148.5,753c-0.2-3.4-0.4-7.5-0.4-10.5h-0.1c-0.8,2.8-1.8,5.9-3.1,9.2l-4.3,11.8h-2.4l-3.9-11.6
		c-1.2-3.4-2.1-6.6-2.8-9.4h-0.1c-0.1,3-0.3,7.1-0.5,10.7l-0.6,10.4h-3l1.7-24.3h4l4.1,11.7c1,3,1.8,5.7,2.4,8.2h0.1
		c0.6-2.4,1.5-5.1,2.6-8.2l4.3-11.7h4l1.5,24.3h-3.1L148.5,753z"/>
	<path class="st7" d="M172.9,754.8c0,6.4-4.5,9.2-8.7,9.2c-4.7,0-8.4-3.5-8.4-9c0-5.8,3.8-9.2,8.6-9.2
		C169.5,745.8,172.9,749.4,172.9,754.8z M159.1,754.9c0,3.8,2.2,6.7,5.3,6.7c3,0,5.3-2.8,5.3-6.8c0-3-1.5-6.7-5.2-6.7
		C160.7,748.2,159.1,751.6,159.1,754.9z"/>
	<path class="st7" d="M176.9,750.9c0-1.8,0-3.3-0.1-4.7h2.8l0.2,2.9h0.1c0.9-1.7,2.9-3.3,5.8-3.3c2.4,0,6.2,1.4,6.2,7.4v10.4h-3.2
		v-10c0-2.8-1-5.1-4-5.1c-2.1,0-3.7,1.5-4.2,3.2c-0.1,0.4-0.2,0.9-0.2,1.5v10.5h-3.2V750.9z"/>
	<path class="st7" d="M212.6,754.8c0,6.4-4.5,9.2-8.7,9.2c-4.7,0-8.4-3.5-8.4-9c0-5.8,3.8-9.2,8.6-9.2
		C209.3,745.8,212.6,749.4,212.6,754.8z M198.8,754.9c0,3.8,2.2,6.7,5.3,6.7c3,0,5.3-2.8,5.3-6.8c0-3-1.5-6.7-5.2-6.7
		C200.4,748.2,198.8,751.6,198.8,754.9z"/>
	<path class="st7" d="M216.6,738.1h3.2v25.6h-3.2V738.1z"/>
	<path class="st7" d="M228.7,741.3c0,1.1-0.8,1.9-2,1.9c-1.1,0-1.9-0.9-1.9-1.9c0-1.1,0.8-2,2-2
		C227.9,739.3,228.7,740.2,228.7,741.3z M225.1,763.6v-17.4h3.2v17.4H225.1z"/>
	<path class="st7" d="M237.4,741.2v5h4.5v2.4h-4.5v9.4c0,2.2,0.6,3.4,2.4,3.4c0.8,0,1.4-0.1,1.8-0.2l0.1,2.4
		c-0.6,0.3-1.6,0.4-2.8,0.4c-1.5,0-2.7-0.5-3.4-1.3c-0.9-0.9-1.2-2.5-1.2-4.5v-9.5h-2.7v-2.4h2.7V742L237.4,741.2z"/>
	<path class="st7" d="M249,741.3c0,1.1-0.8,1.9-2,1.9c-1.1,0-1.9-0.9-1.9-1.9c0-1.1,0.8-2,2-2C248.2,739.3,249,740.2,249,741.3z
		 M245.5,763.6v-17.4h3.2v17.4H245.5z"/>
	<path class="st7" d="M257.7,741.2v5h4.5v2.4h-4.5v9.4c0,2.2,0.6,3.4,2.4,3.4c0.8,0,1.4-0.1,1.8-0.2l0.1,2.4
		c-0.6,0.3-1.6,0.4-2.8,0.4c-1.5,0-2.7-0.5-3.4-1.3c-0.9-0.9-1.2-2.5-1.2-4.5v-9.5h-2.7v-2.4h2.7V742L257.7,741.2z"/>
	<path class="st7" d="M265.8,738.1h3.2v10.9h0.1c0.5-0.9,1.3-1.7,2.3-2.2c0.9-0.5,2.1-0.9,3.2-0.9c2.3,0,6.1,1.4,6.1,7.5v10.4h-3.2
		v-10c0-2.8-1-5.2-4-5.2c-2.1,0-3.7,1.4-4.2,3.2c-0.2,0.4-0.2,0.9-0.2,1.5v10.5h-3.2V738.1z"/>
	<path class="st7" d="M289.3,741.3c0,1.1-0.8,1.9-2,1.9c-1.1,0-1.9-0.9-1.9-1.9c0-1.1,0.8-2,2-2
		C288.6,739.3,289.3,740.2,289.3,741.3z M285.8,763.6v-17.4h3.2v17.4H285.8z"/>
	<path class="st7" d="M306.6,763c-0.8,0.4-2.7,1-5,1c-5.3,0-8.7-3.6-8.7-8.9c0-5.4,3.7-9.3,9.4-9.3c1.9,0,3.5,0.5,4.4,0.9l-0.7,2.4
		c-0.8-0.4-1.9-0.8-3.7-0.8c-4,0-6.2,3-6.2,6.6c0,4,2.6,6.5,6,6.5c1.8,0,3-0.5,3.9-0.9L306.6,763z"/>
	<path class="st7" d="M322,756l-2.5,7.6h-3.2l8.2-24.3h3.8l8.3,24.3h-3.3l-2.6-7.6H322z M330,753.5l-2.4-7c-0.5-1.6-0.9-3-1.3-4.4
		h-0.1c-0.4,1.4-0.8,2.9-1.2,4.4l-2.4,7H330z"/>
	<path class="st7" d="M339.9,751.6c0-2.1,0-3.8-0.1-5.4h2.8l0.1,3.4h0.1c0.8-2.3,2.7-3.8,4.8-3.8c0.4,0,0.6,0,0.9,0.1v3
		c-0.3-0.1-0.6-0.1-1.1-0.1c-2.2,0-3.8,1.7-4.2,4.1c-0.1,0.4-0.1,0.9-0.1,1.5v9.3h-3.1V751.6z"/>
	<path class="st7" d="M363.7,763c-0.8,0.4-2.7,1-5,1c-5.3,0-8.7-3.6-8.7-8.9c0-5.4,3.7-9.3,9.4-9.3c1.9,0,3.5,0.5,4.4,0.9l-0.7,2.4
		c-0.8-0.4-1.9-0.8-3.7-0.8c-4,0-6.2,3-6.2,6.6c0,4,2.6,6.5,6,6.5c1.8,0,3-0.5,3.9-0.9L363.7,763z"/>
	<path class="st7" d="M367.4,738.1h3.2v10.9h0.1c0.5-0.9,1.3-1.7,2.3-2.2c0.9-0.5,2.1-0.9,3.2-0.9c2.3,0,6.1,1.4,6.1,7.5v10.4h-3.2
		v-10c0-2.8-1-5.2-4-5.2c-2.1,0-3.7,1.4-4.2,3.2c-0.2,0.4-0.2,0.9-0.2,1.5v10.5h-3.2V738.1z"/>
	<path class="st7" d="M391,741.3c0,1.1-0.8,1.9-2,1.9c-1.1,0-1.9-0.9-1.9-1.9c0-1.1,0.8-2,2-2C390.2,739.3,391,740.2,391,741.3z
		 M387.4,763.6v-17.4h3.2v17.4H387.4z"/>
	<path class="st7" d="M399.7,741.2v5h4.5v2.4h-4.5v9.4c0,2.2,0.6,3.4,2.4,3.4c0.8,0,1.4-0.1,1.8-0.2l0.1,2.4
		c-0.6,0.3-1.6,0.4-2.8,0.4c-1.5,0-2.7-0.5-3.4-1.3c-0.9-0.9-1.2-2.5-1.2-4.5v-9.5h-2.7v-2.4h2.7V742L399.7,741.2z"/>
	<path class="st7" d="M409.3,755.5c0.1,4.3,2.8,6,6,6c2.3,0,3.6-0.4,4.8-0.9l0.5,2.3c-1.1,0.5-3,1.1-5.8,1.1c-5.4,0-8.6-3.5-8.6-8.8
		c0-5.3,3.1-9.4,8.2-9.4c5.7,0,7.2,5,7.2,8.2c0,0.6-0.1,1.2-0.1,1.5H409.3z M418.6,753.2c0-2-0.8-5.1-4.4-5.1c-3.2,0-4.6,3-4.9,5.1
		H418.6z"/>
	<path class="st7" d="M438,763c-0.8,0.4-2.7,1-5,1c-5.3,0-8.7-3.6-8.7-8.9c0-5.4,3.7-9.3,9.4-9.3c1.9,0,3.5,0.5,4.4,0.9l-0.7,2.4
		c-0.8-0.4-1.9-0.8-3.7-0.8c-4,0-6.2,3-6.2,6.6c0,4,2.6,6.5,6,6.5c1.8,0,3-0.5,3.9-0.9L438,763z"/>
	<path class="st7" d="M446,741.2v5h4.5v2.4H446v9.4c0,2.2,0.6,3.4,2.4,3.4c0.8,0,1.4-0.1,1.8-0.2l0.1,2.4c-0.6,0.3-1.6,0.4-2.8,0.4
		c-1.5,0-2.7-0.5-3.4-1.3c-0.9-0.9-1.2-2.5-1.2-4.5v-9.5h-2.7v-2.4h2.7V742L446,741.2z"/>
	<path class="st7" d="M468.7,758.9c0,1.8,0,3.4,0.1,4.8H466l-0.2-2.8h-0.1c-0.8,1.4-2.7,3.2-5.8,3.2c-2.7,0-6-1.5-6-7.6v-10.2h3.2
		v9.6c0,3.3,1,5.5,3.9,5.5c2.1,0,3.6-1.5,4.2-2.9c0.2-0.5,0.3-1,0.3-1.6v-10.7h3.2V758.9z"/>
	<path class="st7" d="M473.9,751.6c0-2.1,0-3.8-0.1-5.4h2.8l0.1,3.4h0.1c0.8-2.3,2.7-3.8,4.8-3.8c0.4,0,0.6,0,0.9,0.1v3
		c-0.3-0.1-0.6-0.1-1.1-0.1c-2.2,0-3.8,1.7-4.2,4.1c-0.1,0.4-0.1,0.9-0.1,1.5v9.3h-3.1V751.6z"/>
	<path class="st7" d="M487.1,755.5c0.1,4.3,2.8,6,6,6c2.3,0,3.6-0.4,4.8-0.9l0.5,2.3c-1.1,0.5-3,1.1-5.8,1.1c-5.4,0-8.6-3.5-8.6-8.8
		c0-5.3,3.1-9.4,8.2-9.4c5.7,0,7.2,5,7.2,8.2c0,0.6-0.1,1.2-0.1,1.5H487.1z M496.4,753.2c0-2-0.8-5.1-4.4-5.1c-3.2,0-4.6,3-4.9,5.1
		H496.4z"/>
</g>
</svg>
